<?xml version="1.0" encoding="utf-8"?>
<!-- Generator: Adobe Illustrator 22.1.0, SVG Export Plug-In . SVG Version: 6.00 Build 0)  -->
<svg version="1.1" id="Isolation_Mode" xmlns="http://www.w3.org/2000/svg" xmlns:xlink="http://www.w3.org/1999/xlink" x="0px"
	 y="0px" viewBox="0 0 792 340.2" style="enable-background:new 0 0 792 340.2;" xml:space="preserve">
<style type="text/css">
	.st0{fill:#FFFFFF;}
	.st1{fill:url(#SVGID_1_);}
	.st2{fill:url(#SVGID_2_);}
</style>
<g>
	<path class="st0" d="M52,297.3l-4.6,3.7c-3.9-5.7-9.8-9.2-17.1-9.2c-11.9,0-20.9,9.2-20.9,21.4c0,12.3,9.1,21.4,20.9,21.4
		c7.3,0,13.2-3.5,17.1-9.2l4.6,3.7c-4.2,6.7-12.3,11.3-21.8,11.3c-15.2,0-27.3-11.8-27.3-27.1C2.9,297.7,15,286,30.2,286
		C39.7,286,47.6,290.6,52,297.3z M90.4,315.5v23.9h-5.7v-5c-2.8,3.7-7.3,5.9-13.1,5.9c-7.8,0-13.5-4.1-13.5-10.9
		c0-6.5,5.5-10.8,13.9-10.8h12.3v-3.3c0-6.5-3.7-9.8-9.4-9.8c-4.9,0-8.3,2.3-11.3,6.2l-4.1-3.3c3.7-5.9,9.5-8.5,15.8-8.5
		C84.2,299.7,90.4,305.1,90.4,315.5z M84.3,324.5v-1H72.8c-5.4,0-8.4,1.8-8.4,5.5c0,4.1,3.7,6.1,8,6.1
		C78.8,335.1,84.3,330.5,84.3,324.5z M122.2,300.6v5.4h-2.3c-6.3,0-12.2,4-12.2,11.4v22h-6.1v-38.8h5.7v5.5c2.9-3.8,7.4-5.8,12-5.8
		C120.6,300.3,121.4,300.4,122.2,300.6z M162,321.9h-30.6c0.8,7.7,6.6,12.7,14.2,12.7c4.9,0,8.7-2.1,11.9-5.3l3.6,4.1
		c-3.9,4.1-9.2,6.8-15.5,6.8c-11.7,0-20.5-8.8-20.5-20.2c0-11.3,8.7-20.3,19.8-20.3c9.9,0,17.7,7.2,17.7,17.5
		C162.5,319.3,162.2,321.1,162,321.9z M131.6,316.4h24.6c-0.1-7.2-5.4-11.1-11.5-11.1C138.1,305.3,132.9,309.8,131.6,316.4z
		 M241.7,297.3l-4.6,3.7c-3.9-5.7-9.8-9.2-17.1-9.2c-11.9,0-20.9,9.2-20.9,21.4c0,12.3,9.1,21.4,20.9,21.4c7.3,0,13.2-3.5,17.1-9.2
		l4.6,3.7c-4.2,6.7-12.3,11.3-21.8,11.3c-15.2,0-27.3-11.8-27.3-27.1c0-15.4,12.1-27.1,27.3-27.1C229.4,286,237.3,290.6,241.7,297.3
		z M284.3,321.9h-30.6c0.8,7.7,6.6,12.7,14.2,12.7c4.9,0,8.7-2.1,11.9-5.3l3.6,4.1c-3.9,4.1-9.2,6.8-15.5,6.8
		c-11.7,0-20.5-8.8-20.5-20.2c0-11.3,8.7-20.3,19.8-20.3c9.9,0,17.7,7.2,17.7,17.5C284.8,319.3,284.5,321.1,284.3,321.9z
		 M253.9,316.4h24.6c-0.1-7.2-5.4-11.1-11.5-11.1C260.4,305.3,255.3,309.8,253.9,316.4z M325.8,315v24.4h-6.1v-23.6
		c0-6.1-3.7-10.3-9.6-10.3s-10.2,4.3-10.2,10.3v23.6h-6.1v-38.8h5.7v4.1c2.8-3.1,6.9-5,11.9-5C320.5,299.7,325.8,306,325.8,315z
		 M357.4,334.2v5.2c-2,0.5-4,0.9-6.4,0.9c-7.6,0-13.1-3.7-13.1-12.6v-21.6h-6.5v-5.5h6.5V290h6.1v10.6h12.1v5.5H344v21.2
		c0,5.8,3.3,7.4,8.2,7.4C353.7,334.7,355.4,334.5,357.4,334.2z M397.5,321.9h-30.6c0.8,7.7,6.6,12.7,14.2,12.7
		c4.9,0,8.7-2.1,11.9-5.3l3.6,4.1c-3.9,4.1-9.2,6.8-15.5,6.8c-11.7,0-20.5-8.8-20.5-20.2c0-11.3,8.7-20.3,19.8-20.3
		c9.9,0,17.7,7.2,17.7,17.5C397.9,319.3,397.6,321.1,397.5,321.9z M367.1,316.4h24.6c-0.1-7.2-5.4-11.1-11.5-11.1
		C373.6,305.3,368.4,309.8,367.1,316.4z M427.5,300.6v5.4h-2.3c-6.3,0-12.2,4-12.2,11.4v22h-6.1v-38.8h5.7v5.5
		c2.9-3.8,7.4-5.8,12-5.8C425.9,300.3,426.7,300.4,427.5,300.6z"/>
	<path class="st0" d="M744.5,240.5h-4v-2.3H751v2.3h-4v10.8h-2.5V240.5z M753.8,238.2h2.7l4,6.2l4-6.2h2.6v13.1h-2.4V242l-4,6.3
		h-0.3l-4-6.3v9.3h-2.4V238.2z"/>
	<g>
		<linearGradient id="SVGID_1_" gradientUnits="userSpaceOnUse" x1="387.4059" y1="125.6215" x2="792" y2="125.6215">
			<stop  offset="0" style="stop-color:#BAD8D9"/>
			<stop  offset="0.5" style="stop-color:#66909E"/>
			<stop  offset="1" style="stop-color:#BAD8D9"/>
		</linearGradient>
		<path class="st1" d="M792,125.6c0-4.2-3.4-7.6-7.6-7.6c-1.9,0-3.6,0.7-4.9,1.8l0,0c-33.6,26.4-62.7,38.3-92.4,38
			c-28.8-0.3-58.3-12.5-92.8-38.3C557,91.7,524.7,78.6,492.5,78.3c-0.4,0-0.9,0-1.3,0c-32.4,0-65.4,13.6-100.9,41.4l0,0
			c-1.8,1.4-2.9,3.5-2.9,5.9c0,4.2,3.4,7.6,7.6,7.6c1.8,0,3.4-0.6,4.7-1.6l0,0c33.6-26.4,63-38.5,92.7-38.2
			c28.8,0.3,58.3,12.5,92.8,38.3c37.2,27.8,69.5,40.9,101.7,41.3c0.4,0,0.9,0,1.3,0c32.4,0,65.5-13.6,100.9-41.5l0,0
			C790.9,130.1,792,128,792,125.6z"/>
		<linearGradient id="SVGID_2_" gradientUnits="userSpaceOnUse" x1="387.4059" y1="125.6208" x2="792" y2="125.6208">
			<stop  offset="0" style="stop-color:#66909E"/>
			<stop  offset="8.758622e-02" style="stop-color:#779EAA"/>
			<stop  offset="0.3632" style="stop-color:#A8C8CC"/>
			<stop  offset="0.5" style="stop-color:#BAD8D9"/>
			<stop  offset="0.629" style="stop-color:#A9CACD"/>
			<stop  offset="0.8842" style="stop-color:#7CA3AE"/>
			<stop  offset="1" style="stop-color:#66909E"/>
		</linearGradient>
		<path class="st2" d="M791.5,128.4L791.5,128.4c0.3-0.9,0.5-1.8,0.5-2.8c0-4.2-3.4-7.6-7.6-7.6c-3.2,0-5.9,2-7,4.8l0,0
			c-29.7,74.1-60.9,113.3-90,113.3c-0.1,0-0.2,0-0.4,0c-29.1-0.3-60.3-39.5-90.3-113.3C563.6,40.2,529.5,0,492.7,0
			c-0.1,0-0.3,0-0.4,0C455.6,0.3,421.5,40.4,388,122.7c0,0,0,0.1,0,0.1c-0.4,0.9-0.6,1.8-0.6,2.9c0,4.2,3.4,7.6,7.6,7.6
			c3.2,0,5.9-2,7-4.7l0,0C432,54.6,463.3,15.4,492.4,15.1c0.1,0,0.2,0,0.3,0c29.1,0,60.3,39.2,90,113.3
			c33.4,82.2,67.5,122.4,104.2,122.8c0.2,0,0.4,0,0.6,0c36.8,0,70.8-40.1,104-122.7c0,0,0,0,0,0
			C791.4,128.5,791.4,128.5,791.5,128.4z"/>
	</g>
	<path class="st0" d="M131.4,174.7c4.5,0,8.7,0.8,12.7,2.4c3.7,1.5,7,3.7,9.8,6.6c5.8,5.8,9,14,9,22.9c0,8.9-3.3,17.1-9.2,23.1
		c-5.9,6-13.9,9.2-22.5,9.2c-4.5,0-8.7-0.8-12.7-2.4c-3.7-1.5-7-3.7-9.8-6.6c-5.8-5.8-9-14-9-22.9c0-8.9,3.3-17.1,9.2-23.1
		C114.8,178,122.8,174.7,131.4,174.7 M131.4,162.4c-24.7,0-44,19.5-44,44.7c0,25.2,18.8,44.2,43.7,44.2c24.7,0,44-19.5,44-44.7
		C175.1,181.4,156.3,162.4,131.4,162.4L131.4,162.4z M393.6,162.4c-3.4,0-6.1,2.8-6.1,6.2v75.6c0,3.4,2.8,6.1,6.1,6.1
		s6.2-2.8,6.2-6.1v-75.6C399.7,165.1,397,162.4,393.6,162.4z M232,162.4c-22.6,0-41,20-41,44.5v37.3c0,3.4,2.8,6.2,6.1,6.2
		c3.4,0,6.1-2.8,6.1-6.2v-37.3c0-17.8,12.9-32.2,28.7-32.2c15.7,0,28.5,14.4,28.5,32.1v37.4c0,3.4,2.8,6.2,6.2,6.2
		c3.4,0,6.1-2.8,6.1-6.2v-37.4C272.8,182.3,254.5,162.4,232,162.4z M494.5,162.5c-0.3-0.1-0.7-0.1-1-0.1c-3,0-5.6,2.2-6.1,5.2
		c-6.9,42.7-20.5,71.4-28.7,71.4c-5.7,0-20.7-18-28.6-71.3c-0.4-3-3.1-5.3-6.1-5.3c-0.3,0-0.6,0-0.9,0.1c-1.6,0.2-3.1,1.1-4,2.4
		c-1,1.3-1.4,2.9-1.1,4.6c2,13.7,13.4,81.8,40.8,81.8c11.3,0,21.3-12.2,29.7-36.1c6.4-18.3,10-38,11.2-45.6
		C500.1,166.2,497.8,163,494.5,162.5z M364.3,162.5c-0.3-0.1-0.7-0.1-1-0.1c-3,0-5.6,2.2-6.1,5.2c-6.9,42.7-20.5,71.4-28.7,71.4
		c-5.7,0-20.7-18-28.6-71.3c-0.4-3-3.1-5.3-6.1-5.3c-0.3,0-0.6,0-0.9,0.1c-1.6,0.2-3.1,1.1-4,2.4c-1,1.3-1.4,2.9-1.1,4.6
		c1.1,7.6,4.4,27.3,10.7,45.6c8.2,24,18.3,36.2,30.1,36.2c11.3,0,21.3-12.2,29.7-36.1c6.4-18.3,10-38,11.2-45.6
		C370,166.2,367.7,163,364.3,162.5z M586.6,244.2c-2-13.7-13.4-81.8-40.8-81.8c-11.3,0-21.3,12.2-29.7,36.1
		c-6.4,18.3-10,38-11.2,45.6c-0.5,3.3,1.7,6.5,5.1,7.1c0.3,0.1,0.7,0.1,1,0.1c3,0,5.6-2.2,6.1-5.2c0.9-5.8,2.2-12.2,3.7-18.5h50.4
		c1.2,5.9,2.3,12,3.3,18.4c0.4,3,3.1,5.3,6.1,5.3c0.3,0,0.6,0,0.9-0.1c1.6-0.2,3.1-1.1,4-2.4C586.4,247.5,586.8,245.8,586.6,244.2z
		 M523.6,216.7c7.2-25.9,15.6-42,22.3-42c4.6,0,14.8,11.4,22.8,42H523.6z M75.9,235c0-3.3-2.6-6.1-6.1-6.1c-1.5,0-2.8,0.5-4.1,1.6
		c-6.8,6-13.4,8.5-22.5,8.5c-8.5,0-16.4-3.2-22-8.9c-5.7-5.8-8.8-14-8.8-23c0-8.9,3.2-17.2,9.1-23.2c5.8-5.9,13.6-9.2,22.1-9.2
		c9,0,15.3,2.1,21.7,7.4c1.1,0.9,2.4,1.4,3.9,1.4c3.4,0,6.1-2.8,6.1-6.1c0-1.9-0.7-3.5-2.3-4.8c-8.7-7-17.7-10.1-29.5-10.1
		C19.1,162.4,0,181.9,0,207.1c0,25.2,18.5,44.2,43.1,44.2c12.2,0,21.7-3.6,30.9-11.8C75.2,238.3,75.9,236.7,75.9,235z"/>
</g>
</svg>
