<?xml version="1.0" encoding="utf-8"?>
<!-- Generator: Adobe Illustrator 21.1.0, SVG Export Plug-In . SVG Version: 6.00 Build 0)  -->
<svg version="1.1" id="Layer_1" xmlns="http://www.w3.org/2000/svg" xmlns:xlink="http://www.w3.org/1999/xlink" x="0px" y="0px"
	 viewBox="0 0 919 394.8" style="enable-background:new 0 0 919 394.8;" xml:space="preserve">
<style type="text/css">
	.st0{fill:none;}
	.st1{fill:url(#SVGID_1_);}
	.st2{fill:url(#SVGID_2_);}
</style>
<g>
	<rect x="-103.1" y="-103.1" class="st0" width="1125.2" height="600"/>
	<g>
		<path d="M60.3,344.9l-5.4,4.2c-4.5-6.6-11.4-10.7-19.9-10.7c-13.8,0-24.3,10.6-24.3,24.8c0,14.2,10.5,24.8,24.3,24.8
			c8.5,0,15.3-4.1,19.9-10.7l5.4,4.2c-4.9,7.8-14.2,13.1-25.3,13.1c-17.6,0-31.7-13.7-31.7-31.5s14-31.5,31.7-31.5
			C46.1,331.8,55.2,337.2,60.3,344.9z M105,366.1v27.7h-6.6V388c-3.2,4.3-8.5,6.8-15.1,6.8c-9.1,0-15.7-4.8-15.7-12.6
			c0-7.6,6.4-12.6,16.2-12.6h14.2v-3.9c0-7.6-4.2-11.4-10.9-11.4c-5.6,0-9.6,2.7-13.1,7.2l-4.7-3.9c4.2-6.8,11.1-9.9,18.3-9.9
			C97.7,347.8,105,354,105,366.1z M97.9,376.5v-1.1H84.5c-6.3,0-9.7,2.1-9.7,6.4c0,4.8,4.3,7.1,9.3,7.1
			C91.5,388.9,97.9,383.5,97.9,376.5z M141.8,348.8v6.3h-2.7c-7.3,0-14.1,4.6-14.1,13.2v25.5h-7.1v-45h6.6v6.4
			c3.3-4.4,8.6-6.7,13.9-6.7C140,348.5,140.9,348.6,141.8,348.8z M188,373.5h-35.5c0.9,9,7.7,14.8,16.5,14.8
			c5.6,0,10.1-2.4,13.8-6.1l4.2,4.8c-4.5,4.8-10.6,7.9-18,7.9c-13.6,0-23.8-10.2-23.8-23.5c0-13.1,10.1-23.5,23-23.5
			c11.5,0,20.5,8.3,20.5,20.3C188.5,370.5,188.2,372.7,188,373.5z M152.7,367.2h28.5c-0.1-8.3-6.3-12.9-13.4-12.9
			C160.3,354.3,154.3,359.4,152.7,367.2z M280.4,344.9l-5.4,4.2c-4.5-6.6-11.4-10.7-19.9-10.7c-13.8,0-24.3,10.6-24.3,24.8
			c0,14.2,10.5,24.8,24.3,24.8c8.5,0,15.3-4.1,19.9-10.7l5.4,4.2c-4.9,7.8-14.2,13.1-25.3,13.1c-17.6,0-31.7-13.7-31.7-31.5
			s14-31.5,31.7-31.5C266.2,331.8,275.3,337.2,280.4,344.9z M329.9,373.5h-35.5c0.9,9,7.7,14.8,16.5,14.8c5.6,0,10.1-2.4,13.8-6.1
			l4.2,4.8c-4.5,4.8-10.6,7.9-18,7.9c-13.6,0-23.8-10.2-23.8-23.5c0-13.1,10.1-23.5,23-23.5c11.5,0,20.5,8.3,20.5,20.3
			C330.5,370.5,330.1,372.7,329.9,373.5z M294.6,367.2h28.5c-0.1-8.3-6.3-12.9-13.4-12.9C302.2,354.3,296.2,359.4,294.6,367.2z
			 M378,365.5v28.3h-7.1v-27.4c0-7.1-4.2-12-11.2-12s-11.8,5-11.8,12v27.4h-7.1v-45h6.6v4.8c3.2-3.6,8-5.8,13.9-5.8
			C371.9,347.8,378,355.1,378,365.5z M414.7,387.8v6c-2.3,0.5-4.6,1-7.5,1c-8.9,0-15.1-4.3-15.1-14.6v-25h-7.6v-6.4h7.6v-12.3h7.1
			v12.3h14v6.4h-14v24.6c0,6.7,3.9,8.6,9.5,8.6C410.4,388.3,412.4,388.2,414.7,387.8z M461.2,373.5h-35.5c0.9,9,7.7,14.8,16.5,14.8
			c5.6,0,10.1-2.4,13.8-6.1l4.2,4.8c-4.5,4.8-10.6,7.9-18,7.9c-13.6,0-23.8-10.2-23.8-23.5c0-13.1,10.1-23.5,23-23.5
			c11.5,0,20.5,8.3,20.5,20.3C461.8,370.5,461.4,372.7,461.2,373.5z M425.9,367.2h28.5c-0.1-8.3-6.3-12.9-13.4-12.9
			C433.5,354.3,427.5,359.4,425.9,367.2z M496,348.8v6.3h-2.7c-7.3,0-14.1,4.6-14.1,13.2v25.5h-7.1v-45h6.7v6.4
			c3.3-4.4,8.6-6.7,13.9-6.7C494.2,348.5,495.1,348.6,496,348.8z"/>
		<g>
			
				<linearGradient id="SVGID_1_" gradientUnits="userSpaceOnUse" x1="449.52" y1="250.05" x2="919.01" y2="250.05" gradientTransform="matrix(1 0 0 -1 0 395.8)">
				<stop  offset="0" style="stop-color:#ACD0D1"/>
				<stop  offset="0.5" style="stop-color:#00465E"/>
				<stop  offset="1" style="stop-color:#ACD0D1"/>
			</linearGradient>
			<path class="st1" d="M919,145.8c0-4.9-3.9-8.8-8.8-8.8c-2.2,0-4.2,0.8-5.7,2.1l0,0c-39,30.6-72.8,44.5-107.2,44.1
				c-33.4-0.4-67.7-14.5-107.7-44.4c-43.2-32.3-80.7-47.5-118-47.9c-0.5,0-1,0-1.5,0c-37.6,0-75.9,15.7-117.1,48.1l0,0
				c-2,1.6-3.4,4.1-3.4,6.9c0,4.9,3.9,8.8,8.8,8.8c2,0,3.9-0.7,5.4-1.9l0,0c39-30.6,73.1-44.7,107.6-44.3
				c33.5,0.4,67.7,14.5,107.7,44.4c43.2,32.3,80.7,47.5,118,47.9c0.5,0,1,0,1.5,0c37.6,0,76-15.8,117.1-48.2l0,0
				C917.7,151,919,148.5,919,145.8z"/>
			
				<linearGradient id="SVGID_2_" gradientUnits="userSpaceOnUse" x1="449.55" y1="250.035" x2="919.01" y2="250.035" gradientTransform="matrix(1 0 0 -1 0 395.8)">
				<stop  offset="0" style="stop-color:#00465E"/>
				<stop  offset="6.480000e-02" style="stop-color:#195A6F"/>
				<stop  offset="0.2757" style="stop-color:#689AA4"/>
				<stop  offset="0.4259" style="stop-color:#99C1C4"/>
				<stop  offset="0.5" style="stop-color:#ACD0D1"/>
				<stop  offset="0.5705" style="stop-color:#9AC2C5"/>
				<stop  offset="0.7107" style="stop-color:#6D9EA7"/>
				<stop  offset="0.9056" style="stop-color:#256477"/>
				<stop  offset="1" style="stop-color:#00465E"/>
			</linearGradient>
			<path class="st2" d="M918.4,149L918.4,149c0.4-1,0.6-2.1,0.6-3.3c0-4.9-3.9-8.8-8.8-8.8c-3.7,0-6.8,2.3-8.1,5.5h0
				c-34.5,86-70.6,131.5-104.4,131.5c-0.1,0-0.3,0-0.4,0c-33.7-0.4-70-45.8-104.8-131.5C654,46.6,614.5,0,571.7,0
				c-0.2,0-0.3,0-0.5,0c-42.6,0.4-82.2,46.9-121,142.3c0,0,0,0.1,0,0.1c-0.4,1-0.7,2.1-0.7,3.3c0,4.9,3.9,8.8,8.8,8.8
				c3.7,0,6.8-2.3,8.1-5.5l0,0c34.9-85.8,71.2-131.2,104.9-131.5c0.1,0,0.2,0,0.3,0c33.8,0,69.9,45.4,104.5,131.5
				c38.8,95.4,78.4,142,120.9,142.5c0.2,0,0.4,0,0.7,0c42.7,0,82.2-46.6,120.6-142.3c0,0,0,0,0-0.1
				C918.3,149.1,918.4,149.1,918.4,149z"/>
		</g>
		<path d="M152.5,202.7c5.2,0,10.1,1,14.7,2.8c4.3,1.8,8.1,4.4,11.4,7.6c6.7,6.8,10.4,16.2,10.4,26.6c0,10.3-3.8,19.9-10.7,26.8
			c-6.8,6.9-16.1,10.7-26.1,10.7c-5.2,0-10.1-1-14.7-2.8c-4.3-1.8-8.1-4.4-11.4-7.6c-6.7-6.8-10.4-16.2-10.4-26.6
			c0-10.3,3.8-19.9,10.7-26.9C133.2,206.5,142.5,202.7,152.5,202.7 M152.5,188.4c-28.6,0-51,22.6-51,51.8
			c0,29.2,21.8,51.3,50.7,51.3c28.6,0,51-22.6,51-51.8C203.2,210.5,181.4,188.4,152.5,188.4L152.5,188.4z M456.7,188.4
			c-3.9,0-7.1,3.2-7.1,7.1v87.8c0,3.9,3.2,7.1,7.1,7.1s7.1-3.2,7.1-7.1v-87.8C463.8,191.6,460.6,188.4,456.7,188.4z M269.2,188.4
			c-26.2,0-47.5,23.2-47.5,51.6v43.3c0,3.9,3.2,7.1,7.1,7.1s7.1-3.2,7.1-7.1v-43.3c0-20.6,14.9-37.4,33.2-37.4
			c18.3,0,33.1,16.7,33.1,37.2v43.4c0,3.9,3.2,7.1,7.1,7.1c3.9,0,7.1-3.2,7.1-7.1v-43.4C316.5,211.5,295.3,188.4,269.2,188.4z
			 M573.8,188.5c-0.4-0.1-0.8-0.1-1.2-0.1c-3.5,0-6.5,2.5-7,6c-8,49.6-23.7,82.9-33.3,82.9c-6.6,0-24.1-20.8-33.2-82.8
			c-0.5-3.5-3.5-6.1-7.1-6.1c-0.3,0-0.7,0-1,0.1c-1.9,0.3-3.6,1.3-4.7,2.8c-1.1,1.5-1.6,3.4-1.3,5.3c2.3,15.9,15.6,95,47.3,95
			c13.1,0,24.7-14.1,34.4-41.9c7.4-21.2,11.6-44.1,13-52.9C580.3,192.8,577.6,189.2,573.8,188.5z M422.8,188.5
			c-0.4-0.1-0.8-0.1-1.2-0.1c-3.5,0-6.5,2.5-7,6c-8,49.6-23.7,82.9-33.3,82.9c-6.6,0-24.1-20.8-33.2-82.8c-0.5-3.5-3.5-6.1-7.1-6.1
			c-0.3,0-0.7,0-1,0.1c-1.9,0.3-3.5,1.3-4.7,2.8s-1.6,3.4-1.3,5.3c1.3,8.8,5.1,31.7,12.4,53c9.5,27.9,21.3,42,34.9,42
			c13.1,0,24.7-14.1,34.4-41.9c7.4-21.2,11.6-44.1,13-52.9C429.3,192.8,426.7,189.2,422.8,188.5z M680.7,283.4
			c-2.3-15.9-15.6-95-47.3-95c-13.1,0-24.7,14.1-34.4,41.9c-7.4,21.2-11.6,44.1-13,52.9c-0.6,3.9,2,7.5,5.9,8.2
			c0.4,0.1,0.8,0.1,1.2,0.1c3.5,0,6.5-2.5,7-6c1.1-6.7,2.6-14.1,4.3-21.4h58.5c1.4,6.8,2.7,14,3.8,21.3c0.5,3.5,3.5,6.1,7,6.1
			c0.3,0,0.7,0,1-0.1c1.9-0.3,3.6-1.3,4.7-2.8C680.5,287.2,680.9,285.3,680.7,283.4z M607.5,251.4c8.3-30.1,18.1-48.7,25.8-48.7
			c5.4,0,17.2,13.3,26.4,48.7H607.5z M88.1,272.7c0-3.8-3-7.1-7.1-7.1c-1.7,0-3.3,0.5-4.8,1.9c-7.9,7-15.5,9.9-26.1,9.9
			c-9.9,0-19-3.7-25.5-10.4c-6.6-6.8-10.3-16.3-10.3-26.6c0-10.4,3.8-19.9,10.6-26.9c6.7-6.9,15.8-10.7,25.6-10.7
			c10.4,0,17.7,2.5,25.2,8.6c1.2,1,2.8,1.7,4.6,1.7c3.9,0,7.1-3.2,7.1-7.1c0-2.2-0.9-4.1-2.7-5.6c-10-8.1-20.6-11.8-34.2-11.8
			C22.2,188.4,0,211.1,0,240.3c0,29.2,21.5,51.3,50,51.3c14.2,0,25.2-4.2,35.8-13.7C87.3,276.5,88.1,274.7,88.1,272.7z"/>
		<g>
			<path d="M887.1,282.3c0,6.9-5.5,12.6-12.3,12.6s-12.4-5.7-12.4-12.6c0-7,5.6-12.6,12.4-12.6S887.1,275.3,887.1,282.3z
				 M884.5,282.3c0-5.7-4.4-10-9.8-10c-5.5,0-9.8,4.4-9.8,10c0,5.7,4.3,10.1,9.8,10.1C880.1,292.4,884.5,288,884.5,282.3z
				 M877.6,283.8l3.6,5h-3.3l-3.2-4.3h-1.8v4.3h-3v-12.8h5.2c2.7,0,4.7,1.6,4.7,4.3C879.7,281.8,878.9,283,877.6,283.8z
				 M872.8,281.9h2.1c1,0,1.7-0.7,1.7-1.6c0-1-0.7-1.7-1.7-1.7h-2.1V281.9z"/>
		</g>
	</g>
</g>
</svg>
