<?xml version="1.0" encoding="utf-8"?>
<!-- Generator: Adobe Illustrator 22.0.1, SVG Export Plug-In . SVG Version: 6.00 Build 0)  -->
<svg version="1.1" id="Conviva_Care_Center" xmlns="http://www.w3.org/2000/svg" xmlns:xlink="http://www.w3.org/1999/xlink"
	 x="0px" y="0px" viewBox="0 0 792 612" style="enable-background:new 0 0 792 612;" xml:space="preserve">
<style type="text/css">
	.st0{fill:none;}
	.st1{fill:url(#SVGID_1_);}
	.st2{fill:url(#SVGID_2_);}
</style>
<g>
	<rect x="263.8" y="235.5" class="st0" width="264.5" height="141"/>
	<g>
		<path d="M302.2,340.8l-1.3,1c-1.1-1.6-2.7-2.5-4.7-2.5c-3.2,0-5.7,2.5-5.7,5.8c0,3.3,2.5,5.8,5.7,5.8c2,0,3.6-1,4.7-2.5l1.3,1
			c-1.2,1.8-3.3,3.1-5.9,3.1c-4.1,0-7.4-3.2-7.4-7.4c0-4.2,3.3-7.4,7.4-7.4C298.8,337.7,301,339,302.2,340.8z M312.7,345.8v6.5h-1.6
			v-1.4c-0.8,1-2,1.6-3.6,1.6c-2.1,0-3.7-1.1-3.7-3c0-1.8,1.5-3,3.8-3h3.3v-0.9c0-1.8-1-2.7-2.6-2.7c-1.3,0-2.3,0.6-3.1,1.7
			l-1.1-0.9c1-1.6,2.6-2.3,4.3-2.3C311,341.5,312.7,342.9,312.7,345.8z M311,348.2V348h-3.1c-1.5,0-2.3,0.5-2.3,1.5
			c0,1.1,1,1.7,2.2,1.7C309.5,351.1,311,349.9,311,348.2z M321.3,341.7v1.5h-0.6c-1.7,0-3.3,1.1-3.3,3.1v6h-1.7v-10.6h1.6v1.5
			c0.8-1,2-1.6,3.3-1.6C320.9,341.6,321.1,341.7,321.3,341.7z M332.2,347.5h-8.4c0.2,2.1,1.8,3.5,3.9,3.5c1.3,0,2.4-0.6,3.2-1.4
			l1,1.1c-1.1,1.1-2.5,1.8-4.2,1.8c-3.2,0-5.6-2.4-5.6-5.5c0-3.1,2.4-5.5,5.4-5.5c2.7,0,4.8,2,4.8,4.8
			C332.3,346.8,332.2,347.3,332.2,347.5z M323.9,346h6.7c0-2-1.5-3-3.1-3C325.7,343,324.3,344.2,323.9,346z M353.9,340.8l-1.3,1
			c-1.1-1.6-2.7-2.5-4.7-2.5c-3.2,0-5.7,2.5-5.7,5.8c0,3.3,2.5,5.8,5.7,5.8c2,0,3.6-1,4.7-2.5l1.3,1c-1.2,1.8-3.3,3.1-5.9,3.1
			c-4.1,0-7.4-3.2-7.4-7.4c0-4.2,3.3-7.4,7.4-7.4C350.6,337.7,352.7,339,353.9,340.8z M365.5,347.5h-8.4c0.2,2.1,1.8,3.5,3.9,3.5
			c1.3,0,2.4-0.6,3.2-1.4l1,1.1c-1.1,1.1-2.5,1.8-4.2,1.8c-3.2,0-5.6-2.4-5.6-5.5c0-3.1,2.4-5.5,5.4-5.5c2.7,0,4.8,2,4.8,4.8
			C365.7,346.8,365.6,347.3,365.5,347.5z M357.2,346h6.7c0-2-1.5-3-3.1-3C359,343,357.6,344.2,357.2,346z M376.8,345.6v6.6h-1.7
			v-6.4c0-1.7-1-2.8-2.6-2.8s-2.8,1.2-2.8,2.8v6.4h-1.7v-10.6h1.6v1.1c0.8-0.8,1.9-1.4,3.3-1.4C375.4,341.5,376.8,343.2,376.8,345.6
			z M385.5,350.9v1.4c-0.5,0.1-1.1,0.2-1.8,0.2c-2.1,0-3.6-1-3.6-3.4v-5.9h-1.8v-1.5h1.8v-2.9h1.7v2.9h3.3v1.5h-3.3v5.8
			c0,1.6,0.9,2,2.2,2C384.5,351,384.9,351,385.5,350.9z M396.4,347.5H388c0.2,2.1,1.8,3.5,3.9,3.5c1.3,0,2.4-0.6,3.2-1.4l1,1.1
			c-1.1,1.1-2.5,1.8-4.2,1.8c-3.2,0-5.6-2.4-5.6-5.5c0-3.1,2.4-5.5,5.4-5.5c2.7,0,4.8,2,4.8,4.8
			C396.5,346.8,396.4,347.3,396.4,347.5z M388.1,346h6.7c0-2-1.5-3-3.1-3C389.9,343,388.5,344.2,388.1,346z M404.6,341.7v1.5H404
			c-1.7,0-3.3,1.1-3.3,3.1v6H399v-10.6h1.6v1.5c0.8-1,2-1.6,3.3-1.6C404.2,341.6,404.4,341.7,404.6,341.7z"/>
		<path d="M491,325.3h-1.1v-0.6h2.9v0.6h-1.1v2.9H491V325.3z M493.6,324.7h0.7l1.1,1.7l1.1-1.7h0.7v3.6h-0.7v-2.5l-1.1,1.7h-0.1
			l-1.1-1.7v2.5h-0.7V324.7z"/>
		<g>
			<linearGradient id="SVGID_1_" gradientUnits="userSpaceOnUse" x1="393.6562" y1="293.9836" x2="504" y2="293.9836">
				<stop  offset="0" style="stop-color:#ACD0D1"/>
				<stop  offset="0.5" style="stop-color:#00465E"/>
				<stop  offset="1" style="stop-color:#ACD0D1"/>
			</linearGradient>
			<path class="st1" d="M504,294c0-1.1-0.9-2.1-2.1-2.1c-0.5,0-1,0.2-1.3,0.5l0,0c-9.2,7.2-17.1,10.5-25.2,10.4
				c-7.9-0.1-15.9-3.4-25.3-10.4c-10.1-7.6-19-11.2-27.7-11.3c-0.1,0-0.2,0-0.4,0c-8.8,0-17.8,3.7-27.5,11.3l0,0
				c-0.5,0.4-0.8,1-0.8,1.6c0,1.1,0.9,2.1,2.1,2.1c0.5,0,0.9-0.2,1.3-0.4l0,0c9.2-7.2,17.2-10.5,25.3-10.4
				c7.9,0.1,15.9,3.4,25.3,10.4c10.1,7.6,19,11.2,27.7,11.3c0.1,0,0.2,0,0.4,0c8.8,0,17.9-3.7,27.5-11.3l0,0
				C503.7,295.2,504,294.6,504,294z"/>
			<linearGradient id="SVGID_2_" gradientUnits="userSpaceOnUse" x1="393.6562" y1="293.9834" x2="504" y2="293.9834">
				<stop  offset="0" style="stop-color:#00465E"/>
				<stop  offset="6.480721e-02" style="stop-color:#195A6F"/>
				<stop  offset="0.2757" style="stop-color:#689AA4"/>
				<stop  offset="0.4259" style="stop-color:#99C1C4"/>
				<stop  offset="0.5" style="stop-color:#ACD0D1"/>
				<stop  offset="0.5705" style="stop-color:#9AC2C5"/>
				<stop  offset="0.7107" style="stop-color:#6D9EA7"/>
				<stop  offset="0.9056" style="stop-color:#256477"/>
				<stop  offset="1" style="stop-color:#00465E"/>
			</linearGradient>
			<path class="st2" d="M503.9,294.8L503.9,294.8c0.1-0.2,0.1-0.5,0.1-0.8c0-1.1-0.9-2.1-2.1-2.1c-0.9,0-1.6,0.5-1.9,1.3l0,0
				c-8.1,20.2-16.6,30.9-24.5,30.9c0,0-0.1,0-0.1,0c-7.9-0.1-16.4-10.8-24.6-30.9c-9-22.5-18.3-33.5-28.4-33.5c0,0-0.1,0-0.1,0
				c-10,0.1-19.3,11-28.4,33.5c0,0,0,0,0,0c-0.1,0.2-0.2,0.5-0.2,0.8c0,1.1,0.9,2.1,2.1,2.1c0.9,0,1.6-0.5,1.9-1.3l0,0
				c8.2-20.2,16.7-30.8,24.7-30.9c0,0,0.1,0,0.1,0c7.9,0,16.4,10.7,24.6,30.9c9.1,22.4,18.4,33.4,28.4,33.5c0.1,0,0.1,0,0.2,0
				C485.5,328.2,494.8,317.3,503.9,294.8C503.8,294.8,503.8,294.8,503.9,294.8C503.8,294.8,503.8,294.8,503.9,294.8z"/>
		</g>
		<path d="M323.8,307.4c1.2,0,2.4,0.2,3.5,0.7c1,0.4,1.9,1,2.7,1.8c1.6,1.6,2.4,3.8,2.4,6.2c0,2.4-0.9,4.7-2.5,6.3
			c-1.6,1.6-3.8,2.5-6.1,2.5c-1.2,0-2.4-0.2-3.5-0.7c-1-0.4-1.9-1-2.7-1.8c-1.6-1.6-2.4-3.8-2.4-6.2c0-2.4,0.9-4.7,2.5-6.3
			C319.3,308.3,321.5,307.4,323.8,307.4 M323.8,304c-6.7,0-12,5.3-12,12.2c0,6.9,5.1,12.1,11.9,12.1c6.7,0,12-5.3,12-12.2
			C335.8,309.2,330.6,304,323.8,304L323.8,304z M395.3,304c-0.9,0-1.7,0.8-1.7,1.7v20.6c0,0.9,0.8,1.7,1.7,1.7
			c0.9,0,1.7-0.8,1.7-1.7v-20.6C397,304.8,396.3,304,395.3,304z M351.3,304c-6.2,0-11.2,5.4-11.2,12.1v10.2c0,0.9,0.8,1.7,1.7,1.7
			c0.9,0,1.7-0.8,1.7-1.7v-10.2c0-4.8,3.5-8.8,7.8-8.8c4.3,0,7.8,3.9,7.8,8.7v10.2c0,0.9,0.8,1.7,1.7,1.7c0.9,0,1.7-0.8,1.7-1.7
			v-10.2C362.4,309.4,357.4,304,351.3,304z M422.9,304c-0.1,0-0.2,0-0.3,0c-0.8,0-1.5,0.6-1.7,1.4c-1.9,11.6-5.6,19.5-7.8,19.5
			c-1.5,0-5.7-4.9-7.8-19.5c-0.1-0.8-0.8-1.4-1.7-1.4c-0.1,0-0.2,0-0.2,0c-0.4,0.1-0.8,0.3-1.1,0.7c-0.3,0.4-0.4,0.8-0.3,1.2
			c0.5,3.7,3.7,22.3,11.1,22.3c3.1,0,5.8-3.3,8.1-9.9c1.7-5,2.7-10.4,3.1-12.4C424.4,305,423.8,304.2,422.9,304z M387.4,304
			c-0.1,0-0.2,0-0.3,0c-0.8,0-1.5,0.6-1.7,1.4c-1.9,11.6-5.6,19.5-7.8,19.5c-1.5,0-5.7-4.9-7.8-19.5c-0.1-0.8-0.8-1.4-1.7-1.4
			c-0.1,0-0.2,0-0.2,0c-0.4,0.1-0.8,0.3-1.1,0.7c-0.3,0.4-0.4,0.8-0.3,1.2c0.3,2.1,1.2,7.5,2.9,12.4c2.2,6.5,5,9.9,8.2,9.9
			c3.1,0,5.8-3.3,8.1-9.9c1.7-5,2.7-10.4,3.1-12.4C388.9,305,388.3,304.2,387.4,304z M448,326.3c-0.5-3.7-3.7-22.3-11.1-22.3
			c-3.1,0-5.8,3.3-8.1,9.9c-1.7,5-2.7,10.4-3.1,12.4c-0.1,0.9,0.5,1.8,1.4,1.9c0.1,0,0.2,0,0.3,0c0.8,0,1.5-0.6,1.7-1.4
			c0.3-1.6,0.6-3.3,1-5h13.7c0.3,1.6,0.6,3.3,0.9,5c0.1,0.8,0.8,1.4,1.7,1.4c0.1,0,0.2,0,0.2,0c0.4-0.1,0.8-0.3,1.1-0.7
			C447.9,327.2,448,326.8,448,326.3z M430.8,318.8c2-7.1,4.3-11.4,6.1-11.4c1.3,0,4,3.1,6.2,11.4H430.8z M308.7,323.8
			c0-0.9-0.7-1.7-1.7-1.7c-0.4,0-0.8,0.1-1.1,0.4c-1.9,1.6-3.6,2.3-6.1,2.3c-2.3,0-4.5-0.9-6-2.4c-1.6-1.6-2.4-3.8-2.4-6.3
			c0-2.4,0.9-4.7,2.5-6.3c1.6-1.6,3.7-2.5,6-2.5c2.4,0,4.2,0.6,5.9,2c0.3,0.2,0.7,0.4,1.1,0.4c0.9,0,1.7-0.8,1.7-1.7
			c0-0.5-0.2-1-0.6-1.3c-2.4-1.9-4.8-2.8-8-2.8c-6.7,0-11.9,5.3-11.9,12.2c0,6.9,5.1,12.1,11.8,12.1c3.3,0,5.9-1,8.4-3.2
			C308.5,324.7,308.7,324.3,308.7,323.8z"/>
	</g>
</g>
</svg>
