<svg id="Layer_1" data-name="Layer 1" xmlns="http://www.w3.org/2000/svg" viewBox="0 0 720 467.22"><defs><style>.cls-1{fill:#cee2e3;}.cls-2{fill:#9dc8c9;}.cls-3{fill:#fff;}</style></defs><title>HAPPY NATIONAL DOC DAYS</title><path class="cls-1" d="M147.52,151.55a2.37,2.37,0,0,1,.68,1.45V271.26a2,2,0,0,1-2,2H128.69c-.06,0-.09,0-.09-.08h-.08a2.07,2.07,0,0,1-1.45-1.28l-25.39-63.47v62.79a2.35,2.35,0,0,1-.68,1.45,2,2,0,0,1-1.45.59h-17a2,2,0,0,1-2.13-2.13V153.09A2.19,2.19,0,0,1,82.51,151h17a.4.4,0,0,1,.26.08,2.21,2.21,0,0,1,1.27.22,2,2,0,0,1,.94,1l25,62.19V153.09a2.09,2.09,0,0,1,.6-1.49A1.9,1.9,0,0,1,129,151h17.12A1.92,1.92,0,0,1,147.52,151.55Z"/><path class="cls-1" d="M203.58,273.3a2.37,2.37,0,0,1-1.32-.55,1.86,1.86,0,0,1-.64-1.23l-1.88-17.73H185.35l-1.88,17.81a2.26,2.26,0,0,1-.68,1.15,2.17,2.17,0,0,1-1.28.55H162.94a2,2,0,0,1-1.32-.81,2.21,2.21,0,0,1-.39-1.57l15.68-118,.09-.26a1.79,1.79,0,0,1,.59-1.15,2.17,2.17,0,0,1,1.28-.55h27.35a2.22,2.22,0,0,1,1.87,1.62L223.86,271a2,2,0,0,1-.43,1.49,2.23,2.23,0,0,1-1.36.81Zm-16-40.81h10l-5-46.94Z"/><path class="cls-1" d="M295.08,151a2,2,0,0,1,1.45.55,1.84,1.84,0,0,1,.6,1.41v16.52a1.84,1.84,0,0,1-.6,1.41,2.17,2.17,0,0,1-1.53.56H277.7v99.76a2.38,2.38,0,0,1-.64,1.5,2.32,2.32,0,0,1-1.49.63h-17a2.45,2.45,0,0,1-1.49-.68,1.9,1.9,0,0,1-.64-1.45V171.41H238.85a2,2,0,0,1-1.45-.6,1.88,1.88,0,0,1-.6-1.37V152.92a2,2,0,0,1,.56-1.37,1.86,1.86,0,0,1,1.41-.59Z"/><path class="cls-1" d="M331.63,153V271.26a2.47,2.47,0,0,1-.64,1.45,2,2,0,0,1-1.49.59h-17a2,2,0,0,1-2.13-2.13V153.09a2.19,2.19,0,0,1,2.13-2.13h17a2,2,0,0,1,1.45.59A2.32,2.32,0,0,1,331.63,153Z"/><path class="cls-1" d="M383.6,151A20.86,20.86,0,0,1,398,157.22a21.14,21.14,0,0,1,6.09,14.53V252.6a21.11,21.11,0,0,1-20.45,20.7H365.11a21.08,21.08,0,0,1-14.22-6,20.63,20.63,0,0,1-6.22-14V171a20.67,20.67,0,0,1,6.22-14,21,21,0,0,1,14.22-6H383.6Zm-.76,97.29V176a4.2,4.2,0,0,0-1.32-2.69,4,4,0,0,0-2.78-1.06H370a3.93,3.93,0,0,0-2.94,1.19,4,4,0,0,0-1.15,2.9V248a3.84,3.84,0,0,0,1.15,2.85,4.3,4.3,0,0,0,2.94,1.24h8.77a4.33,4.33,0,0,0,2.78-1.15A4.2,4.2,0,0,0,382.84,248.25Z"/><path class="cls-1" d="M484.39,151.55a2.32,2.32,0,0,1,.68,1.45V271.26a2,2,0,0,1-2,2H465.56c-.06,0-.08,0-.08-.08h-.09a2.09,2.09,0,0,1-1.45-1.28l-25.39-63.47v62.79a2.29,2.29,0,0,1-.68,1.45,2,2,0,0,1-1.44.59h-17a2.11,2.11,0,0,1-1.54-.59,2.07,2.07,0,0,1-.59-1.54V153.09a2.17,2.17,0,0,1,2.13-2.13h17a.37.37,0,0,1,.25.08,2.25,2.25,0,0,1,1.28.22,2.09,2.09,0,0,1,.94,1l25,62.19V153.09a2.13,2.13,0,0,1,.59-1.49,1.9,1.9,0,0,1,1.45-.64H483A1.9,1.9,0,0,1,484.39,151.55Z"/><path class="cls-1" d="M540.45,273.3a2.37,2.37,0,0,1-1.32-.55,1.86,1.86,0,0,1-.64-1.23l-1.87-17.73h-14.4l-1.88,17.81a2.26,2.26,0,0,1-.68,1.15,2.14,2.14,0,0,1-1.28.55H499.81a2,2,0,0,1-1.32-.81,2.21,2.21,0,0,1-.38-1.57l15.67-118,.09-.26a1.85,1.85,0,0,1,.6-1.15,2.14,2.14,0,0,1,1.27-.55h27.35a2.23,2.23,0,0,1,1.88,1.62L560.73,271a2,2,0,0,1-.43,1.49,2.2,2.2,0,0,1-1.36.81Zm-16-40.81h10l-5-46.94Z"/><path class="cls-1" d="M626.93,254.13v17a2.06,2.06,0,0,1-.56,1.45,2.1,2.1,0,0,1-1.4.68H575.81a2,2,0,0,1-1.45-.59,2.08,2.08,0,0,1-.6-1.54V153.09a2.09,2.09,0,0,1,.6-1.49,1.9,1.9,0,0,1,1.45-.64h17.12a2,2,0,0,1,1.45.59A2,2,0,0,1,595,153v99.09H624.8a2.1,2.1,0,0,1,1.53.59A2,2,0,0,1,626.93,254.13Z"/><path class="cls-2" d="M83.17,399.79V303.3h20.62c17.46,0,23.9,12,23.9,27.48V372.3c0,15.6-6.29,27.49-23.9,27.49Zm40.52-27.49V330.78c0-13.17-5.3-23.62-19.9-23.62H87.18v88.62h16.61C118.53,395.78,123.69,385.76,123.69,372.3ZM89.61,309.74h13.17c13.6,0,18.47,9.45,18.47,21.76v40.08c0,12.32-4.87,21.77-18.47,21.77H89.61Zm13.17,79.6c10.74,0,14.46-7.73,14.46-17.76V331.5c0-10-3.72-17.9-14.46-17.9H93.62v75.74Z"/><path class="cls-2" d="M137.13,373.59V329.35c0-14.6,7.45-27.06,23.77-27.06s23.62,12.46,23.62,27.06v44.24c0,15.46-6.73,27.06-23.62,27.06C144.29,400.65,137.13,388.76,137.13,373.59Zm43.38,0V329.35c0-12.45-5.87-23.33-19.61-23.33s-19.76,10.88-19.76,23.33v44.24c0,12.88,5.87,23.19,19.76,23.19C175.07,396.78,180.51,386.76,180.51,373.59Zm-2.58-42.81v42.09c0,11.46-4.15,21.19-17,21.19s-17.18-10.31-17.18-21.62v-41.8c0-10.88,4.58-21.76,17.18-21.76C173.93,308.88,177.93,319.47,177.93,330.78Zm-30.35-.14v41.8c0,9.17,3.44,17.76,13.32,17.76s13-8,13-17.33V330.78c0-9.16-3-17.89-13-17.89C151.16,312.89,147.58,321.62,147.58,330.64Z"/><path class="cls-2" d="M192.81,373.59V329.35c0-15.32,7.3-27.06,23.91-27.06,19.18,0,23.48,11.74,23.48,33.93H229.6c0-11.88-.57-23.47-12.88-23.47-9.45,0-13.31,7.72-13.31,16.6v44.24c0,8.88,3.72,16.75,13.17,16.75,11.31,0,13-10.16,13-23.62h10.6c0,18-2.15,33.93-23.62,33.93C200,400.65,192.81,388.91,192.81,373.59Zm43.38-2.86h-2.58c0,11.74-2.57,23.48-17,23.48-12.17,0-17.18-9.74-17.18-20.62V329.35c0-10.88,5.15-20.62,17.32-20.62,14.46,0,16.89,11.6,16.89,23.48h2.58c0-15.89-5.44-25.91-19.47-25.91s-19.9,10-19.9,23.05v44.24c0,13,5.87,23.19,19.76,23.19C232.75,396.78,236.19,384.47,236.19,370.73Z"/><path class="cls-2" d="M281.71,313.6h-16v86H255.22v-86h-16V303.15h42.52Zm-38.51-6.44v2.58h15.89v86h2.72v-86h16v-2.58Z"/><path class="cls-2" d="M286.71,373.59V329.35c0-14.6,7.45-27.06,23.77-27.06s23.62,12.46,23.62,27.06v44.24c0,15.46-6.73,27.06-23.62,27.06C293.87,400.65,286.71,388.76,286.71,373.59Zm43.38,0V329.35c0-12.45-5.87-23.33-19.61-23.33s-19.76,10.88-19.76,23.33v44.24c0,12.88,5.87,23.19,19.76,23.19C324.65,396.78,330.09,386.76,330.09,373.59Zm-2.57-42.81v42.09c0,11.46-4.16,21.19-17,21.19s-17.18-10.31-17.18-21.62v-41.8c0-10.88,4.58-21.76,17.18-21.76C323.51,308.88,327.52,319.47,327.52,330.78Zm-30.35-.14v41.8c0,9.17,3.43,17.76,13.31,17.76s13-8,13-17.33V330.78c0-9.16-3-17.89-13-17.89C300.74,312.89,297.17,321.62,297.17,330.64Z"/><path class="cls-2" d="M379.47,351.54c4.44,4.15,6,11.31,6,17.75v30.5H375V369.72c0-8.87-3-12.6-12-12.6h-9.88v42.67H342.68V303.3H363.3c18.46,0,22.76,11,22.76,27.05C386.06,337.66,384.77,346.24,379.47,351.54ZM363.3,307.16H346.54v88.62h2.73V353.12H363c12,0,15.89,5,15.89,16.6v26.06h2.72V369.29c0-7.58-1.86-15.46-10.45-17.46,9.45-2.87,10.88-12.89,10.88-21.48C382.05,316.75,378.47,307.16,363.3,307.16Zm-14,43.38V309.88h13.45c14,0,16.75,8.3,16.75,20.47,0,13.6-3.58,20.19-18,20.19Zm26.19-20.19c0-9.88-2-16.61-12.74-16.61h-9.59v32.79h8.3C372.74,346.53,375.46,341.23,375.46,330.35Z"/><path class="cls-2" d="M403.51,303.3v18H393.06v-18Zm-6.58,14h2.58V307.16h-2.58Z"/><path class="cls-2" d="M408.09,366.86h10.46c0,13.32,1.43,23.34,12,23.34,8.3,0,12.46-5.16,12.46-13.46,0-7.59-7.59-14.75-13.6-19.76l.14.14c-9.59-6.87-20.62-18-20.62-31.2,0-13.32,8.45-23.63,22.34-23.63,19.32,0,21.33,14.46,21.33,32.5H442.17c0-11.17-.72-22-10.88-22-7.88,0-11.89,6.29-11.89,13.88,0,7.87,7.73,14.46,15.47,21.33v-.14c9.3,8.3,18.61,16.89,18.61,28.78,0,15.17-7.45,24-22.91,24C412.68,400.65,408.09,388.91,408.09,366.86Zm41.52,9.74c0-20.91-34.22-30.5-34.22-50,0-9.73,5.45-17.9,15.9-17.9,13.88,0,14.74,12.32,14.89,22.2h2.43c0-14.89-3-24.77-17.32-24.77-11.46,0-18.33,8.73-18.33,19.76,0,11.59,10.17,21.61,19,28.05h-.14c6.73,5.59,15.17,14.75,15.17,22.77,0,10.88-5.43,17.47-16.46,17.47-14.17,0-15.89-13.61-15.89-23.34H412c0,15.75,4.15,25.77,18.61,25.77C443.46,396.64,449.61,389.34,449.61,376.6Z"/><path class="cls-2" d="M494.69,399.79V303.3h20.62c17.47,0,23.91,12,23.91,27.48V372.3c0,15.6-6.3,27.49-23.91,27.49Zm40.52-27.49V330.78c0-13.17-5.3-23.62-19.9-23.62H498.7v88.62h16.61C530.06,395.78,535.21,385.76,535.21,372.3Zm-34.07-62.56h13.17c13.6,0,18.47,9.45,18.47,21.76v40.08c0,12.32-4.87,21.77-18.47,21.77H501.14Zm13.17,79.6c10.74,0,14.46-7.73,14.46-17.76V331.5c0-10-3.72-17.9-14.46-17.9h-9.16v75.74Z"/><path class="cls-2" d="M540.36,399.79l22-96.49h8.31l21.9,96.49H581.87l-6-27.63H557.53l-6.44,27.63Zm13.74-31.5H579l6.16,27.49h2.57l-20.18-88.62h-2l-20.33,88.62h2.72Zm24.34-2.58H554.67l11.89-52Zm-18.76-3.86h13.75l-6.87-30.64Z"/><path class="cls-2" d="M634.84,303.3l-20.05,52.54v44H604.2v-44C593,326.49,587.59,312,584.44,303.3h11.17l14,36.93c4.72-12.31,9.73-25.19,14-36.93Zm-25.2,48.24-16.75-44.38h-2.72c5.72,16.18,12,31.93,18,48v40.66h2.72V355.12l18.18-48h-2.72Z"/><path class="cls-3" d="M119.78,0q2.25,0,4.79,3.94-9.3,33-11.36,37.18-3.66,9.38-9.2,21.4a50.17,50.17,0,0,0-2.25,6q1.13,1.59,5.63,3.47,0,.47,5.26,2.16,0,1.5,1.59,1.5v.94h1.13c1.69.94,2.53,1.82,2.53,2.63-.25.37-.37.5-.37.37.44,0,1.37.54,2.82,1.6h3.28L133,78.85a3.63,3.63,0,0,0,1.88.75h.46l-.18.1-.1-.19q0-1.79,8.17-3.57l.75.28c0-.81,1.81-1.43,5.45-1.87.43.18.59.28.46.28,0-.25,1.35-.72,4-1.41q1-4.5,2.44-4.5l1.13.28-.28.47c.18.06-.16.09-1,.09V67.21q1.32-1.87,1.32-1.59c-.25,0-.38-.63-.38-1.88h.66a5.2,5.2,0,0,1-.28-2q1.13,0,2.81-5.54h-.28v-.09c.75-.82,1.5-2.88,2.26-6.2.31,0,.46-.53.46-1.6h1.6l-.28-.09c0,.44.09.47.28.09a5.26,5.26,0,0,1-.28-1.4,7.82,7.82,0,0,0,.66-3.48l.65.38c0,.06.28-.22.85-.85q0-.09-.57-.09,0-1.69,3.95-9.48c0-1.82.09-2.82.28-3,.25,0,.37-.51.37-1.51l1.41-.75c.57.32.66.47.28.47V29c0-3.07.41-5.1,1.23-6.11l-.29-1.5q2.44-5.62,3.1-6.1l-.09-.28q3-13,6.76-13,3.56.57,3.56,3.76v.75a143.4,143.4,0,0,1-6.57,17.36l.38,2.44q-2,2.73-4.32,10.61-10.6,26.76-13,33.89-.09-.09,0-.09a40.41,40.41,0,0,1,6.76-2,27.72,27.72,0,0,0,7.23-2.63,17.37,17.37,0,0,0,2.91.28l4.13-1.6.94.1q0-1,7.89-3.1h2.44a4,4,0,0,1,3.1-1.32l.65.38q9.39-4.12,12.21-4.32c.43-.87,1.93-1.31,4.5-1.31a6.75,6.75,0,0,0,.66,2.63q-.37,3.47-19.9,9.1-3.57,1.5-17.93,5.54l-.94.94-.85-.47q-17.26,4.78-17.27,6.19-6.95,22.64-7.88,22.63,0,.66-4.6,15.67-1.6,4.23-3.95,18.5c0,1.06-1.62,1.84-4.88,2.34h-.65a4.21,4.21,0,0,1-2.54-3.75v-1.6l.94-9.1a2.79,2.79,0,0,1-.28-1.41v-3a37.65,37.65,0,0,0-1.32-5.64,6.13,6.13,0,0,0,.29-.84,74.28,74.28,0,0,0-5.17-13.14q-3.19-6.2-5.35-7.89,0-1.31-2.34-2.91h-.38l-16.43,3.57Q90.3,94.72,90.3,95.94q-3.37,6.57-9,20.46-6.57,13.34-8.16,13.33c-1.19,0-1.79-.37-1.79-1.13a.49.49,0,0,0-.56-.56q1.78-5.16,1.6-5.16v-1.22h1.31v-.28A3.39,3.39,0,0,1,75,118.75v.75h.57a3.86,3.86,0,0,1-1.88.38v-1.13a1.51,1.51,0,0,1,1.6-1.69v.37l-1.22-1.78c1.25-.81,1.87-1.6,1.87-2.35-.19,0-.28-.62-.28-1.87H77v.65L76.22,111c.38-.94.82-2.29,1.32-4l1.31.56h-.56v.85h-1v-1.22a16.65,16.65,0,0,0,2.06-4.7c.75-.31,1.06-.47.94-.47v-3c.5,0,1-.47,1.6-1.41v.1L81.2,96c.88,0,1.31,0,1.31.1v.37h.19l-28.25,3.94h-.57l-1.41-.28q-1,.57-16.61,1.6a3.8,3.8,0,0,0-.94-.28l-2.25.28c-.25,0-.94-.1-2.07-.28a4,4,0,0,0-.75.28q-16.43,0-27.69-9.11A10.3,10.3,0,0,1,0,87.21v-.28q0-3,5.45-7H6.76v1H6.67c-.13,0,.09-.78.65-2.35A5.65,5.65,0,0,1,11,77.26h.19q0-1.87,5.92-3.38c0-.38.4-.57,1.22-.57a15.61,15.61,0,0,0,2.25.38,10.51,10.51,0,0,1,5.16-2.25,5.72,5.72,0,0,1,4-1.69l1.12.28A3.82,3.82,0,0,1,33,69.37h.56c0-1,1.32-1.62,3.94-1.87,0-.32.47-.47,1.41-.47l.85.56a6,6,0,0,0,2.82-1.22H44.4q0-.66,2.91-.66l.56.28a6.6,6.6,0,0,1,2.26-.56l1.69.28a5,5,0,0,0,2.91-1.6H56c0,.63-.09.94-.28.94l.75-.28,1.32.19c0-.19,1.12-.47,3.37-.85L63,64.4h1.12c2.88-.38,4.32-.91,4.32-1.6A33,33,0,0,1,75,64.21l1.51-.75H78a6.14,6.14,0,0,1,4.22,1.59h-.18a4.8,4.8,0,0,1,3-.94c0,.51.09.82.28.94l2.07-.28,1.4.94h-.18l.93-.66h1a4.48,4.48,0,0,0,3,1.32c.5,0,1.13-1.35,1.88-4,1.44-.5,2.16-.66,2.16-.47l-.94-1.31c0-.81,1-1.82,2.91-3V55.67a19.34,19.34,0,0,1,.66-2.73v-1.5c.81-.25,1.47-1.56,2-3.94l1.59-2.91a5,5,0,0,1-.28-2.16c1,0,1.6-1.09,1.78-3.29.63,0,1.19-1.09,1.7-3.28h.46V34l1.6-2.06c-.06-.13-.34-.19-.84-.19l6.57-20.65h-.38a68.65,68.65,0,0,0,2.72-9.77A3.55,3.55,0,0,0,119.78,0ZM52.47,69.56l-.56-.38q-22,4.89-35,11.18-8.17,5-8.17,7,4.5,6.84,20.93,7.32h7a2.58,2.58,0,0,0,1.31-.47,6.15,6.15,0,0,0,.94.47q1.41,0,17-1.69l.65.37q18-2.62,22.72-3.75a2.38,2.38,0,0,0,.66.47q6.19-1.5,6.1-1.41l-.28-.38L86.08,87l-.37-.66c.87-2.56,1.72-3.85,2.53-3.85h.19V83a2.57,2.57,0,0,0-.28-1.12q0-4.6,3.28-4.6v.84c-.87,0-1.31-.47-1.31-1.41,0-.68.87-2.5,2.63-5.44v-.47a24.21,24.21,0,0,0-4.42-1.41V70l-2.91-1.5H83.27q-4.51,0-5.07-.75l-.29.09H68.15a28.14,28.14,0,0,1-3.57-.28A119,119,0,0,1,52.47,69.56ZM99.6,73.31q-.57.48-6,14.37V87.4q9.48-1.14,11-2.45l.94.57h1q10-2.62,10.13-2.63v.75Q108,75.86,99.6,73.31Zm12-41.86V30.6h-1.12v.85Zm25.44,53.22-1-.18q-1.22.84-6,1.78l-1.69.84a5.27,5.27,0,0,0-.94-.47l-.65.29v.37c3.06,3.82,4.6,6,4.6,6.39q2.05.09,4.32,6.28a2.68,2.68,0,0,0,1.87,2.82q2.53,9,2.16,9,2.16-4.32,2.72-4.32c0,.44-.12.07-.37-1.12q0-1.41,4.32-13c0-1,.65-2.16,2-3.47v-.19l-.94-1.59h1c.13.18.19.09.19-.29s.5-1.15,1.5-2.34a6.06,6.06,0,0,1-.19-2c.44,0,.94-1.22,1.51-3.66.31,0,.47,0,.47.09v.28l-.85-.19q-7.89,2-9.86,3.57A10.93,10.93,0,0,1,137.05,84.67Zm-9.2,7.61a.84.84,0,0,0-.93-.85v.85ZM145.13,108l.28-.65-.66-.38-.28.66Zm4.32-15v-.84h-.85v.84Z"/><path class="cls-3" d="M230,48.06q3.75,0,8.63,4.51c3.26,0,4.88,1.13,4.88,3.38a.33.33,0,0,1,.38.37q-5.26,9.49-5.26,16.15V73.6c.5,2.25,1.13,3.37,1.88,3.37h2.25Q248,77,260.4,62.71q0-1,5.26-4.51a6.82,6.82,0,0,1,3-4.13H269a4.35,4.35,0,0,0,.75,2.25,41.63,41.63,0,0,1-6.67,12.21Q250.64,84.87,242,84.86q-7.78,0-11.64-9V75.1h-1.12q-13.71,11.64-21.41,11.64h-1.12c-4.89,0-8-2.63-9.39-7.89V78.1q0-10.23,15.39-21.4l10.52-6.76C223.23,49.06,225.48,48.44,230,48.06ZM205.58,77V79.6c.06.51.31.76.75.76h.75q6.85,0,18.4-10.89,7.14-7.34,7.13-11.27v-.37q0-4.52-3.37-4.51-9.12,3-19.53,14.27A22.62,22.62,0,0,0,205.58,77Z"/><path class="cls-3" d="M269.69,50.88q4.23,1.21,4.6,4.13a92.27,92.27,0,0,0-.47,10.14h.76q.84,0,10.13-8.64c.57,0,2.32-.87,5.26-2.63l.75.38a14.37,14.37,0,0,1,8-2.25q3.38,0,9,5.25l1.6,3.76q1.13,8.45-10.14,17.27-4.69,3.48-15.11,7.88l.09.38c.12.94,2.1,1.57,5.91,1.88h1.13q25.15-6.77,38.86-27.23,2.54-4.87,6.86-4.88v.38q-1.89,7.41-9.3,17-14.55,14.93-28.16,19-14.18,3.66-21.87-2-6-6.37-6.48-6.38-3.75,14.46-6.66,23.28Q260,124,253.08,132.36q-8,10.14-10.7,10.14h-1.5c-2.82-.5-4.38-1.88-4.7-4.13l-.09-1.13q1-1.12,1.5-5.26a184.49,184.49,0,0,1,10.51-28.53c1.76,0,2.41-1.51,2-4.51,1.43-.56,2.12-1.06,2.06-1.5L252,95.56q.48,0,6.85-10.51l3.39-3q-.29-1.78,2.53-6.39,1.32-3.66,1.41-12c.37,0,.59-1.12.65-3.37l-.47-.75Q266,50.88,269.69,50.88Zm-25,64.21.1.75h.37c.51,0,.72-.25.66-.75l-.09-.75h-.38Q244.63,114.43,244.72,115.09Zm1.13,5.63.28,1.88a42.53,42.53,0,0,1-.28,6.76h.38q7.13-8.09,10.6-22.16a69.47,69.47,0,0,0,3.48-10.89h-.75L253,106.08a46.29,46.29,0,0,1-5.16,9.76A5.5,5.5,0,0,1,245.85,120.72Zm9.39-25.53.09.37a.84.84,0,0,0,.85.75L256,95.19ZM271.1,81.67h.38a12.89,12.89,0,0,0,3.57-1.13,18,18,0,0,0,4.69.75h.75q2.82,0,14.36-7.13,5.64-6.85,5.92-12l-.19-1.5a3.06,3.06,0,0,0-3.38-3q-8.44,1.3-24.13,19.15C271.7,79.42,271,81,271.1,81.67Z"/><path class="cls-3" d="M336.25,50.88q4.23,1.21,4.6,4.13a89.45,89.45,0,0,0-.47,10.14h.75q.84,0,10.14-8.64c.56,0,2.31-.87,5.26-2.63l.75.38a14.32,14.32,0,0,1,8-2.25q3.38,0,9,5.25L375.86,61q1.13,8.45-10.13,17.27-4.69,3.48-15.12,7.88l.1.38q.18,1.41,5.91,1.88h1.13q25.15-6.77,38.86-27.23,2.53-4.87,6.85-4.88v.38q-1.87,7.41-9.29,17-14.55,14.93-28.16,19-14.17,3.66-21.88-2-6-6.37-6.47-6.38Q333.9,98.76,331,107.58q-4.41,16.42-11.36,24.78-8,10.14-10.7,10.14h-1.5q-4.23-.75-4.69-4.13l-.1-1.13q1-1.12,1.51-5.26a183.47,183.47,0,0,1,10.51-28.53c1.75,0,2.41-1.51,2-4.51q2.16-.84,2.07-1.5l-.19-1.88q.47,0,6.85-10.51l3.38-3c-.19-1.19.66-3.32,2.53-6.39q1.32-3.66,1.41-12c.38,0,.6-1.12.66-3.37l-.47-.75Q332.59,50.88,336.25,50.88Zm-25,64.21.09.75h.38q.75,0,.66-.75l-.1-.75h-.37Q311.19,114.43,311.28,115.09Zm1.13,5.63.28,1.88a43.87,43.87,0,0,1-.28,6.76h.37q7.14-8.09,10.61-22.16a70.2,70.2,0,0,0,3.47-10.89h-.75l-6.57,9.77a47.25,47.25,0,0,1-5.16,9.76A5.52,5.52,0,0,1,312.41,120.72Zm9.38-25.53.1.37a.84.84,0,0,0,.84.75l-.19-1.12Zm15.87-13.52H338a12.79,12.79,0,0,0,3.57-1.13,18.12,18.12,0,0,0,4.69.75H347q2.82,0,14.37-7.13,5.63-6.85,5.91-12l-.19-1.5a3.06,3.06,0,0,0-3.38-3q-8.44,1.3-24.12,19.15C338.25,79.42,337.59,81,337.66,81.67Z"/><path class="cls-3" d="M423.55,49.38h.75a6,6,0,0,1,3.76,4.13,91.34,91.34,0,0,0-3.29,25.25.33.33,0,0,0,.38.37l-.38,2.07q0,2.16.38,8.26a6.44,6.44,0,0,0-.85,2.44,3.14,3.14,0,0,0,.47,1.69q-.84,14.75-1.69,18.21l2.53.38a13.88,13.88,0,0,0,3.67-1.69h1.22a.41.41,0,0,1,.47.47,31.55,31.55,0,0,1,7-2.07l1.22.85h.37q0-1.78,14.46-3.38a4.25,4.25,0,0,1,3.29-1.6h.46c0,.82.25,1.22.76,1.22l1.68-1.69,2.91.47H464a7.11,7.11,0,0,1,4.13-2.06.33.33,0,0,1,.38.37l5-.37h3.66l5-1.69a12.32,12.32,0,0,1,1.69.47q1.77,0,11.92-2.54a5.09,5.09,0,0,0,2.53.85,2.7,2.7,0,0,1,2.82-1.69h2.06l1.69,1.31h.38q0-1.32,6.66-2.53h.85l1.59,1.22c.44-1.07.85-1.6,1.22-1.6h1.32q9.85,0,9.86-1.22l2.06.38h1.69a24.81,24.81,0,0,1,3.29-.85H537c.31,0,.47-.12.47-.37l.75.37h12.39q3.29,0,8.73.47,2.07-.47,2.07-.84a10.1,10.1,0,0,0,3.66,1.22,5,5,0,0,1,2.53-.85h1.22l2.91.47c.07-.56.32-.84.76-.84s.46.12.46.37l2.92-.37h1.22a49.94,49.94,0,0,0,5,1.22c.38-1.13.78-1.69,1.22-1.69h.38c.56,0,.84.44.84,1.31h1.22l1.69-1.69h2.07a43,43,0,0,1,6.57.85l.37-.85,2.07.38a7,7,0,0,0,2.91-.75,1.08,1.08,0,0,1,1.22,1.22h.47l1.22-.85h2.06V94l-.37.84h3.28c0-1.62.53-2.44,1.6-2.44l.84.38h.85l5-.38.85,1.6a26.54,26.54,0,0,1,9-2.07,6.83,6.83,0,0,0,3.38,1.32c.06-.57.31-.85.75-.85H632l1.22.85h1.22l1.69-1.32,5,.85a14.18,14.18,0,0,1,3.66-.85l.84.47.85-.47,8.63.85a6.33,6.33,0,0,0,3.29-1.22h2.91a26.24,26.24,0,0,0,3.28.84H670L672,94h.47c0-1.38.41-2.07,1.22-2.07q5.91.75,7,2.07h.38a11.52,11.52,0,0,0,4.59-.75l2.44.37,1.7-.84.75.47a18.48,18.48,0,0,1,3.75-.47h.38a.41.41,0,0,1,.47.47l2.06-.85a3.18,3.18,0,0,0,1.6.38h.46a.33.33,0,0,0,.38-.38,4.63,4.63,0,0,0,2.44.85h2.07V94h1.31a2.63,2.63,0,0,1,1.6.47,3.05,3.05,0,0,1,1.69-.47h.84c.38,0,.78.44,1.22,1.31a3.72,3.72,0,0,1-1.69.38v.84c.82,0,1.22.28,1.22.85v.37a17.42,17.42,0,0,1-3.66-1.22,16,16,0,0,1-1.69.38,3.63,3.63,0,0,1-1.22-.38q-5.36.38-5.35,1.22l-2.06-.37H696a.33.33,0,0,0-.38.37,18.88,18.88,0,0,0-3.75-.84,33.48,33.48,0,0,0-9,1.69h-21.5a.33.33,0,0,0-.38.37l-.84-.37h-15.3a21.9,21.9,0,0,0-3.66.37,3.77,3.77,0,0,0-1.69-.37,13.21,13.21,0,0,0-4.13.84l-2.45-.47h-.46a3.64,3.64,0,0,0-2.07.47l-2.44-.47h-1.22c-2.75.06-4.13.35-4.13.85l-.85-.38h-1.22a4.33,4.33,0,0,0-2.06.38l-2.54-.38H613a45.29,45.29,0,0,0-5.72.75q-3.94,0-25.63.47c-.25,0-1.35-.15-3.28-.47l-1.69.85c0-.38-.41-.79-1.22-1.22h-.38L572.53,101a6.56,6.56,0,0,0-3.29-.85,6.79,6.79,0,0,1-3.29,1.32,26.74,26.74,0,0,1-6.57-1.32c-1.25,1.13-2.22,1.69-2.91,1.69l-4.13-.37q-4.22.64-10.7,1.22a2.92,2.92,0,0,0-1.31-.47l-16.52,1.69-.75-.38c-3.64.19-5.45.44-5.45.75l-.75-.37h-.47q-1,0-10.7,2.06l-.85-.37h-.37l-10.8,2.06-.75-.47q-33.89,4.6-48.72,8.26h-4.6q-2.06,1.23-14.83,4.13-4.12.94-4.13,5.35c-.63,0-1.47,2.48-2.53,7.42Q410,155.64,402.9,163q-12.11,18.21-30.6,25.16A45.23,45.23,0,0,1,357.46,191h-2.91q-12.85-1.69-18.58-5.82-11.55-6.28-11.55-17.27,0-7.6,9.11-15.3,4.32-5.07,17.27-12.77.75,0,8.26-4.6,30.88-13.61,35.11-13.61,4.41-2.82,17.36-5.82,4.52-.47,4.51-3.66v-2.07l-.38-2.44c0-.37.69-1.06,2.07-2.06l-.37-2.07a3.71,3.71,0,0,0,.37-1.31l-.37-.75.37-2.07-.37-1.69a3.73,3.73,0,0,0,.37-1.22,13.59,13.59,0,0,1-.37-2.91h.37l-.37-.84V91.53l.75-1.23-.38-1.68,1.69-4.13-2.06-2.44V77.91l.75-2.91a16.67,16.67,0,0,1-.75-3.28h-.47q-10,13.61-11.93,13.61-3.66,6.19-8.73,6.2-6.75,0-7.79-7c.25-.82.54-1.22.85-1.22,0-.26-.16-.38-.47-.38l.47-2.91V77.44q1.31,0,4.13-9.85,5.44-14.46,8.16-14.46h.47c1.63,0,2.44,1.1,2.44,3.29q-9,19.24-9,24.78v.85l.38,2.06q4.59-1.32,11.92-9.48,8.73-11.08,8.73-12.39A33.46,33.46,0,0,0,421,50.69,4.66,4.66,0,0,0,423.55,49.38ZM332.68,169.53v1.69q4,13.62,23.1,15.3,6.66-1,6.66-1.68l2.06.37h1.23l8.63-4.51.85.38h1.22q0-2.54,5-3.29,1.5-3.66,7.89-7.41,0-2.82,6.19-6.2a4.81,4.81,0,0,0,2.44-4.5c.63,0,1.85-1.79,3.66-5.35q1.69-2.91,3.76-2.91V150.2a3.66,3.66,0,0,1-.85-1.32q1.5-4.5,2.07-4.5c.94,0,1.5-1.26,1.69-3.76.25,0,.37-.12.37-.38v-2.06q2.53,0,2.54-4.13c.37,0,.78-.81,1.22-2.44a.75.75,0,0,0,.84-.85,3,3,0,0,1-.47-1.22.75.75,0,0,0,.85-.84,3,3,0,0,0-.38-1.22q0-2.91,2.07-2.91v-1.22a.75.75,0,0,0-.85-.85H414q-22.43,5.73-49.09,17.74Q332.69,157.34,332.68,169.53Zm127.57-63.92v.75a3.05,3.05,0,0,1,1.69.47l.38-.85-.85-.37ZM609.7,94.81v.47h.84c.38,0,.78-.44,1.22-1.31h-1.22Q609.7,94.15,609.7,94.81Zm76.41-2.91h1.22v.47h-1.22Zm27.69,2.54A18.79,18.79,0,0,0,720,96v1.32l-2.91-.47h-.85l-2.06.47a3.66,3.66,0,0,1-.85-1.32v-.75Z"/><path class="cls-3" d="M117,433.76v32.87h-6.6V449.41l-8.12,10.18h-2.15L92,449.41v17.22h-6.6V433.76H87.5l13.65,17.46,13.65-17.46Z"/><path class="cls-3" d="M182.55,462.42H169.34l-1.81,4.21h-7.09l14.43-32.87h2.2l14.39,32.87h-7.1ZM176,446.08,171.64,457h8.61Z"/><path class="cls-3" d="M254.81,466.63l-8.37-11.4h-4.85v11.4H235V434.34h12.13c6.81,0,11.65,4.11,11.65,10.42a10,10,0,0,1-5.68,9.2l9.15,12.67Zm-13.22-17.22h5.53c3.09,0,4.9-1.86,4.9-4.65s-1.81-4.6-4.9-4.6h-5.53Z"/><path class="cls-3" d="M334.3,441.78l-5,3.52c-2.15-3.42-5.19-5.43-9.25-5.43-6,0-10.42,4.4-10.42,10.66s4.4,10.57,10.42,10.57c4.06,0,7.1-2,9.25-5.43l5,3.52a16,16,0,0,1-14.29,8c-9.59,0-17.17-7.24-17.17-16.74s7.58-16.72,17.22-16.72A16,16,0,0,1,334.3,441.78Z"/><path class="cls-3" d="M406.55,466.63H400V452.69H385.66v13.94h-6.6V434.34h6.6v12.38H400V434.34h6.6Z"/><path class="cls-3" d="M526.84,456.06c0,6.66-5.48,11.16-12.18,11.16a12.86,12.86,0,0,1-11.74-7.34l4.6-3.23c1.81,2.74,3.81,4.45,6.94,4.45s5.63-1.86,5.63-5-2.3-4.64-6.6-4.64h-4.06v-1.72l6.75-9.44H505.41v-6h20.8v1.76l-7.15,10.08A10.08,10.08,0,0,1,526.84,456.06Z"/><path class="cls-3" d="M596.5,450.24c0,9.3-4.06,17-12.77,17s-12.81-7.68-12.81-17,4.11-16.48,12.81-16.48S596.5,440.85,596.5,450.24Zm-18.78.05c0,6.75,1.81,10.81,6,10.81s6-4.06,6-10.81-1.76-10.42-6-10.42S577.72,443.59,577.72,450.29Z"/><path class="cls-3" d="M623.32,436.84h-2.57v7h-1.64v-7h-2.55v-1.6h6.76Z"/><path class="cls-3" d="M631.19,443.88h-1.64v-3.73H626v3.73h-1.64v-8.64H626v3.31h3.53v-3.31h1.64Z"/></svg>