<?xml version="1.0" encoding="utf-8"?>
<!-- Generator: Adobe Illustrator 22.1.0, SVG Export Plug-In . SVG Version: 6.00 Build 0)  -->
<svg version="1.1" id="Layer_1" xmlns="http://www.w3.org/2000/svg" xmlns:xlink="http://www.w3.org/1999/xlink" x="0px" y="0px"
	 viewBox="0 0 150 150" style="enable-background:new 0 0 150 150;" xml:space="preserve">
<style type="text/css">
	.st0{fill:#B1EBFD;}
	.st1{fill:#FFFFFF;stroke:#567D96;stroke-width:3;stroke-miterlimit:10;}
	.st2{fill:none;stroke:#FB7B56;stroke-width:3;stroke-miterlimit:10;}
	.st3{fill:none;stroke:#567D96;stroke-width:3;stroke-miterlimit:10;}
	.st4{fill:#FB7B56;stroke:#FFFFFF;stroke-width:2;stroke-miterlimit:10;}
	.st5{fill:none;stroke:#FB7B56;stroke-width:3;stroke-linejoin:round;stroke-miterlimit:10;}
	.st6{fill:#FFFFFF;stroke:#FB7B56;stroke-width:3;stroke-miterlimit:10;}
	.st7{fill:#FFFFFF;}
	.st8{fill:#FB7B56;}
	.st9{fill:none;stroke:#FB7B56;stroke-width:3;stroke-linejoin:round;}
	.st10{fill:none;stroke:#FB7B56;stroke-width:3;stroke-linejoin:round;stroke-dasharray:4.2541,7.0902;}
	.st11{fill:none;stroke:#FB7B56;stroke-width:3;stroke-linejoin:round;stroke-dasharray:4.2541,7.0902,4.2541,7.0902;}
</style>
<g>
	<circle class="st0" cx="69.8" cy="77.2" r="37.5"/>
	<path class="st1" d="M52.3,130.3l-2.8-1l28.7-97.2c1.3-4.5,6.2-6.9,10.6-5.3l0,0c4.4,1.6,6.5,6.6,4.6,10.9L52.3,130.3z"/>
	<path class="st3" d="M81.2,47.3L81.2,47.3c-1.5-0.5-2.2-2.2-1.7-3.7l3.6-9.8c0.5-1.5,2.2-2.2,3.7-1.7h0c1.5,0.5,2.2,2.2,1.7,3.7
		l-3.6,9.8C84.4,47.1,82.7,47.9,81.2,47.3z"/>
	<g>
		<path class="st8" d="M114.9,80.8c-4.5-10-16.4-14.5-26.4-10L87.2,68c11.5-5.2,25.2,0,30.4,11.5L114.9,80.8z"/>
	</g>
	<g>
		<path class="st8" d="M87.2,68c-10,4.5-21.9,0-26.4-10c-3.5-7.9,0-17.2,7.9-20.7c3-1.3,6.3-1.4,9.4-0.3c2.7,1,5,3,6.4,5.5l1.3-3.4
			c-1.7-2.2-4-3.9-6.6-4.9c-3.8-1.4-7.9-1.3-11.7,0.4c-9.4,4.2-13.6,15.3-9.4,24.7c3.8,8.5,12.2,13.5,21,13.5c3.1,0,6.3-0.6,9.4-2
			L87.2,68z"/>
	</g>
</g>
</svg>
