<?xml version="1.0" encoding="utf-8"?>
<!-- Generator: Adobe Illustrator 22.1.0, SVG Export Plug-In . SVG Version: 6.00 Build 0)  -->
<svg version="1.1" id="Layer_1" xmlns="http://www.w3.org/2000/svg" xmlns:xlink="http://www.w3.org/1999/xlink" x="0px" y="0px"
	 viewBox="0 0 150 150" style="enable-background:new 0 0 150 150;" xml:space="preserve">
<style type="text/css">
	.st0{fill:#B1EBFD;}
	.st1{fill:none;stroke:#567D96;stroke-width:3;stroke-miterlimit:10;}
	.st2{fill:#FFFFFF;stroke:#FB7B56;stroke-width:3;stroke-miterlimit:10;}
	.st3{fill:#FFFFFF;stroke:#567D96;stroke-width:3;stroke-miterlimit:10;}
	.st4{fill:none;stroke:#FB7B56;stroke-width:3;stroke-miterlimit:10;}
</style>
<g>
	<path class="st0" d="M110.2,55.5c0-20.6-16.7-37.3-37.3-37.3S35.6,34.9,35.6,55.5c0,0.9,0,1.8,0.1,2.6c0,0.1,0,0.1,0,0.2
		c0.2,2.7,0.7,5.3,1.4,7.8c7,25.2,35.8,47.6,35.8,47.6s24.9-20.3,34-42.9C109,66.2,110.2,61,110.2,55.5z"/>
	<ellipse class="st2" cx="83.1" cy="127.8" rx="11.9" ry="4"/>
	<path class="st3" d="M82.5,26.8c-17.6,0-31.9,14.3-31.9,31.9c0,0.8,0,1.5,0.1,2.3c0,0,0,0.1,0,0.1c0.2,2.3,0.6,4.5,1.2,6.7
		c6,21.5,30.6,40.7,30.6,40.7s21.3-17.3,29.1-36.7c1.8-4,2.8-8.4,2.8-13.1C114.4,41.1,100.1,26.8,82.5,26.8z M82.7,67.6
		c-4.6,0-8.4-3.8-8.4-8.4c0-4.6,3.8-8.4,8.4-8.4c4.6,0,8.4,3.8,8.4,8.4C91.1,63.9,87.4,67.6,82.7,67.6z"/>
</g>
</svg>
