<?xml version="1.0" encoding="utf-8"?>
<!-- Generator: Adobe Illustrator 22.1.0, SVG Export Plug-In . SVG Version: 6.00 Build 0)  -->
<svg version="1.1" id="Layer_1" xmlns="http://www.w3.org/2000/svg" xmlns:xlink="http://www.w3.org/1999/xlink" x="0px" y="0px"
	 viewBox="0 0 150 150" style="enable-background:new 0 0 150 150;" xml:space="preserve">
<style type="text/css">
	.st0{fill:#B1EBFD;}
	.st1{fill:none;stroke:#567D96;stroke-width:3;stroke-miterlimit:10;}
	.st2{fill:#FFFFFF;stroke:#FB7B56;stroke-width:3;stroke-miterlimit:10;}
	.st3{fill:#FFFFFF;stroke:#567D96;stroke-width:3;stroke-miterlimit:10;}
	.st4{fill:none;stroke:#FB7B56;stroke-width:3;stroke-miterlimit:10;}
</style>
<g>
	<circle class="st0" cx="57.5" cy="79.3" r="33.1"/>
	<path class="st1" d="M32.5,54.4c0,13.7,11.1,24.9,24.9,24.9s24.9-11.1,24.9-24.9"/>
	<path class="st1" d="M57.5,115c0,9,7.3,16.2,16.2,16.2S89.9,124,89.9,115"/>
	<path class="st1" d="M106.2,98.8c-9,0-16.2,7.3-16.2,16.2"/>
	<line class="st1" x1="57.5" y1="115" x2="57.5" y2="79.3"/>
	<circle class="st2" cx="115.9" cy="98.8" r="9.7"/>
	<path class="st1" d="M32.5,54.4V25.8c0-3.9,3.2-7.1,7.1-7.1h3.2"/>
	<path class="st1" d="M72,18.8h3.2c3.9,0,7.1,3.2,7.1,7.1v28.6"/>
</g>
</svg>
