<?xml version="1.0" encoding="utf-8"?>
<!-- Generator: Adobe Illustrator 22.1.0, SVG Export Plug-In . SVG Version: 6.00 Build 0)  -->
<svg version="1.1" id="Layer_1" xmlns="http://www.w3.org/2000/svg" xmlns:xlink="http://www.w3.org/1999/xlink" x="0px" y="0px"
	 viewBox="0 0 150 150" style="enable-background:new 0 0 150 150;" xml:space="preserve">
<style type="text/css">
	.st0{fill:#B1EBFD;}
	.st1{fill:#FFFFFF;stroke:#567D96;stroke-width:3;stroke-miterlimit:10;}
	.st2{fill:none;stroke:#FB7B56;stroke-width:3;stroke-miterlimit:10;}
	.st3{fill:none;stroke:#567D96;stroke-width:3;stroke-miterlimit:10;}
	.st4{fill:#FB7B56;stroke:#FFFFFF;stroke-width:2;stroke-miterlimit:10;}
	.st5{fill:none;stroke:#FB7B56;stroke-width:3;stroke-linejoin:round;stroke-miterlimit:10;}
	.st6{fill:#FFFFFF;stroke:#FB7B56;stroke-width:3;stroke-miterlimit:10;}
	.st7{fill:#FFFFFF;}
	.st8{fill:#FB7B56;}
	.st9{fill:none;stroke:#FB7B56;stroke-width:3;stroke-linejoin:round;}
	.st10{fill:none;stroke:#FB7B56;stroke-width:3;stroke-linejoin:round;stroke-dasharray:4.2541,7.0902;}
	.st11{fill:none;stroke:#FB7B56;stroke-width:3;stroke-linejoin:round;stroke-dasharray:4.2541,7.0902,4.2541,7.0902;}
</style>
<g>
	<circle class="st0" cx="75" cy="69.6" r="34.3"/>
	<rect x="75" y="16.9" transform="matrix(0.978 0.2088 -0.2088 0.978 6.3116 -17.9394)" class="st1" width="26.2" height="8.1"/>
	
		<rect x="80" y="26.8" transform="matrix(-0.2088 0.978 -0.978 -0.2088 134.1026 -46.9012)" class="st1" width="12.1" height="8.1"/>
	
		<rect x="64.2" y="35.2" transform="matrix(0.978 0.2088 -0.2088 0.978 16.6718 -14.5578)" class="st1" width="26.2" height="72.9"/>
	<rect x="70.9" y="43.9" transform="matrix(0.978 0.2088 -0.2088 0.978 16.7018 -14.548)" class="st0" width="12.8" height="55.8"/>
	<line class="st2" x1="69.9" y1="51.7" x2="81" y2="54.1"/>
	<line class="st2" x1="67.6" y1="62.4" x2="78.8" y2="64.7"/>
	<line class="st2" x1="65.4" y1="73" x2="76.5" y2="75.4"/>
	<line class="st2" x1="63.1" y1="83.6" x2="74.2" y2="86"/>
	<line class="st3" x1="69.1" y1="107.2" x2="62.6" y2="137.8"/>
</g>
</svg>
