<?xml version="1.0" encoding="utf-8"?>
<!-- Generator: Adobe Illustrator 22.1.0, SVG Export Plug-In . SVG Version: 6.00 Build 0)  -->
<svg version="1.1" id="Layer_1" xmlns="http://www.w3.org/2000/svg" xmlns:xlink="http://www.w3.org/1999/xlink" x="0px" y="0px"
	 viewBox="0 0 150 150" style="enable-background:new 0 0 150 150;" xml:space="preserve">
<style type="text/css">
	.st0{fill:#B1EBFD;}
	.st1{fill:#FFFFFF;stroke:#567D96;stroke-width:3;stroke-miterlimit:10;}
	.st2{fill:none;stroke:#FB7B56;stroke-width:3;stroke-miterlimit:10;}
	.st3{fill:none;stroke:#567D96;stroke-width:3;stroke-miterlimit:10;}
	.st4{fill:#FB7B56;stroke:#FFFFFF;stroke-width:2;stroke-miterlimit:10;}
	.st5{fill:none;stroke:#FB7B56;stroke-width:3;stroke-linejoin:round;stroke-miterlimit:10;}
	.st6{fill:#FFFFFF;stroke:#FB7B56;stroke-width:3;stroke-miterlimit:10;}
	.st7{fill:#FFFFFF;}
	.st8{fill:#FB7B56;}
	.st9{fill:none;stroke:#FB7B56;stroke-width:3;stroke-linejoin:round;}
	.st10{fill:none;stroke:#FB7B56;stroke-width:3;stroke-linejoin:round;stroke-dasharray:4.2541,7.0902;}
	.st11{fill:none;stroke:#FB7B56;stroke-width:3;stroke-linejoin:round;stroke-dasharray:4.2541,7.0902,4.2541,7.0902;}
</style>
<g>
	<circle class="st0" cx="68.8" cy="66.9" r="43.9"/>
	<path class="st1" d="M74.7,123.8L73,111.4l-7.4,0.9c-9.1,1.1-16.9-6.5-16.1-15.6l1.2-12.1h-5.3c-2.5,0-3.9-2.9-2.4-4.9l7.7-9.6
		v-3.8c0-20.8,16.9-37.7,37.7-37.7h0c12.9,0,24.3,6.5,31.1,16.3c6.5,9.4,6.2,22-0.5,31.3l0,0l0,0c0,0-7.5,13-8.8,21.1
		c-1.3,8.1,0,26.6,0,26.6"/>
	<path class="st2" d="M38,79.5c2.1-6.4,8.5-10.4,14.8-8.8c2.4,0.6,4.3,1.8,4.8,4c1.5,6.9,4.6,42,4.6,42s-16.7,0.7-22.1-6.6
		c-0.1-0.1-0.1-0.1-0.2-0.2c-3.4-4.7-4.6-10.1-4.6-15.9c0-4.6,0.9-9.2,2.3-13.6L38,79.5z"/>
	<path class="st2" d="M125.1,76c0,7.5-6.1,13.6-13.6,13.6l-51.9,0.6"/>
</g>
</svg>
