<?xml version="1.0" encoding="utf-8"?>
<!-- Generator: Adobe Illustrator 22.1.0, SVG Export Plug-In . SVG Version: 6.00 Build 0)  -->
<svg version="1.1" id="Layer_1" xmlns="http://www.w3.org/2000/svg" xmlns:xlink="http://www.w3.org/1999/xlink" x="0px" y="0px"
	 viewBox="0 0 150 150" style="enable-background:new 0 0 150 150;" xml:space="preserve">
<style type="text/css">
	.st0{fill:#B1EBFD;}
	.st1{fill:none;stroke:#567D96;stroke-width:3;stroke-miterlimit:10;}
	.st2{fill:#FFFFFF;stroke:#FB7B56;stroke-width:3;stroke-miterlimit:10;}
	.st3{fill:#FFFFFF;stroke:#567D96;stroke-width:3;stroke-miterlimit:10;}
	.st4{fill:none;stroke:#FB7B56;stroke-width:3;stroke-miterlimit:10;}
</style>
<g>
	<path class="st0" d="M97.5,130.9h-53c-4.2,0-7.6-3.4-7.6-7.6V53c0-4.2,3.4-7.6,7.6-7.6h53c4.2,0,7.6,3.4,7.6,7.6v70.4
		C105.1,127.6,101.7,130.9,97.5,130.9z"/>
	<path class="st3" d="M105.5,123.3h-53c-4.2,0-7.6-3.4-7.6-7.6V45.3c0-4.2,3.4-7.6,7.6-7.6h53c4.2,0,7.6,3.4,7.6,7.6v70.4
		C113.1,119.9,109.7,123.3,105.5,123.3z"/>
	<rect x="52.9" y="61.4" class="st0" width="52.2" height="9.6"/>
	<rect x="52.9" y="78.9" class="st0" width="52.2" height="9.6"/>
	<rect x="52.9" y="96.4" class="st0" width="26.1" height="9.6"/>
	<path class="st2" d="M89.1,29c-0.1,0-0.1-0.1-0.1-0.1c-0.1-5.4-4.5-9.8-10-9.8c-5.5,0-9.9,4.4-10,9.8C69,29,69,29,68.9,29l-8.7,0
		c-3.2,0-5.9,2.6-5.9,5.9v10.8h49.2V34.9c0-3.2-2.6-5.9-5.9-5.9L89.1,29z"/>
</g>
</svg>
