<?xml version="1.0" encoding="utf-8"?>
<!-- Generator: Adobe Illustrator 22.1.0, SVG Export Plug-In . SVG Version: 6.00 Build 0)  -->
<svg version="1.1" id="Layer_1" xmlns="http://www.w3.org/2000/svg" xmlns:xlink="http://www.w3.org/1999/xlink" x="0px" y="0px"
	 viewBox="0 0 150 150" style="enable-background:new 0 0 150 150;" xml:space="preserve">
<style type="text/css">
	.st0{fill:#B1EBFD;}
	.st1{fill:#FFFFFF;stroke:#567D96;stroke-width:3;stroke-miterlimit:10;}
	.st2{fill:none;stroke:#FB7B56;stroke-width:3;stroke-miterlimit:10;}
	.st3{fill:none;stroke:#567D96;stroke-width:3;stroke-miterlimit:10;}
	.st4{fill:#FB7B56;stroke:#FFFFFF;stroke-width:2;stroke-miterlimit:10;}
	.st5{fill:none;stroke:#FB7B56;stroke-width:3;stroke-linejoin:round;stroke-miterlimit:10;}
	.st6{fill:#FFFFFF;stroke:#FB7B56;stroke-width:3;stroke-miterlimit:10;}
	.st7{fill:#FFFFFF;}
	.st8{fill:#FB7B56;}
	.st9{fill:none;stroke:#FB7B56;stroke-width:3;stroke-linejoin:round;}
	.st10{fill:none;stroke:#FB7B56;stroke-width:3;stroke-linejoin:round;stroke-dasharray:4.2541,7.0902;}
	.st11{fill:none;stroke:#FB7B56;stroke-width:3;stroke-linejoin:round;stroke-dasharray:4.2541,7.0902,4.2541,7.0902;}
</style>
<g>
	<path class="st0" d="M60,102.6c0,12.3,10,22.2,22.2,22.2c11.9,0,21.6-9.3,22.2-21.1c0-0.8,0.1-1.5,0.2-2.3l1.7-15.9
		c0.3-2.4,0.9-4.8,1.7-7l2.4-6c3.3-8.3,2.4-17.9-2.8-25.2c-5.6-8-14.9-13.2-25.4-13.2c-17.2,0-31.1,13.9-31.1,31.1"/>
	<path class="st1" d="M46.3,94.8c0,12.3,10,22.2,22.2,22.2c11.9,0,21.6-9.3,22.2-21.1c0-0.8,0.1-1.5,0.2-2.3l1.7-15.9
		c0.3-2.4,0.9-4.8,1.7-7l2.4-6c3.3-8.3,2.4-17.9-2.8-25.2c-5.6-8-14.9-13.2-25.4-13.2c-17.2,0-31.1,13.9-31.1,31.1"/>
	<path class="st1" d="M87.5,56.6c0-10.1-8.2-18.3-18.3-18.3s-18.3,8.2-18.3,18.3v8.3c5.1,0,9.1,4.1,9.1,9.1s-4.1,9.1-9.1,9.1"/>
	<path class="st6" d="M87.1,79.1c2.8,4.2,5.7,8.2,8.2,12.5c2,3.5,0.8,8.4-2.2,10.8c-3.1,2.5-8.6,2.6-11.6,0.2
		c-3.5-2.8-4.6-6.9-2.8-10.9c0.1-0.2,0.2-0.4,0.3-0.7c0.5-0.8,0.9-1.6,1.4-2.3C82.6,85.5,84.8,82.4,87.1,79.1z"/>
	<path class="st6" d="M74.8,67.8c1.4,2.1,2.8,4.1,4.1,6.2c1,1.7,0.4,4.2-1.1,5.4c-1.6,1.3-4.3,1.3-5.8,0.1c-1.7-1.4-2.3-3.4-1.4-5.4
		c0-0.1,0.1-0.2,0.2-0.3c0.2-0.4,0.5-0.8,0.7-1.2C72.5,71,73.6,69.5,74.8,67.8z"/>
</g>
</svg>
