<?xml version="1.0" encoding="utf-8"?>
<!-- Generator: Adobe Illustrator 22.1.0, SVG Export Plug-In . SVG Version: 6.00 Build 0)  -->
<svg version="1.1" id="Layer_1" xmlns="http://www.w3.org/2000/svg" xmlns:xlink="http://www.w3.org/1999/xlink" x="0px" y="0px"
	 viewBox="0 0 150 150" style="enable-background:new 0 0 150 150;" xml:space="preserve">
<style type="text/css">
	.st0{fill:#B1EBFD;}
	.st1{fill:none;stroke:#567D96;stroke-width:3;stroke-miterlimit:10;}
	.st2{fill:#FFFFFF;stroke:#FB7B56;stroke-width:3;stroke-miterlimit:10;}
	.st3{fill:#FFFFFF;stroke:#567D96;stroke-width:3;stroke-miterlimit:10;}
	.st4{fill:none;stroke:#FB7B56;stroke-width:3;stroke-miterlimit:10;}
</style>
<g>
	<path class="st0" d="M49.9,59.5v17.1L27,77.8c-5.8,0.3-10.3,5.1-10.3,10.8v19.8h33.1h44.5h54.1V44.8H64.6
		C56.4,44.8,49.9,51.4,49.9,59.5z"/>
	<ellipse class="st3" cx="107" cy="99.2" rx="7.8" ry="11.5"/>
	<ellipse class="st3" cx="35.7" cy="99.2" rx="7.8" ry="11.5"/>
	<path class="st3" d="M42.6,54v17.1l-22.8,1.2C14,72.6,9.5,77.4,9.5,83.1V103h33.1h44.5h54.1V39.3H57.3C49.2,39.3,42.6,45.8,42.6,54
		z"/>
	<path class="st0" d="M82.6,72H50.9V55.7c0-5.2,4.2-9.3,9.3-9.3h22.4V72z"/>
	<rect x="90.9" y="46.4" class="st0" width="40" height="25.6"/>
	<ellipse class="st2" cx="120.5" cy="99.2" rx="7.8" ry="11.5"/>
	<ellipse class="st2" cx="60.3" cy="99.2" rx="7.8" ry="11.5"/>
	<rect x="1.5" y="96.6" class="st3" width="45.5" height="6.4"/>
	<rect x="136.4" y="96.6" class="st3" width="9.2" height="6.4"/>
	<rect x="15.8" y="83" class="st0" width="27.7" height="7.3"/>
</g>
</svg>
