<?xml version="1.0" encoding="utf-8"?>
<!-- Generator: Adobe Illustrator 22.1.0, SVG Export Plug-In . SVG Version: 6.00 Build 0)  -->
<svg version="1.1" id="Layer_1" xmlns="http://www.w3.org/2000/svg" xmlns:xlink="http://www.w3.org/1999/xlink" x="0px" y="0px"
	 viewBox="0 0 150 150" style="enable-background:new 0 0 150 150;" xml:space="preserve">
<style type="text/css">
	.st0{fill:#B1EBFD;}
	.st1{fill:#FFFFFF;stroke:#567D96;stroke-width:3;stroke-miterlimit:10;}
	.st2{fill:none;stroke:#FB7B56;stroke-width:3;stroke-miterlimit:10;}
	.st3{fill:none;stroke:#567D96;stroke-width:3;stroke-miterlimit:10;}
	.st4{fill:#FB7B56;stroke:#FFFFFF;stroke-width:2;stroke-miterlimit:10;}
	.st5{fill:none;stroke:#FB7B56;stroke-width:3;stroke-linejoin:round;stroke-miterlimit:10;}
	.st6{fill:#FFFFFF;stroke:#FB7B56;stroke-width:3;stroke-miterlimit:10;}
	.st7{fill:#FFFFFF;}
	.st8{fill:#FB7B56;}
	.st9{fill:none;stroke:#FB7B56;stroke-width:3;stroke-linejoin:round;}
	.st10{fill:none;stroke:#FB7B56;stroke-width:3;stroke-linejoin:round;stroke-dasharray:4.2541,7.0902;}
	.st11{fill:none;stroke:#FB7B56;stroke-width:3;stroke-linejoin:round;stroke-dasharray:4.2541,7.0902,4.2541,7.0902;}
</style>
<g>
	<path class="st0" d="M36.8,117l-4.1-4.1c-7.6-7.6-7.6-19.9,0-27.5l53.1-53.1c7.6-7.6,19.9-7.6,27.5,0l4.1,4.1
		c7.6,7.6,7.6,19.9,0,27.5L64.2,117C56.6,124.6,44.3,124.6,36.8,117z"/>
	<path class="st1" d="M32.7,36.4l4.1-4.1c7.6-7.6,19.9-7.6,27.5,0l53.1,53.1c7.6,7.6,7.6,19.9,0,27.5l-4.1,4.1
		c-7.6,7.6-19.9,7.6-27.5,0L32.7,63.9C25.1,56.3,25.1,44,32.7,36.4z"/>
	
		<rect x="52.7" y="60.2" transform="matrix(0.7071 0.7071 -0.7071 0.7071 74.7724 -31.1603)" class="st0" width="44.7" height="29"/>
	<circle class="st4" cx="102.4" cy="92.2" r="3.2"/>
	<circle class="st4" cx="93.1" cy="101.5" r="3.2"/>
	<circle class="st4" cx="110.9" cy="100.7" r="3.2"/>
	<circle class="st4" cx="101.6" cy="110" r="3.2"/>
	<circle class="st4" cx="102.4" cy="101.2" r="3.2"/>
	<circle class="st4" cx="49.4" cy="48.1" r="3.2"/>
	<circle class="st4" cx="49.4" cy="39.1" r="3.2"/>
	<circle class="st4" cx="40" cy="48.4" r="3.2"/>
	<circle class="st4" cx="57.9" cy="47.6" r="3.2"/>
	<circle class="st4" cx="48.5" cy="56.9" r="3.2"/>
</g>
</svg>
