<?xml version="1.0" encoding="utf-8"?>
<!-- Generator: Adobe Illustrator 22.1.0, SVG Export Plug-In . SVG Version: 6.00 Build 0)  -->
<svg version="1.1" id="Layer_1" xmlns="http://www.w3.org/2000/svg" xmlns:xlink="http://www.w3.org/1999/xlink" x="0px" y="0px"
	 viewBox="0 0 150 150" style="enable-background:new 0 0 150 150;" xml:space="preserve">
<style type="text/css">
	.st0{fill:#B1EBFD;}
	.st1{fill:none;stroke:#567D96;stroke-width:3;stroke-miterlimit:10;}
	.st2{fill:#FFFFFF;stroke:#FB7B56;stroke-width:3;stroke-miterlimit:10;}
	.st3{fill:#FFFFFF;stroke:#567D96;stroke-width:3;stroke-miterlimit:10;}
	.st4{fill:none;stroke:#FB7B56;stroke-width:3;stroke-miterlimit:10;}
</style>
<g>
	<rect x="8.4" y="42" class="st0" width="117.6" height="69.2"/>
	<rect x="19.3" y="48.8" class="st3" width="22.1" height="67"/>
	<rect x="41.4" y="48.8" class="st3" width="74.4" height="67"/>
	<rect x="41.4" y="34.1" class="st3" width="80.1" height="15.6"/>
	<rect x="14.4" y="34.1" class="st3" width="27" height="15.6"/>
	<rect x="65.5" y="92.7" class="st0" width="26.2" height="21.7"/>
	<rect x="62" y="86.6" class="st3" width="33.1" height="6.2"/>
	<rect x="50.5" y="58.7" class="st0" width="38.7" height="14.5"/>
	<rect x="26.1" y="58.7" class="st0" width="8.5" height="47.2"/>
	<rect x="93.8" y="58.7" class="st0" width="12.9" height="14.5"/>
	<path class="st2" d="M133,106.1c-1.6,0-3.2,0.5-4.5,1.4c-2.4-4.1-6.4-6.8-11-6.8c-7.3,0-13.2,6.8-13.2,15.1h20.1h6.3h10.8
		C141.6,110.5,137.7,106.1,133,106.1z"/>
</g>
</svg>
