<?xml version="1.0" encoding="utf-8"?>
<!-- Generator: Adobe Illustrator 22.1.0, SVG Export Plug-In . SVG Version: 6.00 Build 0)  -->
<svg version="1.1" id="Layer_1" xmlns="http://www.w3.org/2000/svg" xmlns:xlink="http://www.w3.org/1999/xlink" x="0px" y="0px"
	 viewBox="0 0 150 150" style="enable-background:new 0 0 150 150;" xml:space="preserve">
<style type="text/css">
	.st0{fill:#B1EBFD;}
	.st1{fill:none;stroke:#567D96;stroke-width:3;stroke-miterlimit:10;}
	.st2{fill:#FFFFFF;stroke:#FB7B56;stroke-width:3;stroke-miterlimit:10;}
	.st3{fill:#FFFFFF;stroke:#567D96;stroke-width:3;stroke-miterlimit:10;}
	.st4{fill:none;stroke:#FB7B56;stroke-width:3;stroke-miterlimit:10;}
</style>
<g>
	<path class="st0" d="M94.3,128.5h-49c-4.2,0-7.6-3.4-7.6-7.6V39.2c0-4.2,3.4-7.6,7.6-7.6h49c4.2,0,7.6,3.4,7.6,7.6v81.7
		C101.9,125.1,98.5,128.5,94.3,128.5z"/>
	<path class="st3" d="M104.7,118.4h-49c-4.2,0-7.6-3.4-7.6-7.6V29.1c0-4.2,3.4-7.6,7.6-7.6h49c4.2,0,7.6,3.4,7.6,7.6v81.7
		C112.3,115,108.9,118.4,104.7,118.4z"/>
	<path class="st0" d="M103.4,108.5H63.2c-4.2,0-7.6-3.4-7.6-7.6V36.2c0-4.2,3.4-7.6,7.6-7.6h40.3c4.2,0,7.6,3.4,7.6,7.6v64.7
		C111,105.1,107.6,108.5,103.4,108.5z"/>
	<circle class="st2" cx="80.2" cy="102" r="5.5"/>
</g>
</svg>
