<?xml version="1.0" encoding="utf-8"?>
<!-- Generator: Adobe Illustrator 22.1.0, SVG Export Plug-In . SVG Version: 6.00 Build 0)  -->
<svg version="1.1" id="Layer_1" xmlns="http://www.w3.org/2000/svg" xmlns:xlink="http://www.w3.org/1999/xlink" x="0px" y="0px"
	 viewBox="0 0 150 150" style="enable-background:new 0 0 150 150;" xml:space="preserve">
<style type="text/css">
	.st0{fill:#B1EBFD;}
	.st1{fill:none;stroke:#567D96;stroke-width:3;stroke-miterlimit:10;}
	.st2{fill:#FFFFFF;stroke:#FB7B56;stroke-width:3;stroke-miterlimit:10;}
	.st3{fill:#FFFFFF;stroke:#567D96;stroke-width:3;stroke-miterlimit:10;}
	.st4{fill:none;stroke:#FB7B56;stroke-width:3;stroke-miterlimit:10;}
</style>
<g>
	<path class="st0" d="M65.2,137.7L65.2,137.7c-8.6-2.2-13.9-10.9-11.8-19.6l23.5-94l31.3,7.8l-23.5,94
		C82.7,134.6,73.9,139.8,65.2,137.7z"/>
	<path class="st3" d="M54.3,125.1L54.3,125.1c-8.6-2.2-13.9-10.9-11.8-19.6l23.5-94l31.3,7.8l-23.5,94
		C71.7,122,62.9,127.3,54.3,125.1z"/>
	<path class="st0" d="M56.6,115.7L56.6,115.7c-5-1.3-8.1-6.4-6.8-11.4l12.8-51.3l18.2,4.6L68,108.9C66.7,113.9,61.6,117,56.6,115.7z
		"/>
	<line class="st4" x1="62.9" y1="29.4" x2="73" y2="31.9"/>
	<line class="st4" x1="59.4" y1="43.3" x2="69.5" y2="45.8"/>
	<line class="st4" x1="56" y1="57.1" x2="66.1" y2="59.6"/>
	<line class="st4" x1="52.5" y1="71" x2="62.6" y2="73.5"/>
</g>
</svg>
