<?xml version="1.0" encoding="utf-8"?>
<!-- Generator: Adobe Illustrator 22.1.0, SVG Export Plug-In . SVG Version: 6.00 Build 0)  -->
<svg version="1.1" id="Layer_1" xmlns="http://www.w3.org/2000/svg" xmlns:xlink="http://www.w3.org/1999/xlink" x="0px" y="0px"
	 viewBox="0 0 150 150" style="enable-background:new 0 0 150 150;" xml:space="preserve">
<style type="text/css">
	.st0{fill:#B1EBFD;}
	.st1{fill:#FFFFFF;stroke:#567D96;stroke-width:3;stroke-miterlimit:10;}
	.st2{fill:none;stroke:#FB7B56;stroke-width:3;stroke-miterlimit:10;}
	.st3{fill:none;stroke:#567D96;stroke-width:3;stroke-miterlimit:10;}
	.st4{fill:#FB7B56;stroke:#FFFFFF;stroke-width:2;stroke-miterlimit:10;}
	.st5{fill:none;stroke:#FB7B56;stroke-width:3;stroke-linejoin:round;stroke-miterlimit:10;}
	.st6{fill:#FFFFFF;stroke:#FB7B56;stroke-width:3;stroke-miterlimit:10;}
	.st7{fill:#FFFFFF;}
	.st8{fill:#FB7B56;}
	.st9{fill:none;stroke:#FB7B56;stroke-width:3;stroke-linejoin:round;}
	.st10{fill:none;stroke:#FB7B56;stroke-width:3;stroke-linejoin:round;stroke-dasharray:4.2541,7.0902;}
	.st11{fill:none;stroke:#FB7B56;stroke-width:3;stroke-linejoin:round;stroke-dasharray:4.2541,7.0902,4.2541,7.0902;}
</style>
<g>
	<line class="st3" x1="109.7" y1="110.1" x2="119" y2="125.4"/>
	<circle class="st0" cx="67" cy="68.5" r="43.9"/>
	<path class="st1" d="M77.4,125.4L75.7,113l-7.4,0.9c-9.1,1.1-16.9-6.5-16.1-15.6l1.2-12.1H48c-2.5,0-3.9-2.9-2.4-4.9l7.7-9.6v-3.8
		c0-20.8,16.9-37.7,37.7-37.7h0c12.9,0,24.3,6.5,31.1,16.3c6.5,9.4,6.2,22-0.5,31.3l0,0"/>
	<circle class="st1" cx="101.7" cy="97" r="15.3"/>
	<circle class="st0" cx="99.6" cy="94.9" r="11.5"/>
	<path class="st2" d="M93.3,98.8c0-5.7,4.6-10.2,10.2-10.2"/>
</g>
</svg>
