<?xml version="1.0" encoding="utf-8"?>
<!-- Generator: Adobe Illustrator 22.1.0, SVG Export Plug-In . SVG Version: 6.00 Build 0)  -->
<svg version="1.1" id="Layer_1" xmlns="http://www.w3.org/2000/svg" xmlns:xlink="http://www.w3.org/1999/xlink" x="0px" y="0px"
	 viewBox="0 0 150 150" style="enable-background:new 0 0 150 150;" xml:space="preserve">
<style type="text/css">
	.st0{fill:#B1EBFD;}
	.st1{fill:#FFFFFF;stroke:#567D96;stroke-width:3;stroke-miterlimit:10;}
	.st2{fill:none;stroke:#FB7B56;stroke-width:3;stroke-miterlimit:10;}
	.st3{fill:none;stroke:#567D96;stroke-width:3;stroke-miterlimit:10;}
	.st4{fill:#FB7B56;stroke:#FFFFFF;stroke-width:2;stroke-miterlimit:10;}
	.st5{fill:none;stroke:#FB7B56;stroke-width:3;stroke-linejoin:round;stroke-miterlimit:10;}
	.st6{fill:#FFFFFF;stroke:#FB7B56;stroke-width:3;stroke-miterlimit:10;}
	.st7{fill:#FFFFFF;}
	.st8{fill:#FB7B56;}
	.st9{fill:none;stroke:#FB7B56;stroke-width:3;stroke-linejoin:round;}
	.st10{fill:none;stroke:#FB7B56;stroke-width:3;stroke-linejoin:round;stroke-dasharray:4.2541,7.0902;}
	.st11{fill:none;stroke:#FB7B56;stroke-width:3;stroke-linejoin:round;stroke-dasharray:4.2541,7.0902,4.2541,7.0902;}
</style>
<g>
	<rect x="13.1" y="46.1" class="st0" width="125.9" height="52.5"/>
	<path class="st1" d="M120.6,111.4H31.6c-4.2,0-7.6-3.4-7.6-7.6V46.5c0-4.2,3.4-7.6,7.6-7.6h88.9c4.2,0,7.6,3.4,7.6,7.6v57.3
		C128.2,108,124.8,111.4,120.6,111.4z"/>
	<circle class="st1" cx="111" cy="96.1" r="4.3"/>
	<circle class="st1" cx="111" cy="78.3" r="4.3"/>
	<rect x="31.7" y="47.2" class="st0" width="62.3" height="54.7"/>
	<polyline class="st5" points="31.7,77.2 45,77.2 48.6,61.7 57.8,89.4 61.2,75.6 66,75.6 70.7,58.1 75.8,89.4 78.4,73.8 94,73.8 	
		"/>
	<path class="st6" d="M105.2,58.4c-1.3-1.4-1.4-3.5-0.3-5c1.4-1.9,4.3-2.5,6.1-0.8c1.8-1.7,4.6-1.2,6,0.7c1.1,1.4,1.1,3.6-0.2,5
		c-1.9,2.1-4,4.2-5.9,6.3C109,62.6,107.1,60.5,105.2,58.4z"/>
</g>
</svg>
