<?xml version="1.0" encoding="utf-8"?>
<!-- Generator: Adobe Illustrator 22.1.0, SVG Export Plug-In . SVG Version: 6.00 Build 0)  -->
<svg version="1.1" id="Layer_1" xmlns="http://www.w3.org/2000/svg" xmlns:xlink="http://www.w3.org/1999/xlink" x="0px" y="0px"
	 viewBox="0 0 150 150" style="enable-background:new 0 0 150 150;" xml:space="preserve">
<style type="text/css">
	.st0{fill:#B1EBFD;}
	.st1{fill:#FFFFFF;stroke:#567D96;stroke-width:3;stroke-miterlimit:10;}
	.st2{fill:none;stroke:#FB7B56;stroke-width:3;stroke-miterlimit:10;}
	.st3{fill:none;stroke:#567D96;stroke-width:3;stroke-miterlimit:10;}
	.st4{fill:#FB7B56;stroke:#FFFFFF;stroke-width:2;stroke-miterlimit:10;}
	.st5{fill:none;stroke:#FB7B56;stroke-width:3;stroke-linejoin:round;stroke-miterlimit:10;}
	.st6{fill:#FFFFFF;stroke:#FB7B56;stroke-width:3;stroke-miterlimit:10;}
	.st7{fill:#FFFFFF;}
	.st8{fill:#FB7B56;}
	.st9{fill:none;stroke:#FB7B56;stroke-width:3;stroke-linejoin:round;}
	.st10{fill:none;stroke:#FB7B56;stroke-width:3;stroke-linejoin:round;stroke-dasharray:4.2541,7.0902;}
	.st11{fill:none;stroke:#FB7B56;stroke-width:3;stroke-linejoin:round;stroke-dasharray:4.2541,7.0902,4.2541,7.0902;}
</style>
<g>
	<path class="st0" d="M101.1,70.1v37.5c0,4.7-3.8,8.6-8.6,8.6h0v14.7H43.2v-14.2h0h0c-4,0-7.2-3.2-7.2-7.2v-29c0-4,3.2-7.2,7.2-7.2
		h0c4,0,7.2,3.2,7.2,7.2v14.5c13,0,23.5,10.5,23.5,23.5"/>
	
		<rect x="52.5" y="60.1" transform="matrix(6.123234e-17 -1 1 6.123234e-17 -1.621 166.0796)" class="st7" width="59.4" height="47.4"/>
	<path class="st1" d="M56.2,68.3V26.4c0-4,3.2-7.2,7.2-7.2h0c4,0,7.2,3.2,7.2,7.2v41.9"/>
	<path class="st1" d="M114,58.7v37.5c0,4.7-3.8,8.6-8.6,8.6h0v14.7H56.2v-14.2h0h0c-4,0-7.2-3.2-7.2-7.2V69c0-4,3.2-7.2,7.2-7.2h0
		c4,0,7.2,3.2,7.2,7.2v14.5c13,0,23.5,10.5,23.5,23.5"/>
	<path class="st1" d="M85.1,45.2v23.1c0,4-3.2,7.2-7.2,7.2h0c-4,0-7.2-3.2-7.2-7.2V45.2c0-4,3.2-7.2,7.2-7.2h0
		C81.8,38,85.1,41.2,85.1,45.2z"/>
	<path class="st1" d="M99.6,47.2v23.1c0,4-3.2,7.2-7.2,7.2h0c-4,0-7.2-3.2-7.2-7.2V47.2c0-4,3.2-7.2,7.2-7.2h0
		C96.3,39.9,99.6,43.2,99.6,47.2z"/>
	<path class="st1" d="M114,50v23.1c0,4-3.2,7.2-7.2,7.2h0c-4,0-7.2-3.2-7.2-7.2V50c0-4,3.2-7.2,7.2-7.2h0C110.8,42.8,114,46,114,50z
		"/>
	<path class="st6" d="M56.2,30.2c2.8,4.2,5.7,8.2,8.2,12.5c2,3.5,0.8,8.4-2.2,10.8C59,56,53.6,56,50.6,53.6
		c-3.5-2.8-4.6-6.9-2.8-10.9c0.1-0.2,0.2-0.4,0.3-0.7c0.5-0.8,0.9-1.6,1.4-2.3C51.7,36.6,53.9,33.5,56.2,30.2z"/>
</g>
</svg>
