<?xml version="1.0" encoding="utf-8"?>
<!-- Generator: Adobe Illustrator 22.1.0, SVG Export Plug-In . SVG Version: 6.00 Build 0)  -->
<svg version="1.1" id="Isolation_Mode" xmlns="http://www.w3.org/2000/svg" xmlns:xlink="http://www.w3.org/1999/xlink" x="0px"
	 y="0px" viewBox="0 0 765 340.2" style="enable-background:new 0 0 765 340.2;" xml:space="preserve">
<style type="text/css">
	.st0{fill:#FFFFFF;}
	.st1{fill:url(#SVGID_1_);}
	.st2{fill:url(#SVGID_2_);}
</style>
<g>
	<path class="st0" d="M39.9,289.8c0,8.6-6.2,14.7-16.1,14.7H12v21.1H6v-50.4h17.7C33.7,275.2,39.9,281.4,39.9,289.8z M12,280.6v18.6
		h11.6c6.6,0,10.1-3.9,10.1-9.3c0-5.3-3.4-9.3-10.1-9.3H12z M79.8,302.3v23.4h-5.9V303c0-5.9-3.5-10-9.2-10c-5.7,0-9.8,4.2-9.8,10
		v22.6H49v-57.3h5.9v24.3c2.5-3.1,6.3-5,11.1-5C74.8,287.6,79.8,293.7,79.8,302.3z M123.6,288.5l-18.3,42.4
		c-2.9,6.6-6.9,9.4-12.6,9.4c-1.8,0-4-0.3-5.7-0.8v-5c1.8,0.2,3.2,0.4,4.5,0.4c3.6,0,6.3-1.2,8.4-6l2-4.4l-15.4-36h6.3l12.3,29.6
		l12.3-29.6H123.6z M154.7,293.5l-3.6,3.7c-2.4-2.5-5.7-4.1-9.2-4.1c-3.5,0-6.2,1.6-6.2,4.7c0,2.5,1.9,3.7,6,5.4l3.4,1.5
		c6.7,2.8,9.9,5.7,9.9,11c0,7.3-6.2,10.9-13.1,10.9c-6.6,0-11.5-3.3-14.5-7.3l3.7-3.9c3.1,3.2,6.2,5.7,10.7,5.7
		c3.9,0,7.1-1.9,7.1-5.3c0-3.2-2.7-4.4-6.5-6l-3.6-1.5c-5.7-2.4-9.2-5-9.2-10.3c0-6.7,5.7-10.4,12.5-10.4
		C147.6,287.6,151.8,289.9,154.7,293.5z M174.6,274.3c0,2.4-2,4.3-4.4,4.3c-2.4,0-4.4-1.8-4.4-4.3c0-2.4,2-4.3,4.4-4.3
		C172.6,270,174.6,271.9,174.6,274.3z M173.1,325.7h-5.9v-37.2h5.9V325.7z M217,295.7l-4.2,3.4c-2.7-3.7-6.3-6-11.1-6
		c-7.8,0-13.5,6.2-13.5,14c0,7.9,5.7,14.1,13.5,14.1c4.7,0,8.2-2.3,11-6l4.2,3.3c-3.3,4.9-8.6,8.1-15.3,8.1
		c-10.8,0-19.5-8.6-19.5-19.5c0-10.8,8.6-19.4,19.5-19.4C208.4,287.6,213.8,290.8,217,295.7z M234.3,274.3c0,2.4-2,4.3-4.4,4.3
		c-2.4,0-4.4-1.8-4.4-4.3c0-2.4,2-4.3,4.4-4.3C232.3,270,234.3,271.9,234.3,274.3z M232.9,325.7H227v-37.2h5.9V325.7z M272.7,302.7
		v22.9h-5.5v-4.8c-2.7,3.6-7,5.7-12.5,5.7c-7.5,0-13-4-13-10.5c0-6.3,5.3-10.4,13.4-10.4h11.8v-3.2c0-6.3-3.5-9.4-9-9.4
		c-4.7,0-7.9,2.2-10.8,6l-3.9-3.2c3.5-5.7,9.2-8.2,15.1-8.2C266.7,287.6,272.7,292.7,272.7,302.7z M266.8,311.4v-0.9h-11.1
		c-5.2,0-8,1.8-8,5.3c0,4,3.6,5.9,7.7,5.9C261.5,321.6,266.8,317.2,266.8,311.4z M314.4,302.3v23.4h-5.9V303c0-5.9-3.5-9.9-9.2-9.9
		c-5.7,0-9.8,4.1-9.8,9.9v22.7h-5.9v-37.2h5.5v4c2.7-3,6.6-4.8,11.5-4.8C309.3,287.6,314.4,293.7,314.4,302.3z M391.9,284.7
		l-4.5,3.5c-3.7-5.2-9.2-8.3-16-8.3c-11.7,0-20,8.9-20,20.5c0,11.8,8.5,20.8,20.3,20.8c7.6,0,13.4-3.7,16.8-9v-6.8h-17.2V300h23.1
		v13.4c-4.4,7.8-13,13.1-23.1,13.1c-14.7,0-26.2-11.4-26.2-26c0-14.7,11.5-26,26.2-26C380,274.4,387.2,278.3,391.9,284.7z
		 M424.4,288.5v5.2h-2.2c-6,0-11.7,3.8-11.7,10.9v21.1h-5.9v-37.2h5.5v5.3c2.7-3.7,7.1-5.6,11.5-5.6
		C422.9,288.2,423.7,288.3,424.4,288.5z M468.3,307c0,10.8-8.7,19.4-19.6,19.4c-10.8-0.1-19.4-8.5-19.4-19.4s8.6-19.4,19.5-19.4
		C459.6,287.6,468.3,296.1,468.3,307z M435.4,307.1c0,7.9,5.7,13.9,13.4,13.9c7.7,0,13.5-6.1,13.5-13.9c0-8-5.8-14.1-13.4-14.1
		C441.1,293,435.4,299.2,435.4,307.1z M506.7,310.8c0,9.5-6.8,15.7-15.3,15.7c-8.7,0-15.4-6.1-15.4-15.7v-22.4h5.8v22.8
		c0,6.1,4.3,9.9,9.6,9.9c5.2,0,9.5-3.7,9.5-9.9v-22.8h5.9V310.8z M554.5,307c0,11-7.8,19.5-18.4,19.5c-5.4,0-10.6-2.3-13.7-6.2v19.1
		h-5.9v-50.9h5.5v6c2.9-4.3,8.2-6.8,14.1-6.8C546.8,287.6,554.5,296.1,554.5,307z M548.5,307.1c0-8.1-5.6-14.1-13.2-14.1
		c-6.4,0-12.9,4.2-12.9,14c0,9.8,6.4,14.1,12.9,14.1C542.8,321.1,548.5,315.2,548.5,307.1z"/>
	<path class="st0" d="M714.4,230.8h-3.9v-2.2h10.2v2.2h-3.9v10.4h-2.4V230.8z M723.4,228.5h2.6l3.8,6l3.8-6h2.5v12.6h-2.3v-8.9
		l-3.9,6h-0.2l-3.9-6v8.9h-2.3V228.5z"/>
	<g>
		<linearGradient id="SVGID_1_" gradientUnits="userSpaceOnUse" x1="371.7545" y1="120.5464" x2="760.0029" y2="120.5464">
			<stop  offset="0" style="stop-color:#BAD8D9"/>
			<stop  offset="0.5" style="stop-color:#66909E"/>
			<stop  offset="1" style="stop-color:#BAD8D9"/>
		</linearGradient>
		<path class="st1" d="M760,120.5c0-4-3.2-7.3-7.3-7.3c-1.8,0-3.4,0.6-4.7,1.7l0,0c-32.2,25.3-60.2,36.8-88.7,36.4
			c-27.6-0.3-56-12-89.1-36.8c-35.7-26.7-66.7-39.3-97.6-39.6c-0.4,0-0.8,0-1.3,0c-31.1,0-62.8,13-96.8,39.8l0,0
			c-1.7,1.3-2.8,3.4-2.8,5.7c0,4,3.2,7.3,7.3,7.3c1.7,0,3.2-0.6,4.5-1.5l0,0c32.2-25.3,60.5-37,89-36.6c27.7,0.3,56,12,89.1,36.8
			c35.7,26.7,66.7,39.3,97.6,39.6c0.4,0,0.8,0,1.3,0c31.1,0,62.8-13.1,96.9-39.8l0,0C758.9,124.8,760,122.8,760,120.5z"/>
		<linearGradient id="SVGID_2_" gradientUnits="userSpaceOnUse" x1="371.7545" y1="120.5456" x2="760.0029" y2="120.5456">
			<stop  offset="0" style="stop-color:#66909E"/>
			<stop  offset="8.758622e-02" style="stop-color:#779EAA"/>
			<stop  offset="0.3632" style="stop-color:#A8C8CC"/>
			<stop  offset="0.5" style="stop-color:#BAD8D9"/>
			<stop  offset="0.629" style="stop-color:#A9CACD"/>
			<stop  offset="0.8842" style="stop-color:#7CA3AE"/>
			<stop  offset="1" style="stop-color:#66909E"/>
		</linearGradient>
		<path class="st2" d="M759.5,123.2L759.5,123.2c0.3-0.8,0.5-1.7,0.5-2.7c0-4-3.2-7.3-7.3-7.3c-3.1,0-5.7,1.9-6.7,4.6l0,0
			c-28.5,71.2-58.4,108.7-86.4,108.7c-0.1,0-0.2,0-0.3,0c-27.9-0.3-57.9-37.9-86.7-108.7C540.8,38.6,508.2,0,472.8,0
			c-0.1,0-0.3,0-0.4,0c-35.2,0.3-67.9,38.8-100.1,117.7c0,0,0,0.1,0,0.1c-0.3,0.8-0.5,1.8-0.5,2.7c0,4,3.2,7.3,7.3,7.3
			c3,0,5.6-1.9,6.7-4.5l0,0c28.9-70.9,58.9-108.5,86.8-108.8c0.1,0,0.2,0,0.3,0c28,0,57.8,37.6,86.4,108.8
			c32.1,78.9,64.8,117.4,100,117.8c0.2,0,0.4,0,0.5,0c35.3,0,68-38.5,99.8-117.7C759.4,123.4,759.4,123.4,759.5,123.2
			C759.5,123.3,759.5,123.3,759.5,123.2z"/>
	</g>
	<path class="st0" d="M126.1,167.6c4.3,0,8.4,0.8,12.1,2.3c3.6,1.5,6.7,3.6,9.4,6.3c5.5,5.6,8.6,13.4,8.6,22
		c0,8.5-3.1,16.4-8.8,22.2c-5.6,5.7-13.3,8.9-21.6,8.9c-4.3,0-8.4-0.8-12.1-2.3c-3.6-1.5-6.7-3.6-9.4-6.3c-5.5-5.6-8.6-13.4-8.6-22
		c0-8.5,3.1-16.4,8.8-22.2C110.2,170.8,117.8,167.6,126.1,167.6 M126.1,155.8c-23.7,0-42.2,18.7-42.2,42.9c0,24.2,18,42.4,42,42.4
		c23.7,0,42.2-18.7,42.2-42.9C168.1,174.1,150,155.8,126.1,155.8L126.1,155.8z M377.7,155.8c-3.3,0-5.9,2.6-5.9,5.9v72.6
		c0,3.3,2.6,5.9,5.9,5.9s5.9-2.6,5.9-5.9v-72.6C383.6,158.5,380.9,155.8,377.7,155.8z M222.6,155.8c-21.7,0-39.3,19.2-39.3,42.7
		v35.8c0,3.3,2.6,5.9,5.9,5.9c3.3,0,5.9-2.6,5.9-5.9v-35.8c0-17,12.3-30.9,27.5-30.9c15.1,0,27.4,13.8,27.4,30.8v35.9
		c0,3.3,2.6,5.9,5.9,5.9c3.3,0,5.9-2.6,5.9-5.9v-35.9C261.8,174.9,244.2,155.8,222.6,155.8z M474.5,155.9c-0.3-0.1-0.6-0.1-0.9-0.1
		c-2.9,0-5.4,2.1-5.8,5c-6.7,41-19.6,68.5-27.6,68.5c-5.4,0-19.9-17.2-27.4-68.4c-0.4-2.9-2.9-5-5.8-5c-0.3,0-0.6,0-0.9,0.1
		c-1.6,0.2-2.9,1.1-3.9,2.3c-0.9,1.3-1.3,2.8-1.1,4.4c1.9,13.1,12.9,78.5,39.1,78.5c10.8,0,20.4-11.7,28.5-34.7
		c6.2-17.6,9.6-36.4,10.8-43.8C479.9,159.5,477.7,156.4,474.5,155.9z M349.6,155.9c-0.3-0.1-0.6-0.1-0.9-0.1c-2.9,0-5.4,2.1-5.8,5
		c-6.7,41-19.6,68.5-27.6,68.5c-5.4,0-19.9-17.2-27.4-68.4c-0.4-2.9-2.9-5-5.8-5c-0.3,0-0.6,0-0.9,0.1c-1.6,0.2-2.9,1.1-3.9,2.3
		c-0.9,1.3-1.3,2.8-1.1,4.4c1.1,7.3,4.2,26.2,10.3,43.8c7.9,23,17.6,34.7,28.9,34.7c10.8,0,20.4-11.7,28.5-34.7
		c6.2-17.6,9.6-36.5,10.8-43.8C355,159.5,352.8,156.4,349.6,155.9z M562.9,234.3c-1.9-13.1-12.9-78.5-39.1-78.5
		c-10.8,0-20.4,11.7-28.5,34.7c-6.2,17.6-9.6,36.4-10.8,43.8c-0.5,3.2,1.7,6.2,4.9,6.8c0.3,0.1,0.6,0.1,1,0.1c2.9,0,5.4-2.1,5.8-5
		c0.9-5.6,2.1-11.7,3.5-17.7h48.4c1.2,5.6,2.2,11.5,3.1,17.6c0.4,2.9,2.9,5,5.8,5c0.3,0,0.6,0,0.9-0.1c1.6-0.2,2.9-1.1,3.9-2.3
		C562.7,237.5,563.1,235.9,562.9,234.3z M502.4,207.9c6.9-24.9,15-40.3,21.4-40.3c4.4,0,14.2,11,21.8,40.3H502.4z M72.8,225.5
		c0-3.1-2.5-5.9-5.9-5.9c-1.4,0-2.7,0.4-4,1.5c-6.6,5.8-12.8,8.2-21.6,8.2c-8.2,0-15.7-3-21.1-8.6c-5.5-5.6-8.5-13.4-8.5-22
		c0-8.6,3.1-16.5,8.7-22.3c5.5-5.7,13.1-8.8,21.2-8.8c8.6,0,14.7,2.1,20.9,7.1c1,0.9,2.3,1.4,3.8,1.4c3.3,0,5.9-2.6,5.9-5.9
		c0-1.8-0.7-3.4-2.2-4.6c-8.3-6.7-17-9.7-28.3-9.7C18.3,155.8,0,174.6,0,198.7c0,24.2,17.8,42.4,41.4,42.4
		c11.7,0,20.9-3.5,29.6-11.3C72.2,228.7,72.8,227.2,72.8,225.5z"/>
</g>
</svg>
