<?xml version="1.0" encoding="utf-8"?>
<!-- Generator: Adobe Illustrator 22.1.0, SVG Export Plug-In . SVG Version: 6.00 Build 0)  -->
<svg version="1.1" id="Layer_1" xmlns="http://www.w3.org/2000/svg" xmlns:xlink="http://www.w3.org/1999/xlink" x="0px" y="0px"
	 viewBox="0 0 800 490.2" style="enable-background:new 0 0 800 490.2;" xml:space="preserve">
<style type="text/css">
	.st0{fill:#97C9CD;}
	.st1{fill:#FB7B56;}
</style>
<g>
	<g>
		<circle class="st0" cx="55.5" cy="9.5" r="3.1"/>
		<circle class="st0" cx="71.2" cy="9.5" r="3.1"/>
		<circle class="st0" cx="86.9" cy="9.5" r="3.1"/>
		<circle class="st0" cx="102.5" cy="9.5" r="3.1"/>
		<circle class="st0" cx="118.2" cy="9.5" r="3.1"/>
		<circle class="st0" cx="133.8" cy="9.5" r="3.1"/>
	</g>
	<g>
		<circle class="st0" cx="55.5" cy="27" r="3.1"/>
		<circle class="st0" cx="71.2" cy="27" r="3.1"/>
		<circle class="st0" cx="86.9" cy="27" r="3.1"/>
		<circle class="st0" cx="102.5" cy="27" r="3.1"/>
		<circle class="st0" cx="118.2" cy="27" r="3.1"/>
		<circle class="st0" cx="133.8" cy="27" r="3.1"/>
		<circle class="st0" cx="149.5" cy="27" r="3.1"/>
		<circle class="st0" cx="165.1" cy="27" r="3.1"/>
		<circle class="st0" cx="180.8" cy="27" r="3.1"/>
		<circle class="st0" cx="196.5" cy="27" r="3.1"/>
		<circle class="st0" cx="212.1" cy="27" r="3.1"/>
		<circle class="st0" cx="227.8" cy="27" r="3.1"/>
		<circle class="st0" cx="760.1" cy="27" r="3.1"/>
		<circle class="st0" cx="775.8" cy="27" r="3.1"/>
	</g>
	<g>
		<circle class="st0" cx="39.9" cy="44.4" r="3.1"/>
		<circle class="st0" cx="55.5" cy="44.4" r="3.1"/>
		<circle class="st0" cx="71.2" cy="44.4" r="3.1"/>
		<circle class="st0" cx="86.9" cy="44.4" r="3.1"/>
		<circle class="st0" cx="102.5" cy="44.4" r="3.1"/>
		<circle class="st0" cx="118.2" cy="44.4" r="3.1"/>
		<circle class="st0" cx="133.8" cy="44.4" r="3.1"/>
		<circle class="st0" cx="149.5" cy="44.4" r="3.1"/>
		<circle class="st0" cx="165.1" cy="44.4" r="3.1"/>
		<circle class="st0" cx="180.8" cy="44.4" r="3.1"/>
		<circle class="st0" cx="196.5" cy="44.4" r="3.1"/>
		<circle class="st0" cx="212.1" cy="44.4" r="3.1"/>
		<circle class="st0" cx="227.8" cy="44.4" r="3.1"/>
		<circle class="st0" cx="243.4" cy="44.4" r="3.1"/>
		<circle class="st0" cx="259.1" cy="44.4" r="3.1"/>
		<circle class="st0" cx="274.7" cy="44.4" r="3.1"/>
		<circle class="st0" cx="290.4" cy="44.4" r="3.1"/>
		<circle class="st0" cx="306.1" cy="44.4" r="3.1"/>
		<circle class="st0" cx="321.7" cy="44.4" r="3.1"/>
		<circle class="st0" cx="337.4" cy="44.4" r="3.1"/>
		<circle class="st0" cx="353" cy="44.4" r="3.1"/>
		<circle class="st0" cx="368.7" cy="44.4" r="3.1"/>
		<circle class="st0" cx="384.3" cy="44.4" r="3.1"/>
		<circle class="st0" cx="400" cy="44.4" r="3.1"/>
		<circle class="st0" cx="415.7" cy="44.4" r="3.1"/>
		<circle class="st0" cx="431.3" cy="44.4" r="3.1"/>
		<circle class="st0" cx="447" cy="44.4" r="3.1"/>
		<circle class="st0" cx="462.6" cy="44.4" r="3.1"/>
		<circle class="st0" cx="760.1" cy="44.4" r="3.1"/>
		<circle class="st0" cx="775.8" cy="44.4" r="3.1"/>
		<circle class="st0" cx="791.4" cy="44.4" r="3.1"/>
	</g>
	<g>
		<circle class="st0" cx="39.9" cy="61.9" r="3.1"/>
		<circle class="st0" cx="55.5" cy="61.9" r="3.1"/>
		<circle class="st0" cx="71.2" cy="61.9" r="3.1"/>
		<circle class="st0" cx="86.9" cy="61.9" r="3.1"/>
		<circle class="st0" cx="102.5" cy="61.9" r="3.1"/>
		<circle class="st0" cx="118.2" cy="61.9" r="3.1"/>
		<circle class="st0" cx="133.8" cy="61.9" r="3.1"/>
		<circle class="st0" cx="149.5" cy="61.9" r="3.1"/>
		<circle class="st0" cx="165.1" cy="61.9" r="3.1"/>
		<circle class="st0" cx="180.8" cy="61.9" r="3.1"/>
		<circle class="st0" cx="196.5" cy="61.9" r="3.1"/>
		<circle class="st0" cx="212.1" cy="61.9" r="3.1"/>
		<circle class="st0" cx="227.8" cy="61.9" r="3.1"/>
		<circle class="st0" cx="243.4" cy="61.9" r="3.1"/>
		<circle class="st0" cx="259.1" cy="61.9" r="3.1"/>
		<circle class="st0" cx="274.7" cy="61.9" r="3.1"/>
		<circle class="st0" cx="290.4" cy="61.9" r="3.1"/>
		<circle class="st0" cx="306.1" cy="61.9" r="3.1"/>
		<circle class="st0" cx="321.7" cy="61.9" r="3.1"/>
		<circle class="st0" cx="337.4" cy="61.9" r="3.1"/>
		<circle class="st0" cx="353" cy="61.9" r="3.1"/>
		<circle class="st0" cx="368.7" cy="61.9" r="3.1"/>
		<circle class="st0" cx="384.3" cy="61.9" r="3.1"/>
		<circle class="st0" cx="400" cy="61.9" r="3.1"/>
		<circle class="st0" cx="415.7" cy="61.9" r="3.1"/>
		<circle class="st0" cx="431.3" cy="61.9" r="3.1"/>
		<circle class="st0" cx="447" cy="61.9" r="3.1"/>
		<circle class="st0" cx="462.6" cy="61.9" r="3.1"/>
		<circle class="st0" cx="478.3" cy="61.9" r="3.1"/>
		<circle class="st0" cx="493.9" cy="61.9" r="3.1"/>
		<circle class="st0" cx="509.6" cy="61.9" r="3.1"/>
		<circle class="st0" cx="525.3" cy="61.9" r="3.1"/>
		<circle class="st0" cx="540.9" cy="61.9" r="3.1"/>
		<circle class="st0" cx="744.5" cy="61.9" r="3.1"/>
		<circle class="st0" cx="760.1" cy="61.9" r="3.1"/>
		<circle class="st0" cx="775.8" cy="61.9" r="3.1"/>
		<circle class="st0" cx="791.4" cy="61.9" r="3.1"/>
	</g>
	<g>
		<circle class="st0" cx="39.9" cy="79.3" r="3.1"/>
		<circle class="st0" cx="55.5" cy="79.3" r="3.1"/>
		<circle class="st0" cx="71.2" cy="79.3" r="3.1"/>
		<circle class="st0" cx="86.9" cy="79.3" r="3.1"/>
		<circle class="st0" cx="102.5" cy="79.3" r="3.1"/>
		<circle class="st0" cx="118.2" cy="79.3" r="3.1"/>
		<circle class="st0" cx="133.8" cy="79.3" r="3.1"/>
		<circle class="st0" cx="149.5" cy="79.3" r="3.1"/>
		<circle class="st0" cx="165.1" cy="79.3" r="3.1"/>
		<circle class="st0" cx="180.8" cy="79.3" r="3.1"/>
		<circle class="st0" cx="196.5" cy="79.3" r="3.1"/>
		<circle class="st0" cx="212.1" cy="79.3" r="3.1"/>
		<circle class="st0" cx="227.8" cy="79.3" r="3.1"/>
		<circle class="st0" cx="243.4" cy="79.3" r="3.1"/>
		<circle class="st0" cx="259.1" cy="79.3" r="3.1"/>
		<circle class="st0" cx="274.7" cy="79.3" r="3.1"/>
		<circle class="st0" cx="290.4" cy="79.3" r="3.1"/>
		<circle class="st0" cx="306.1" cy="79.3" r="3.1"/>
		<circle class="st0" cx="321.7" cy="79.3" r="3.1"/>
		<circle class="st0" cx="337.4" cy="79.3" r="3.1"/>
		<circle class="st0" cx="353" cy="79.3" r="3.1"/>
		<circle class="st0" cx="368.7" cy="79.3" r="3.1"/>
		<circle class="st0" cx="384.3" cy="79.3" r="3.1"/>
		<circle class="st0" cx="400" cy="79.3" r="3.1"/>
		<circle class="st0" cx="415.7" cy="79.3" r="3.1"/>
		<circle class="st0" cx="431.3" cy="79.3" r="3.1"/>
		<circle class="st0" cx="447" cy="79.3" r="3.1"/>
		<circle class="st0" cx="462.6" cy="79.3" r="3.1"/>
		<circle class="st0" cx="478.3" cy="79.3" r="3.1"/>
		<circle class="st0" cx="493.9" cy="79.3" r="3.1"/>
		<circle class="st0" cx="509.6" cy="79.3" r="3.1"/>
		<circle class="st0" cx="525.3" cy="79.3" r="3.1"/>
		<circle class="st0" cx="540.9" cy="79.3" r="3.1"/>
		<circle class="st0" cx="556.6" cy="79.3" r="3.1"/>
		<circle class="st0" cx="572.2" cy="79.3" r="3.1"/>
		<circle class="st0" cx="713.1" cy="79.3" r="3.1"/>
		<circle class="st0" cx="728.8" cy="79.3" r="3.1"/>
		<circle class="st0" cx="744.5" cy="79.3" r="3.1"/>
		<circle class="st0" cx="760.1" cy="79.3" r="3.1"/>
		<circle class="st0" cx="775.8" cy="79.3" r="3.1"/>
	</g>
	<g>
		<circle class="st0" cx="24.2" cy="96.8" r="3.1"/>
		<circle class="st0" cx="39.9" cy="96.8" r="3.1"/>
		<circle class="st0" cx="55.5" cy="96.8" r="3.1"/>
		<circle class="st0" cx="71.2" cy="96.8" r="3.1"/>
		<circle class="st0" cx="86.9" cy="96.8" r="3.1"/>
		<circle class="st0" cx="102.5" cy="96.8" r="3.1"/>
		<circle class="st0" cx="118.2" cy="96.8" r="3.1"/>
		<circle class="st0" cx="133.8" cy="96.8" r="3.1"/>
		<circle class="st0" cx="149.5" cy="96.8" r="3.1"/>
		<circle class="st0" cx="165.1" cy="96.8" r="3.1"/>
		<circle class="st0" cx="180.8" cy="96.8" r="3.1"/>
		<circle class="st0" cx="196.5" cy="96.8" r="3.1"/>
		<circle class="st0" cx="212.1" cy="96.8" r="3.1"/>
		<circle class="st0" cx="227.8" cy="96.8" r="3.1"/>
		<circle class="st0" cx="243.4" cy="96.8" r="3.1"/>
		<circle class="st0" cx="259.1" cy="96.8" r="3.1"/>
		<circle class="st0" cx="274.7" cy="96.8" r="3.1"/>
		<circle class="st0" cx="290.4" cy="96.8" r="3.1"/>
		<circle class="st0" cx="306.1" cy="96.8" r="3.1"/>
		<circle class="st0" cx="321.7" cy="96.8" r="3.1"/>
		<circle class="st0" cx="337.4" cy="96.8" r="3.1"/>
		<circle class="st0" cx="353" cy="96.8" r="3.1"/>
		<circle class="st0" cx="368.7" cy="96.8" r="3.1"/>
		<circle class="st0" cx="384.3" cy="96.8" r="3.1"/>
		<circle class="st0" cx="400" cy="96.8" r="3.1"/>
		<circle class="st0" cx="415.7" cy="96.8" r="3.1"/>
		<circle class="st0" cx="431.3" cy="96.8" r="3.1"/>
		<circle class="st0" cx="447" cy="96.8" r="3.1"/>
		<circle class="st0" cx="462.6" cy="96.8" r="3.1"/>
		<circle class="st0" cx="478.3" cy="96.8" r="3.1"/>
		<circle class="st0" cx="493.9" cy="96.8" r="3.1"/>
		<circle class="st0" cx="509.6" cy="96.8" r="3.1"/>
		<circle class="st0" cx="525.3" cy="96.8" r="3.1"/>
		<circle class="st0" cx="540.9" cy="96.8" r="3.1"/>
		<circle class="st0" cx="556.6" cy="96.8" r="3.1"/>
		<circle class="st0" cx="572.2" cy="96.8" r="3.1"/>
		<circle class="st0" cx="587.9" cy="96.8" r="3.1"/>
		<circle class="st0" cx="697.5" cy="96.8" r="3.1"/>
		<circle class="st0" cx="713.1" cy="96.8" r="3.1"/>
		<circle class="st0" cx="728.8" cy="96.8" r="3.1"/>
		<circle class="st0" cx="744.5" cy="96.8" r="3.1"/>
		<circle class="st0" cx="760.1" cy="96.8" r="3.1"/>
	</g>
	<g>
		<circle class="st0" cx="24.2" cy="114.2" r="3.1"/>
		<circle class="st0" cx="39.9" cy="114.2" r="3.1"/>
		<circle class="st0" cx="55.5" cy="114.2" r="3.1"/>
		<circle class="st0" cx="71.2" cy="114.2" r="3.1"/>
		<circle class="st0" cx="86.9" cy="114.2" r="3.1"/>
		<circle class="st0" cx="102.5" cy="114.2" r="3.1"/>
		<circle class="st0" cx="118.2" cy="114.2" r="3.1"/>
		<circle class="st0" cx="133.8" cy="114.2" r="3.1"/>
		<circle class="st0" cx="149.5" cy="114.2" r="3.1"/>
		<circle class="st0" cx="165.1" cy="114.2" r="3.1"/>
		<circle class="st0" cx="180.8" cy="114.2" r="3.1"/>
		<circle class="st0" cx="196.5" cy="114.2" r="3.1"/>
		<circle class="st0" cx="212.1" cy="114.2" r="3.1"/>
		<circle class="st0" cx="227.8" cy="114.2" r="3.1"/>
		<circle class="st0" cx="243.4" cy="114.2" r="3.1"/>
		<circle class="st0" cx="259.1" cy="114.2" r="3.1"/>
		<circle class="st0" cx="274.7" cy="114.2" r="3.1"/>
		<circle class="st0" cx="290.4" cy="114.2" r="3.1"/>
		<circle class="st0" cx="306.1" cy="114.2" r="3.1"/>
		<circle class="st0" cx="321.7" cy="114.2" r="3.1"/>
		<circle class="st0" cx="337.4" cy="114.2" r="3.1"/>
		<circle class="st0" cx="353" cy="114.2" r="3.1"/>
		<circle class="st0" cx="368.7" cy="114.2" r="3.1"/>
		<circle class="st0" cx="384.3" cy="114.2" r="3.1"/>
		<circle class="st0" cx="400" cy="114.2" r="3.1"/>
		<circle class="st0" cx="415.7" cy="114.2" r="3.1"/>
		<circle class="st0" cx="431.3" cy="114.2" r="3.1"/>
		<circle class="st0" cx="447" cy="114.2" r="3.1"/>
		<circle class="st0" cx="462.6" cy="114.2" r="3.1"/>
		<circle class="st0" cx="478.3" cy="114.2" r="3.1"/>
		<circle class="st0" cx="493.9" cy="114.2" r="3.1"/>
		<circle class="st0" cx="509.6" cy="114.2" r="3.1"/>
		<circle class="st0" cx="525.3" cy="114.2" r="3.1"/>
		<circle class="st0" cx="540.9" cy="114.2" r="3.1"/>
		<circle class="st0" cx="556.6" cy="114.2" r="3.1"/>
		<circle class="st0" cx="572.2" cy="114.2" r="3.1"/>
		<circle class="st0" cx="587.9" cy="114.2" r="3.1"/>
		<circle class="st0" cx="603.5" cy="114.2" r="3.1"/>
		<circle class="st0" cx="666.2" cy="114.2" r="3.1"/>
		<circle class="st0" cx="681.8" cy="114.2" r="3.1"/>
		<circle class="st0" cx="697.5" cy="114.2" r="3.1"/>
		<circle class="st0" cx="713.1" cy="114.2" r="3.1"/>
		<circle class="st0" cx="728.8" cy="114.2" r="3.1"/>
		<circle class="st0" cx="744.5" cy="114.2" r="3.1"/>
		<circle class="st0" cx="760.1" cy="114.2" r="3.1"/>
	</g>
	<g>
		<circle class="st0" cx="24.2" cy="131.7" r="3.1"/>
		<circle class="st0" cx="39.9" cy="131.7" r="3.1"/>
		<circle class="st0" cx="55.5" cy="131.7" r="3.1"/>
		<circle class="st0" cx="71.2" cy="131.7" r="3.1"/>
		<circle class="st0" cx="86.9" cy="131.7" r="3.1"/>
		<circle class="st0" cx="102.5" cy="131.7" r="3.1"/>
		<circle class="st0" cx="118.2" cy="131.7" r="3.1"/>
		<circle class="st0" cx="133.8" cy="131.7" r="3.1"/>
		<circle class="st0" cx="149.5" cy="131.7" r="3.1"/>
		<circle class="st0" cx="165.1" cy="131.7" r="3.1"/>
		<circle class="st0" cx="180.8" cy="131.7" r="3.1"/>
		<circle class="st0" cx="196.5" cy="131.7" r="3.1"/>
		<circle class="st0" cx="212.1" cy="131.7" r="3.1"/>
		<circle class="st0" cx="227.8" cy="131.7" r="3.1"/>
		<circle class="st0" cx="243.4" cy="131.7" r="3.1"/>
		<circle class="st0" cx="259.1" cy="131.7" r="3.1"/>
		<circle class="st0" cx="274.7" cy="131.7" r="3.1"/>
		<circle class="st0" cx="290.4" cy="131.7" r="3.1"/>
		<circle class="st0" cx="306.1" cy="131.7" r="3.1"/>
		<circle class="st0" cx="321.7" cy="131.7" r="3.1"/>
		<circle class="st0" cx="337.4" cy="131.7" r="3.1"/>
		<circle class="st0" cx="353" cy="131.7" r="3.1"/>
		<circle class="st0" cx="368.7" cy="131.7" r="3.1"/>
		<circle class="st0" cx="384.3" cy="131.7" r="3.1"/>
		<circle class="st0" cx="400" cy="131.7" r="3.1"/>
		<circle class="st0" cx="415.7" cy="131.7" r="3.1"/>
		<circle class="st0" cx="431.3" cy="131.7" r="3.1"/>
		<circle class="st0" cx="447" cy="131.7" r="3.1"/>
		<circle class="st0" cx="462.6" cy="131.7" r="3.1"/>
		<circle class="st0" cx="478.3" cy="131.7" r="3.1"/>
		<circle class="st0" cx="493.9" cy="131.7" r="3.1"/>
		<circle class="st0" cx="509.6" cy="131.7" r="3.1"/>
		<circle class="st0" cx="525.3" cy="131.7" r="3.1"/>
		<circle class="st0" cx="540.9" cy="131.7" r="3.1"/>
		<circle class="st0" cx="556.6" cy="131.7" r="3.1"/>
		<circle class="st0" cx="572.2" cy="131.7" r="3.1"/>
		<circle class="st0" cx="587.9" cy="131.7" r="3.1"/>
		<circle class="st0" cx="603.5" cy="131.7" r="3.1"/>
		<circle class="st0" cx="650.5" cy="131.7" r="3.1"/>
		<circle class="st0" cx="666.2" cy="131.7" r="3.1"/>
		<circle class="st0" cx="681.8" cy="131.7" r="3.1"/>
		<circle class="st0" cx="697.5" cy="131.7" r="3.1"/>
		<circle class="st0" cx="713.1" cy="131.7" r="3.1"/>
		<circle class="st0" cx="728.8" cy="131.7" r="3.1"/>
		<circle class="st0" cx="744.5" cy="131.7" r="3.1"/>
		<circle class="st0" cx="760.1" cy="131.7" r="3.1"/>
		<circle class="st0" cx="775.8" cy="131.7" r="3.1"/>
	</g>
	<g>
		<circle class="st0" cx="8.6" cy="149.1" r="3.1"/>
		<circle class="st0" cx="24.2" cy="149.1" r="3.1"/>
		<circle class="st0" cx="39.9" cy="149.1" r="3.1"/>
		<circle class="st0" cx="55.5" cy="149.1" r="3.1"/>
		<circle class="st0" cx="71.2" cy="149.1" r="3.1"/>
		<circle class="st0" cx="86.9" cy="149.1" r="3.1"/>
		<circle class="st0" cx="102.5" cy="149.1" r="3.1"/>
		<circle class="st0" cx="118.2" cy="149.1" r="3.1"/>
		<circle class="st0" cx="133.8" cy="149.1" r="3.1"/>
		<circle class="st0" cx="149.5" cy="149.1" r="3.1"/>
		<circle class="st0" cx="165.1" cy="149.1" r="3.1"/>
		<circle class="st0" cx="180.8" cy="149.1" r="3.1"/>
		<circle class="st0" cx="196.5" cy="149.1" r="3.1"/>
		<circle class="st0" cx="212.1" cy="149.1" r="3.1"/>
		<circle class="st0" cx="227.8" cy="149.1" r="3.1"/>
		<circle class="st0" cx="243.4" cy="149.1" r="3.1"/>
		<circle class="st0" cx="259.1" cy="149.1" r="3.1"/>
		<circle class="st0" cx="274.7" cy="149.1" r="3.1"/>
		<circle class="st0" cx="290.4" cy="149.1" r="3.1"/>
		<circle class="st0" cx="306.1" cy="149.1" r="3.1"/>
		<circle class="st0" cx="321.7" cy="149.1" r="3.1"/>
		<circle class="st0" cx="337.4" cy="149.1" r="3.1"/>
		<circle class="st0" cx="353" cy="149.1" r="3.1"/>
		<circle class="st0" cx="368.7" cy="149.1" r="3.1"/>
		<circle class="st0" cx="384.3" cy="149.1" r="3.1"/>
		<circle class="st0" cx="400" cy="149.1" r="3.1"/>
		<circle class="st0" cx="415.7" cy="149.1" r="3.1"/>
		<circle class="st0" cx="431.3" cy="149.1" r="3.1"/>
		<circle class="st0" cx="447" cy="149.1" r="3.1"/>
		<circle class="st0" cx="462.6" cy="149.1" r="3.1"/>
		<circle class="st0" cx="478.3" cy="149.1" r="3.1"/>
		<circle class="st0" cx="493.9" cy="149.1" r="3.1"/>
		<circle class="st0" cx="509.6" cy="149.1" r="3.1"/>
		<circle class="st0" cx="525.3" cy="149.1" r="3.1"/>
		<circle class="st0" cx="540.9" cy="149.1" r="3.1"/>
		<circle class="st0" cx="556.6" cy="149.1" r="3.1"/>
		<circle class="st0" cx="572.2" cy="149.1" r="3.1"/>
		<circle class="st0" cx="587.9" cy="149.1" r="3.1"/>
		<circle class="st0" cx="603.5" cy="149.1" r="3.1"/>
		<circle class="st0" cx="634.9" cy="149.1" r="3.1"/>
		<circle class="st0" cx="650.5" cy="149.1" r="3.1"/>
		<circle class="st0" cx="666.2" cy="149.1" r="3.1"/>
		<circle class="st0" cx="681.8" cy="149.1" r="3.1"/>
		<circle class="st0" cx="697.5" cy="149.1" r="3.1"/>
		<circle class="st0" cx="713.1" cy="149.1" r="3.1"/>
		<circle class="st0" cx="728.8" cy="149.1" r="3.1"/>
		<circle class="st0" cx="744.5" cy="149.1" r="3.1"/>
		<circle class="st0" cx="760.1" cy="149.1" r="3.1"/>
	</g>
	<g>
		<circle class="st0" cx="8.6" cy="166.6" r="3.1"/>
		<circle class="st0" cx="24.2" cy="166.6" r="3.1"/>
		<circle class="st0" cx="39.9" cy="166.6" r="3.1"/>
		<circle class="st0" cx="55.5" cy="166.6" r="3.1"/>
		<circle class="st0" cx="71.2" cy="166.6" r="3.1"/>
		<circle class="st0" cx="86.9" cy="166.6" r="3.1"/>
		<circle class="st0" cx="102.5" cy="166.6" r="3.1"/>
		<circle class="st0" cx="118.2" cy="166.6" r="3.1"/>
		<circle class="st0" cx="133.8" cy="166.6" r="3.1"/>
		<circle class="st0" cx="149.5" cy="166.6" r="3.1"/>
		<circle class="st0" cx="165.1" cy="166.6" r="3.1"/>
		<circle class="st0" cx="180.8" cy="166.6" r="3.1"/>
		<circle class="st0" cx="196.5" cy="166.6" r="3.1"/>
		<circle class="st0" cx="212.1" cy="166.6" r="3.1"/>
		<circle class="st0" cx="227.8" cy="166.6" r="3.1"/>
		<circle class="st0" cx="243.4" cy="166.6" r="3.1"/>
		<circle class="st0" cx="259.1" cy="166.6" r="3.1"/>
		<circle class="st0" cx="274.7" cy="166.6" r="3.1"/>
		<circle class="st0" cx="290.4" cy="166.6" r="3.1"/>
		<circle class="st0" cx="306.1" cy="166.6" r="3.1"/>
		<circle class="st0" cx="321.7" cy="166.6" r="3.1"/>
		<circle class="st0" cx="337.4" cy="166.6" r="3.1"/>
		<circle class="st0" cx="353" cy="166.6" r="3.1"/>
		<circle class="st0" cx="368.7" cy="166.6" r="3.1"/>
		<circle class="st0" cx="384.3" cy="166.6" r="3.1"/>
		<circle class="st0" cx="400" cy="166.6" r="3.1"/>
		<circle class="st0" cx="415.7" cy="166.6" r="3.1"/>
		<circle class="st0" cx="431.3" cy="166.6" r="3.1"/>
		<circle class="st0" cx="447" cy="166.6" r="3.1"/>
		<circle class="st0" cx="462.6" cy="166.6" r="3.1"/>
		<circle class="st0" cx="478.3" cy="166.6" r="3.1"/>
		<circle class="st0" cx="493.9" cy="166.6" r="3.1"/>
		<circle class="st0" cx="509.6" cy="166.6" r="3.1"/>
		<circle class="st0" cx="525.3" cy="166.6" r="3.1"/>
		<circle class="st0" cx="540.9" cy="166.6" r="3.1"/>
		<circle class="st0" cx="556.6" cy="166.6" r="3.1"/>
		<circle class="st0" cx="572.2" cy="166.6" r="3.1"/>
		<circle class="st0" cx="587.9" cy="166.6" r="3.1"/>
		<circle class="st0" cx="603.5" cy="166.6" r="3.1"/>
		<circle class="st0" cx="619.2" cy="166.6" r="3.1"/>
		<circle class="st0" cx="634.9" cy="166.6" r="3.1"/>
		<circle class="st0" cx="650.5" cy="166.6" r="3.1"/>
		<circle class="st0" cx="666.2" cy="166.6" r="3.1"/>
		<circle class="st0" cx="681.8" cy="166.6" r="3.1"/>
		<circle class="st0" cx="697.5" cy="166.6" r="3.1"/>
		<circle class="st0" cx="713.1" cy="166.6" r="3.1"/>
		<circle class="st0" cx="728.8" cy="166.6" r="3.1"/>
	</g>
	<g>
		<circle class="st0" cx="8.6" cy="184" r="3.1"/>
		<circle class="st0" cx="24.2" cy="184" r="3.1"/>
		<circle class="st0" cx="39.9" cy="184" r="3.1"/>
		<circle class="st0" cx="55.5" cy="184" r="3.1"/>
		<circle class="st0" cx="71.2" cy="184" r="3.1"/>
		<circle class="st0" cx="86.9" cy="184" r="3.1"/>
		<circle class="st0" cx="102.5" cy="184" r="3.1"/>
		<circle class="st0" cx="118.2" cy="184" r="3.1"/>
		<circle class="st0" cx="133.8" cy="184" r="3.1"/>
		<circle class="st0" cx="149.5" cy="184" r="3.1"/>
		<circle class="st0" cx="165.1" cy="184" r="3.1"/>
		<circle class="st0" cx="180.8" cy="184" r="3.1"/>
		<circle class="st0" cx="196.5" cy="184" r="3.1"/>
		<circle class="st0" cx="212.1" cy="184" r="3.1"/>
		<circle class="st0" cx="227.8" cy="184" r="3.1"/>
		<circle class="st0" cx="243.4" cy="184" r="3.1"/>
		<circle class="st0" cx="259.1" cy="184" r="3.1"/>
		<circle class="st0" cx="274.7" cy="184" r="3.1"/>
		<circle class="st0" cx="290.4" cy="184" r="3.1"/>
		<circle class="st0" cx="306.1" cy="184" r="3.1"/>
		<circle class="st0" cx="321.7" cy="184" r="3.1"/>
		<circle class="st0" cx="337.4" cy="184" r="3.1"/>
		<circle class="st0" cx="353" cy="184" r="3.1"/>
		<circle class="st0" cx="368.7" cy="184" r="3.1"/>
		<circle class="st0" cx="384.3" cy="184" r="3.1"/>
		<circle class="st0" cx="400" cy="184" r="3.1"/>
		<circle class="st0" cx="415.7" cy="184" r="3.1"/>
		<circle class="st0" cx="431.3" cy="184" r="3.1"/>
		<circle class="st0" cx="447" cy="184" r="3.1"/>
		<circle class="st0" cx="462.6" cy="184" r="3.1"/>
		<circle class="st0" cx="478.3" cy="184" r="3.1"/>
		<circle class="st0" cx="493.9" cy="184" r="3.1"/>
		<circle class="st0" cx="509.6" cy="184" r="3.1"/>
		<circle class="st0" cx="525.3" cy="184" r="3.1"/>
		<circle class="st0" cx="540.9" cy="184" r="3.1"/>
		<circle class="st0" cx="556.6" cy="184" r="3.1"/>
		<circle class="st0" cx="572.2" cy="184" r="3.1"/>
		<circle class="st0" cx="587.9" cy="184" r="3.1"/>
		<circle class="st0" cx="603.5" cy="184" r="3.1"/>
		<circle class="st0" cx="619.2" cy="184" r="3.1"/>
		<circle class="st0" cx="634.9" cy="184" r="3.1"/>
		<circle class="st0" cx="650.5" cy="184" r="3.1"/>
		<circle class="st0" cx="666.2" cy="184" r="3.1"/>
		<circle class="st0" cx="681.8" cy="184" r="3.1"/>
		<circle class="st0" cx="697.5" cy="184" r="3.1"/>
		<circle class="st0" cx="713.1" cy="184" r="3.1"/>
		<circle class="st0" cx="728.8" cy="184" r="3.1"/>
	</g>
	<g>
		<circle class="st0" cx="24.2" cy="201.5" r="3.1"/>
		<circle class="st0" cx="39.9" cy="201.5" r="3.1"/>
		<circle class="st0" cx="55.5" cy="201.5" r="3.1"/>
		<circle class="st0" cx="71.2" cy="201.5" r="3.1"/>
		<circle class="st0" cx="86.9" cy="201.5" r="3.1"/>
		<circle class="st0" cx="102.5" cy="201.5" r="3.1"/>
		<circle class="st0" cx="118.2" cy="201.5" r="3.1"/>
		<circle class="st0" cx="133.8" cy="201.5" r="3.1"/>
		<circle class="st0" cx="149.5" cy="201.5" r="3.1"/>
		<circle class="st0" cx="165.1" cy="201.5" r="3.1"/>
		<circle class="st0" cx="180.8" cy="201.5" r="3.1"/>
		<circle class="st0" cx="196.5" cy="201.5" r="3.1"/>
		<circle class="st0" cx="212.1" cy="201.5" r="3.1"/>
		<circle class="st0" cx="227.8" cy="201.5" r="3.1"/>
		<circle class="st0" cx="243.4" cy="201.5" r="3.1"/>
		<circle class="st0" cx="259.1" cy="201.5" r="3.1"/>
		<circle class="st0" cx="274.7" cy="201.5" r="3.1"/>
		<circle class="st0" cx="290.4" cy="201.5" r="3.1"/>
		<circle class="st0" cx="306.1" cy="201.5" r="3.1"/>
		<circle class="st0" cx="321.7" cy="201.5" r="3.1"/>
		<circle class="st0" cx="337.4" cy="201.5" r="3.1"/>
		<circle class="st0" cx="353" cy="201.5" r="3.1"/>
		<circle class="st0" cx="368.7" cy="201.5" r="3.1"/>
		<circle class="st0" cx="384.3" cy="201.5" r="3.1"/>
		<circle class="st0" cx="400" cy="201.5" r="3.1"/>
		<circle class="st0" cx="415.7" cy="201.5" r="3.1"/>
		<circle class="st0" cx="431.3" cy="201.5" r="3.1"/>
		<circle class="st0" cx="447" cy="201.5" r="3.1"/>
		<circle class="st0" cx="462.6" cy="201.5" r="3.1"/>
		<circle class="st0" cx="478.3" cy="201.5" r="3.1"/>
		<circle class="st0" cx="493.9" cy="201.5" r="3.1"/>
		<circle class="st0" cx="509.6" cy="201.5" r="3.1"/>
		<circle class="st0" cx="525.3" cy="201.5" r="3.1"/>
		<circle class="st0" cx="540.9" cy="201.5" r="3.1"/>
		<circle class="st0" cx="556.6" cy="201.5" r="3.1"/>
		<circle class="st0" cx="572.2" cy="201.5" r="3.1"/>
		<circle class="st0" cx="587.9" cy="201.5" r="3.1"/>
		<circle class="st0" cx="603.5" cy="201.5" r="3.1"/>
		<circle class="st0" cx="619.2" cy="201.5" r="3.1"/>
		<circle class="st0" cx="634.9" cy="201.5" r="3.1"/>
		<circle class="st0" cx="650.5" cy="201.5" r="3.1"/>
		<circle class="st0" cx="666.2" cy="201.5" r="3.1"/>
		<circle class="st0" cx="681.8" cy="201.5" r="3.1"/>
		<circle class="st0" cx="697.5" cy="201.5" r="3.1"/>
		<circle class="st0" cx="713.1" cy="201.5" r="3.1"/>
	</g>
	<g>
		<circle class="st0" cx="24.2" cy="218.9" r="3.1"/>
		<circle class="st0" cx="39.9" cy="218.9" r="3.1"/>
		<circle class="st0" cx="55.5" cy="218.9" r="3.1"/>
		<circle class="st0" cx="71.2" cy="218.9" r="3.1"/>
		<circle class="st0" cx="86.9" cy="218.9" r="3.1"/>
		<circle class="st0" cx="102.5" cy="218.9" r="3.1"/>
		<circle class="st0" cx="118.2" cy="218.9" r="3.1"/>
		<circle class="st0" cx="133.8" cy="218.9" r="3.1"/>
		<circle class="st0" cx="149.5" cy="218.9" r="3.1"/>
		<circle class="st0" cx="165.1" cy="218.9" r="3.1"/>
		<circle class="st0" cx="180.8" cy="218.9" r="3.1"/>
		<circle class="st0" cx="196.5" cy="218.9" r="3.1"/>
		<circle class="st0" cx="212.1" cy="218.9" r="3.1"/>
		<circle class="st0" cx="227.8" cy="218.9" r="3.1"/>
		<circle class="st0" cx="243.4" cy="218.9" r="3.1"/>
		<circle class="st0" cx="259.1" cy="218.9" r="3.1"/>
		<circle class="st0" cx="274.7" cy="218.9" r="3.1"/>
		<circle class="st0" cx="290.4" cy="218.9" r="3.1"/>
		<circle class="st0" cx="306.1" cy="218.9" r="3.1"/>
		<circle class="st0" cx="321.7" cy="218.9" r="3.1"/>
		<circle class="st0" cx="337.4" cy="218.9" r="3.1"/>
		<circle class="st0" cx="353" cy="218.9" r="3.1"/>
		<circle class="st0" cx="368.7" cy="218.9" r="3.1"/>
		<circle class="st0" cx="384.3" cy="218.9" r="3.1"/>
		<circle class="st0" cx="400" cy="218.9" r="3.1"/>
		<circle class="st0" cx="415.7" cy="218.9" r="3.1"/>
		<circle class="st0" cx="431.3" cy="218.9" r="3.1"/>
		<circle class="st0" cx="447" cy="218.9" r="3.1"/>
		<circle class="st0" cx="462.6" cy="218.9" r="3.1"/>
		<circle class="st0" cx="478.3" cy="218.9" r="3.1"/>
		<circle class="st0" cx="493.9" cy="218.9" r="3.1"/>
		<circle class="st0" cx="509.6" cy="218.9" r="3.1"/>
		<circle class="st0" cx="525.3" cy="218.9" r="3.1"/>
		<circle class="st0" cx="540.9" cy="218.9" r="3.1"/>
		<circle class="st0" cx="556.6" cy="218.9" r="3.1"/>
		<circle class="st0" cx="572.2" cy="218.9" r="3.1"/>
		<circle class="st0" cx="587.9" cy="218.9" r="3.1"/>
		<circle class="st0" cx="603.5" cy="218.9" r="3.1"/>
		<circle class="st0" cx="619.2" cy="218.9" r="3.1"/>
		<circle class="st0" cx="634.9" cy="218.9" r="3.1"/>
		<circle class="st0" cx="650.5" cy="218.9" r="3.1"/>
		<circle class="st0" cx="666.2" cy="218.9" r="3.1"/>
		<circle class="st0" cx="681.8" cy="218.9" r="3.1"/>
		<circle class="st0" cx="697.5" cy="218.9" r="3.1"/>
		<circle class="st0" cx="713.1" cy="218.9" r="3.1"/>
	</g>
	<g>
		<circle class="st0" cx="24.2" cy="236.4" r="3.1"/>
		<circle class="st0" cx="39.9" cy="236.4" r="3.1"/>
		<circle class="st0" cx="55.5" cy="236.4" r="3.1"/>
		<circle class="st0" cx="71.2" cy="236.4" r="3.1"/>
		<circle class="st0" cx="86.9" cy="236.4" r="3.1"/>
		<circle class="st0" cx="102.5" cy="236.4" r="3.1"/>
		<circle class="st0" cx="118.2" cy="236.4" r="3.1"/>
		<circle class="st0" cx="133.8" cy="236.4" r="3.1"/>
		<circle class="st0" cx="149.5" cy="236.4" r="3.1"/>
		<circle class="st0" cx="165.1" cy="236.4" r="3.1"/>
		<circle class="st0" cx="180.8" cy="236.4" r="3.1"/>
		<circle class="st0" cx="196.5" cy="236.4" r="3.1"/>
		<circle class="st0" cx="212.1" cy="236.4" r="3.1"/>
		<circle class="st0" cx="227.8" cy="236.4" r="3.1"/>
		<circle class="st0" cx="243.4" cy="236.4" r="3.1"/>
		<circle class="st0" cx="259.1" cy="236.4" r="3.1"/>
		<circle class="st0" cx="274.7" cy="236.4" r="3.1"/>
		<circle class="st0" cx="290.4" cy="236.4" r="3.1"/>
		<circle class="st0" cx="306.1" cy="236.4" r="3.1"/>
		<circle class="st0" cx="321.7" cy="236.4" r="3.1"/>
		<circle class="st0" cx="337.4" cy="236.4" r="3.1"/>
		<circle class="st0" cx="353" cy="236.4" r="3.1"/>
		<circle class="st0" cx="368.7" cy="236.4" r="3.1"/>
		<circle class="st0" cx="384.3" cy="236.4" r="3.1"/>
		<circle class="st0" cx="400" cy="236.4" r="3.1"/>
		<circle class="st0" cx="415.7" cy="236.4" r="3.1"/>
		<circle class="st0" cx="431.3" cy="236.4" r="3.1"/>
		<circle class="st0" cx="447" cy="236.4" r="3.1"/>
		<circle class="st0" cx="462.6" cy="236.4" r="3.1"/>
		<circle class="st0" cx="478.3" cy="236.4" r="3.1"/>
		<circle class="st0" cx="493.9" cy="236.4" r="3.1"/>
		<circle class="st0" cx="509.6" cy="236.4" r="3.1"/>
		<circle class="st0" cx="525.3" cy="236.4" r="3.1"/>
		<circle class="st0" cx="540.9" cy="236.4" r="3.1"/>
		<circle class="st0" cx="556.6" cy="236.4" r="3.1"/>
		<circle class="st0" cx="572.2" cy="236.4" r="3.1"/>
		<circle class="st0" cx="587.9" cy="236.4" r="3.1"/>
		<circle class="st0" cx="603.5" cy="236.4" r="3.1"/>
		<circle class="st0" cx="619.2" cy="236.4" r="3.1"/>
		<circle class="st0" cx="634.9" cy="236.4" r="3.1"/>
		<circle class="st0" cx="650.5" cy="236.4" r="3.1"/>
		<circle class="st0" cx="666.2" cy="236.4" r="3.1"/>
		<circle class="st0" cx="681.8" cy="236.4" r="3.1"/>
		<circle class="st0" cx="697.5" cy="236.4" r="3.1"/>
		<circle class="st0" cx="713.1" cy="236.4" r="3.1"/>
	</g>
	<g>
		<circle class="st0" cx="39.9" cy="253.8" r="3.1"/>
		<circle class="st0" cx="55.5" cy="253.8" r="3.1"/>
		<circle class="st0" cx="71.2" cy="253.8" r="3.1"/>
		<circle class="st0" cx="86.9" cy="253.8" r="3.1"/>
		<circle class="st0" cx="102.5" cy="253.8" r="3.1"/>
		<circle class="st0" cx="118.2" cy="253.8" r="3.1"/>
		<circle class="st0" cx="133.8" cy="253.8" r="3.1"/>
		<circle class="st0" cx="149.5" cy="253.8" r="3.1"/>
		<circle class="st0" cx="165.1" cy="253.8" r="3.1"/>
		<circle class="st0" cx="180.8" cy="253.8" r="3.1"/>
		<circle class="st0" cx="196.5" cy="253.8" r="3.1"/>
		<circle class="st0" cx="212.1" cy="253.8" r="3.1"/>
		<circle class="st0" cx="227.8" cy="253.8" r="3.1"/>
		<circle class="st0" cx="243.4" cy="253.8" r="3.1"/>
		<circle class="st0" cx="259.1" cy="253.8" r="3.1"/>
		<circle class="st0" cx="274.7" cy="253.8" r="3.1"/>
		<circle class="st0" cx="290.4" cy="253.8" r="3.1"/>
		<circle class="st0" cx="306.1" cy="253.8" r="3.1"/>
		<circle class="st0" cx="321.7" cy="253.8" r="3.1"/>
		<circle class="st0" cx="337.4" cy="253.8" r="3.1"/>
		<circle class="st0" cx="353" cy="253.8" r="3.1"/>
		<circle class="st0" cx="368.7" cy="253.8" r="3.1"/>
		<circle class="st0" cx="384.3" cy="253.8" r="3.1"/>
		<circle class="st0" cx="400" cy="253.8" r="3.1"/>
		<circle class="st0" cx="415.7" cy="253.8" r="3.1"/>
		<circle class="st0" cx="431.3" cy="253.8" r="3.1"/>
		<circle class="st0" cx="447" cy="253.8" r="3.1"/>
		<circle class="st0" cx="462.6" cy="253.8" r="3.1"/>
		<circle class="st0" cx="478.3" cy="253.8" r="3.1"/>
		<circle class="st0" cx="493.9" cy="253.8" r="3.1"/>
		<circle class="st0" cx="509.6" cy="253.8" r="3.1"/>
		<circle class="st0" cx="525.3" cy="253.8" r="3.1"/>
		<circle class="st0" cx="540.9" cy="253.8" r="3.1"/>
		<circle class="st0" cx="556.6" cy="253.8" r="3.1"/>
		<circle class="st0" cx="572.2" cy="253.8" r="3.1"/>
		<circle class="st0" cx="587.9" cy="253.8" r="3.1"/>
		<circle class="st0" cx="603.5" cy="253.8" r="3.1"/>
		<circle class="st0" cx="619.2" cy="253.8" r="3.1"/>
		<circle class="st0" cx="634.9" cy="253.8" r="3.1"/>
		<circle class="st0" cx="650.5" cy="253.8" r="3.1"/>
		<circle class="st0" cx="666.2" cy="253.8" r="3.1"/>
		<circle class="st0" cx="681.8" cy="253.8" r="3.1"/>
		<circle class="st0" cx="697.5" cy="253.8" r="3.1"/>
		<circle class="st0" cx="713.1" cy="253.8" r="3.1"/>
		<circle class="st0" cx="728.8" cy="253.8" r="3.1"/>
	</g>
	<g>
		<circle class="st0" cx="39.9" cy="271.3" r="3.1"/>
		<circle class="st0" cx="55.5" cy="271.3" r="3.1"/>
		<circle class="st0" cx="71.2" cy="271.3" r="3.1"/>
		<circle class="st0" cx="86.9" cy="271.3" r="3.1"/>
		<circle class="st0" cx="102.5" cy="271.3" r="3.1"/>
		<circle class="st0" cx="118.2" cy="271.3" r="3.1"/>
		<circle class="st0" cx="133.8" cy="271.3" r="3.1"/>
		<circle class="st0" cx="149.5" cy="271.3" r="3.1"/>
		<circle class="st0" cx="165.1" cy="271.3" r="3.1"/>
		<circle class="st0" cx="180.8" cy="271.3" r="3.1"/>
		<circle class="st0" cx="196.5" cy="271.3" r="3.1"/>
		<circle class="st0" cx="212.1" cy="271.3" r="3.1"/>
		<circle class="st0" cx="227.8" cy="271.3" r="3.1"/>
		<circle class="st0" cx="243.4" cy="271.3" r="3.1"/>
		<circle class="st0" cx="259.1" cy="271.3" r="3.1"/>
		<circle class="st0" cx="274.7" cy="271.3" r="3.1"/>
		<circle class="st0" cx="290.4" cy="271.3" r="3.1"/>
		<circle class="st0" cx="306.1" cy="271.3" r="3.1"/>
		<circle class="st0" cx="321.7" cy="271.3" r="3.1"/>
		<circle class="st0" cx="337.4" cy="271.3" r="3.1"/>
		<circle class="st0" cx="353" cy="271.3" r="3.1"/>
		<circle class="st0" cx="368.7" cy="271.3" r="3.1"/>
		<circle class="st0" cx="384.3" cy="271.3" r="3.1"/>
		<circle class="st0" cx="400" cy="271.3" r="3.1"/>
		<circle class="st0" cx="415.7" cy="271.3" r="3.1"/>
		<circle class="st0" cx="431.3" cy="271.3" r="3.1"/>
		<circle class="st0" cx="447" cy="271.3" r="3.1"/>
		<circle class="st0" cx="462.6" cy="271.3" r="3.1"/>
		<circle class="st0" cx="478.3" cy="271.3" r="3.1"/>
		<circle class="st0" cx="493.9" cy="271.3" r="3.1"/>
		<circle class="st0" cx="509.6" cy="271.3" r="3.1"/>
		<circle class="st0" cx="525.3" cy="271.3" r="3.1"/>
		<circle class="st0" cx="540.9" cy="271.3" r="3.1"/>
		<circle class="st0" cx="556.6" cy="271.3" r="3.1"/>
		<circle class="st0" cx="572.2" cy="271.3" r="3.1"/>
		<circle class="st0" cx="587.9" cy="271.3" r="3.1"/>
		<circle class="st0" cx="603.5" cy="271.3" r="3.1"/>
		<circle class="st0" cx="619.2" cy="271.3" r="3.1"/>
		<circle class="st0" cx="634.9" cy="271.3" r="3.1"/>
		<circle class="st0" cx="650.5" cy="271.3" r="3.1"/>
		<circle class="st0" cx="666.2" cy="271.3" r="3.1"/>
		<circle class="st0" cx="681.8" cy="271.3" r="3.1"/>
		<circle class="st0" cx="697.5" cy="271.3" r="3.1"/>
		<circle class="st0" cx="713.1" cy="271.3" r="3.1"/>
		<circle class="st0" cx="728.8" cy="271.3" r="3.1"/>
	</g>
	<circle class="st0" cx="55.5" cy="288.7" r="3.1"/>
	<circle class="st0" cx="71.2" cy="288.7" r="3.1"/>
	<circle class="st0" cx="86.9" cy="288.7" r="3.1"/>
	<circle class="st0" cx="102.5" cy="288.7" r="3.1"/>
	<circle class="st0" cx="118.2" cy="288.7" r="3.1"/>
	<circle class="st0" cx="133.8" cy="288.7" r="3.1"/>
	<circle class="st0" cx="149.5" cy="288.7" r="3.1"/>
	<circle class="st0" cx="165.1" cy="288.7" r="3.1"/>
	<circle class="st0" cx="180.8" cy="288.7" r="3.1"/>
	<circle class="st0" cx="196.5" cy="288.7" r="3.1"/>
	<circle class="st0" cx="212.1" cy="288.7" r="3.1"/>
	<circle class="st0" cx="227.8" cy="288.7" r="3.1"/>
	<circle class="st0" cx="243.4" cy="288.7" r="3.1"/>
	<circle class="st0" cx="259.1" cy="288.7" r="3.1"/>
	<circle class="st0" cx="274.7" cy="288.7" r="3.1"/>
	<circle class="st0" cx="290.4" cy="288.7" r="3.1"/>
	<circle class="st1" cx="306.1" cy="288.7" r="3.1"/>
	<circle class="st1" cx="321.7" cy="288.7" r="3.1"/>
	<circle class="st1" cx="337.4" cy="288.7" r="3.1"/>
	<circle class="st1" cx="353" cy="288.7" r="3.1"/>
	<circle class="st0" cx="368.7" cy="288.7" r="3.1"/>
	<circle class="st0" cx="384.3" cy="288.7" r="3.1"/>
	<circle class="st0" cx="400" cy="288.7" r="3.1"/>
	<circle class="st0" cx="415.7" cy="288.7" r="3.1"/>
	<circle class="st0" cx="431.3" cy="288.7" r="3.1"/>
	<circle class="st0" cx="447" cy="288.7" r="3.1"/>
	<circle class="st0" cx="462.6" cy="288.7" r="3.1"/>
	<circle class="st0" cx="478.3" cy="288.7" r="3.1"/>
	<circle class="st0" cx="493.9" cy="288.7" r="3.1"/>
	<circle class="st0" cx="509.6" cy="288.7" r="3.1"/>
	<circle class="st0" cx="525.3" cy="288.7" r="3.1"/>
	<circle class="st0" cx="540.9" cy="288.7" r="3.1"/>
	<circle class="st0" cx="556.6" cy="288.7" r="3.1"/>
	<circle class="st0" cx="572.2" cy="288.7" r="3.1"/>
	<circle class="st0" cx="587.9" cy="288.7" r="3.1"/>
	<circle class="st0" cx="603.5" cy="288.7" r="3.1"/>
	<circle class="st0" cx="619.2" cy="288.7" r="3.1"/>
	<circle class="st0" cx="634.9" cy="288.7" r="3.1"/>
	<circle class="st0" cx="650.5" cy="288.7" r="3.1"/>
	<circle class="st0" cx="666.2" cy="288.7" r="3.1"/>
	<circle class="st0" cx="681.8" cy="288.7" r="3.1"/>
	<circle class="st0" cx="697.5" cy="288.7" r="3.1"/>
	<circle class="st0" cx="713.1" cy="288.7" r="3.1"/>
	<circle class="st0" cx="71.2" cy="306.2" r="3.1"/>
	<circle class="st0" cx="86.9" cy="306.2" r="3.1"/>
	<circle class="st0" cx="102.5" cy="306.2" r="3.1"/>
	<circle class="st0" cx="118.2" cy="306.2" r="3.1"/>
	<circle class="st0" cx="133.8" cy="306.2" r="3.1"/>
	<circle class="st0" cx="149.5" cy="306.2" r="3.1"/>
	<circle class="st0" cx="165.1" cy="306.2" r="3.1"/>
	<circle class="st0" cx="180.8" cy="306.2" r="3.1"/>
	<circle class="st0" cx="196.5" cy="306.2" r="3.1"/>
	<circle class="st0" cx="212.1" cy="306.2" r="3.1"/>
	<circle class="st0" cx="227.8" cy="306.2" r="3.1"/>
	<circle class="st0" cx="243.4" cy="306.2" r="3.1"/>
	<circle class="st0" cx="259.1" cy="306.2" r="3.1"/>
	<circle class="st0" cx="274.7" cy="306.2" r="3.1"/>
	<circle class="st0" cx="290.4" cy="306.2" r="3.1"/>
	<circle class="st1" cx="306.1" cy="306.2" r="3.1"/>
	<circle class="st1" cx="321.7" cy="306.2" r="3.1"/>
	<circle class="st1" cx="337.4" cy="306.2" r="3.1"/>
	<circle class="st1" cx="353" cy="306.2" r="3.1"/>
	<circle class="st0" cx="368.7" cy="306.2" r="3.1"/>
	<circle class="st0" cx="384.3" cy="306.2" r="3.1"/>
	<circle class="st0" cx="400" cy="306.2" r="3.1"/>
	<circle class="st0" cx="415.7" cy="306.2" r="3.1"/>
	<circle class="st0" cx="431.3" cy="306.2" r="3.1"/>
	<circle class="st0" cx="447" cy="306.2" r="3.1"/>
	<circle class="st0" cx="462.6" cy="306.2" r="3.1"/>
	<circle class="st0" cx="478.3" cy="306.2" r="3.1"/>
	<circle class="st0" cx="493.9" cy="306.2" r="3.1"/>
	<circle class="st0" cx="509.6" cy="306.2" r="3.1"/>
	<circle class="st0" cx="525.3" cy="306.2" r="3.1"/>
	<circle class="st0" cx="540.9" cy="306.2" r="3.1"/>
	<circle class="st0" cx="556.6" cy="306.2" r="3.1"/>
	<circle class="st0" cx="572.2" cy="306.2" r="3.1"/>
	<circle class="st0" cx="587.9" cy="306.2" r="3.1"/>
	<circle class="st0" cx="603.5" cy="306.2" r="3.1"/>
	<circle class="st0" cx="619.2" cy="306.2" r="3.1"/>
	<circle class="st0" cx="634.9" cy="306.2" r="3.1"/>
	<circle class="st0" cx="650.5" cy="306.2" r="3.1"/>
	<circle class="st0" cx="666.2" cy="306.2" r="3.1"/>
	<circle class="st0" cx="681.8" cy="306.2" r="3.1"/>
	<circle class="st0" cx="697.5" cy="306.2" r="3.1"/>
	<circle class="st0" cx="86.9" cy="323.6" r="3.1"/>
	<circle class="st0" cx="102.5" cy="323.6" r="3.1"/>
	<circle class="st0" cx="118.2" cy="323.6" r="3.1"/>
	<circle class="st0" cx="133.8" cy="323.6" r="3.1"/>
	<circle class="st0" cx="149.5" cy="323.6" r="3.1"/>
	<circle class="st0" cx="165.1" cy="323.6" r="3.1"/>
	<circle class="st0" cx="180.8" cy="323.6" r="3.1"/>
	<circle class="st0" cx="196.5" cy="323.6" r="3.1"/>
	<circle class="st0" cx="212.1" cy="323.6" r="3.1"/>
	<circle class="st0" cx="227.8" cy="323.6" r="3.1"/>
	<circle class="st0" cx="243.4" cy="323.6" r="3.1"/>
	<circle class="st0" cx="259.1" cy="323.6" r="3.1"/>
	<circle class="st0" cx="274.7" cy="323.6" r="3.1"/>
	<circle class="st0" cx="290.4" cy="323.6" r="3.1"/>
	<circle class="st1" cx="306.1" cy="323.6" r="3.1"/>
	<circle class="st1" cx="321.7" cy="323.6" r="3.1"/>
	<circle class="st1" cx="337.4" cy="323.6" r="3.1"/>
	<circle class="st1" cx="353" cy="323.6" r="3.1"/>
	<circle class="st1" cx="368.7" cy="323.6" r="3.1"/>
	<circle class="st1" cx="384.3" cy="323.6" r="3.1"/>
	<circle class="st1" cx="400" cy="323.6" r="3.1"/>
	<circle class="st0" cx="415.7" cy="323.6" r="3.1"/>
	<circle class="st0" cx="431.3" cy="323.6" r="3.1"/>
	<circle class="st0" cx="447" cy="323.6" r="3.1"/>
	<circle class="st0" cx="462.6" cy="323.6" r="3.1"/>
	<circle class="st0" cx="478.3" cy="323.6" r="3.1"/>
	<circle class="st0" cx="493.9" cy="323.6" r="3.1"/>
	<circle class="st0" cx="509.6" cy="323.6" r="3.1"/>
	<circle class="st0" cx="525.3" cy="323.6" r="3.1"/>
	<circle class="st0" cx="540.9" cy="323.6" r="3.1"/>
	<circle class="st0" cx="556.6" cy="323.6" r="3.1"/>
	<circle class="st0" cx="572.2" cy="323.6" r="3.1"/>
	<circle class="st0" cx="587.9" cy="323.6" r="3.1"/>
	<circle class="st0" cx="603.5" cy="323.6" r="3.1"/>
	<circle class="st0" cx="619.2" cy="323.6" r="3.1"/>
	<circle class="st0" cx="634.9" cy="323.6" r="3.1"/>
	<circle class="st0" cx="650.5" cy="323.6" r="3.1"/>
	<circle class="st0" cx="666.2" cy="323.6" r="3.1"/>
	<circle class="st0" cx="681.8" cy="323.6" r="3.1"/>
	<circle class="st0" cx="133.8" cy="341.1" r="3.1"/>
	<circle class="st0" cx="149.5" cy="341.1" r="3.1"/>
	<circle class="st0" cx="165.1" cy="341.1" r="3.1"/>
	<circle class="st0" cx="180.8" cy="341.1" r="3.1"/>
	<circle class="st0" cx="196.5" cy="341.1" r="3.1"/>
	<circle class="st0" cx="212.1" cy="341.1" r="3.1"/>
	<circle class="st0" cx="227.8" cy="341.1" r="3.1"/>
	<circle class="st0" cx="243.4" cy="341.1" r="3.1"/>
	<circle class="st0" cx="259.1" cy="341.1" r="3.1"/>
	<circle class="st0" cx="274.7" cy="341.1" r="3.1"/>
	<circle class="st0" cx="290.4" cy="341.1" r="3.1"/>
	<circle class="st1" cx="306.1" cy="341.1" r="3.1"/>
	<circle class="st1" cx="321.7" cy="341.1" r="3.1"/>
	<circle class="st1" cx="337.4" cy="341.1" r="3.1"/>
	<circle class="st1" cx="353" cy="341.1" r="3.1"/>
	<circle class="st1" cx="368.7" cy="341.1" r="3.1"/>
	<circle class="st1" cx="384.3" cy="341.1" r="3.1"/>
	<circle class="st1" cx="400" cy="341.1" r="3.1"/>
	<circle class="st1" cx="415.7" cy="341.1" r="3.1"/>
	<circle class="st1" cx="431.3" cy="341.1" r="3.1"/>
	<circle class="st1" cx="447" cy="341.1" r="3.1"/>
	<circle class="st0" cx="462.6" cy="341.1" r="3.1"/>
	<circle class="st0" cx="478.3" cy="341.1" r="3.1"/>
	<circle class="st0" cx="493.9" cy="341.1" r="3.1"/>
	<circle class="st0" cx="509.6" cy="341.1" r="3.1"/>
	<circle class="st0" cx="525.3" cy="341.1" r="3.1"/>
	<circle class="st0" cx="540.9" cy="341.1" r="3.1"/>
	<circle class="st0" cx="556.6" cy="341.1" r="3.1"/>
	<circle class="st0" cx="572.2" cy="341.1" r="3.1"/>
	<circle class="st0" cx="587.9" cy="341.1" r="3.1"/>
	<circle class="st0" cx="603.5" cy="341.1" r="3.1"/>
	<circle class="st0" cx="619.2" cy="341.1" r="3.1"/>
	<circle class="st0" cx="634.9" cy="341.1" r="3.1"/>
	<circle class="st0" cx="650.5" cy="341.1" r="3.1"/>
	<circle class="st0" cx="666.2" cy="341.1" r="3.1"/>
	<circle class="st0" cx="165.1" cy="358.5" r="3.1"/>
	<circle class="st0" cx="180.8" cy="358.5" r="3.1"/>
	<circle class="st0" cx="196.5" cy="358.5" r="3.1"/>
	<circle class="st0" cx="212.1" cy="358.5" r="3.1"/>
	<circle class="st0" cx="227.8" cy="358.5" r="3.1"/>
	<circle class="st1" cx="243.4" cy="358.5" r="3.1"/>
	<circle class="st1" cx="259.1" cy="358.5" r="3.1"/>
	<circle class="st1" cx="274.7" cy="358.5" r="3.1"/>
	<circle class="st1" cx="290.4" cy="358.5" r="3.1"/>
	<circle class="st1" cx="306.1" cy="358.5" r="3.1"/>
	<circle class="st1" cx="321.7" cy="358.5" r="3.1"/>
	<circle class="st1" cx="337.4" cy="358.5" r="3.1"/>
	<circle class="st1" cx="353" cy="358.5" r="3.1"/>
	<circle class="st1" cx="368.7" cy="358.5" r="3.1"/>
	<circle class="st1" cx="384.3" cy="358.5" r="3.1"/>
	<circle class="st1" cx="400" cy="358.5" r="3.1"/>
	<circle class="st1" cx="415.7" cy="358.5" r="3.1"/>
	<circle class="st1" cx="431.3" cy="358.5" r="3.1"/>
	<circle class="st1" cx="447" cy="358.5" r="3.1"/>
	<circle class="st0" cx="462.6" cy="358.5" r="3.1"/>
	<circle class="st0" cx="478.3" cy="358.5" r="3.1"/>
	<circle class="st0" cx="493.9" cy="358.5" r="3.1"/>
	<circle class="st0" cx="509.6" cy="358.5" r="3.1"/>
	<circle class="st0" cx="525.3" cy="358.5" r="3.1"/>
	<circle class="st0" cx="540.9" cy="358.5" r="3.1"/>
	<circle class="st0" cx="556.6" cy="358.5" r="3.1"/>
	<circle class="st0" cx="572.2" cy="358.5" r="3.1"/>
	<circle class="st0" cx="587.9" cy="358.5" r="3.1"/>
	<circle class="st0" cx="603.5" cy="358.5" r="3.1"/>
	<circle class="st0" cx="619.2" cy="358.5" r="3.1"/>
	<circle class="st0" cx="634.9" cy="358.5" r="3.1"/>
	<circle class="st0" cx="650.5" cy="358.5" r="3.1"/>
	<circle class="st1" cx="259.1" cy="376" r="3.1"/>
	<circle class="st1" cx="274.7" cy="376" r="3.1"/>
	<circle class="st1" cx="290.4" cy="376" r="3.1"/>
	<circle class="st1" cx="306.1" cy="376" r="3.1"/>
	<circle class="st1" cx="321.7" cy="376" r="3.1"/>
	<circle class="st1" cx="337.4" cy="376" r="3.1"/>
	<circle class="st1" cx="353" cy="376" r="3.1"/>
	<circle class="st1" cx="368.7" cy="376" r="3.1"/>
	<circle class="st1" cx="384.3" cy="376" r="3.1"/>
	<circle class="st1" cx="400" cy="376" r="3.1"/>
	<circle class="st1" cx="415.7" cy="376" r="3.1"/>
	<circle class="st1" cx="431.3" cy="376" r="3.1"/>
	<circle class="st1" cx="447" cy="376" r="3.1"/>
	<circle class="st0" cx="462.6" cy="376" r="3.1"/>
	<circle class="st0" cx="478.3" cy="376" r="3.1"/>
	<circle class="st0" cx="493.9" cy="376" r="3.1"/>
	<circle class="st0" cx="509.6" cy="376" r="3.1"/>
	<circle class="st0" cx="525.3" cy="376" r="3.1"/>
	<circle class="st0" cx="540.9" cy="376" r="3.1"/>
	<circle class="st0" cx="556.6" cy="376" r="3.1"/>
	<circle class="st0" cx="572.2" cy="376" r="3.1"/>
	<circle class="st0" cx="587.9" cy="376" r="3.1"/>
	<circle class="st0" cx="603.5" cy="376" r="3.1"/>
	<circle class="st0" cx="619.2" cy="376" r="3.1"/>
	<circle class="st0" cx="634.9" cy="376" r="3.1"/>
	<circle class="st0" cx="650.5" cy="376" r="3.1"/>
	<circle class="st1" cx="274.7" cy="393.4" r="3.1"/>
	<circle class="st1" cx="290.4" cy="393.4" r="3.1"/>
	<circle class="st1" cx="306.1" cy="393.4" r="3.1"/>
	<circle class="st1" cx="321.7" cy="393.4" r="3.1"/>
	<circle class="st1" cx="337.4" cy="393.4" r="3.1"/>
	<circle class="st1" cx="353" cy="393.4" r="3.1"/>
	<circle class="st1" cx="368.7" cy="393.4" r="3.1"/>
	<circle class="st1" cx="384.3" cy="393.4" r="3.1"/>
	<circle class="st1" cx="400" cy="393.4" r="3.1"/>
	<circle class="st1" cx="415.7" cy="393.4" r="3.1"/>
	<circle class="st1" cx="431.3" cy="393.4" r="3.1"/>
	<circle class="st1" cx="447" cy="393.4" r="3.1"/>
	<circle class="st0" cx="462.6" cy="393.4" r="3.1"/>
	<circle class="st0" cx="478.3" cy="393.4" r="3.1"/>
	<circle class="st0" cx="493.9" cy="393.4" r="3.1"/>
	<circle class="st0" cx="509.6" cy="393.4" r="3.1"/>
	<circle class="st0" cx="525.3" cy="393.4" r="3.1"/>
	<circle class="st0" cx="540.9" cy="393.4" r="3.1"/>
	<circle class="st0" cx="556.6" cy="393.4" r="3.1"/>
	<circle class="st0" cx="572.2" cy="393.4" r="3.1"/>
	<circle class="st0" cx="587.9" cy="393.4" r="3.1"/>
	<circle class="st0" cx="603.5" cy="393.4" r="3.1"/>
	<circle class="st0" cx="619.2" cy="393.4" r="3.1"/>
	<circle class="st0" cx="634.9" cy="393.4" r="3.1"/>
	<circle class="st0" cx="650.5" cy="393.4" r="3.1"/>
	<circle class="st1" cx="274.7" cy="410.9" r="3.1"/>
	<circle class="st1" cx="290.4" cy="410.9" r="3.1"/>
	<circle class="st1" cx="306.1" cy="410.9" r="3.1"/>
	<circle class="st1" cx="321.7" cy="410.9" r="3.1"/>
	<circle class="st1" cx="337.4" cy="410.9" r="3.1"/>
	<circle class="st1" cx="353" cy="410.9" r="3.1"/>
	<circle class="st1" cx="368.7" cy="410.9" r="3.1"/>
	<circle class="st1" cx="384.3" cy="410.9" r="3.1"/>
	<circle class="st1" cx="400" cy="410.9" r="3.1"/>
	<circle class="st1" cx="415.7" cy="410.9" r="3.1"/>
	<circle class="st1" cx="431.3" cy="410.9" r="3.1"/>
	<circle class="st1" cx="447" cy="410.9" r="3.1"/>
	<circle class="st0" cx="462.6" cy="410.9" r="3.1"/>
	<circle class="st0" cx="478.3" cy="410.9" r="3.1"/>
	<circle class="st0" cx="493.9" cy="410.9" r="3.1"/>
	<circle class="st0" cx="509.6" cy="410.9" r="3.1"/>
	<circle class="st0" cx="525.3" cy="410.9" r="3.1"/>
	<circle class="st0" cx="650.5" cy="410.9" r="3.1"/>
	<circle class="st0" cx="666.2" cy="410.9" r="3.1"/>
	<circle class="st1" cx="353" cy="428.3" r="3.1"/>
	<circle class="st1" cx="368.7" cy="428.3" r="3.1"/>
	<circle class="st1" cx="384.3" cy="428.3" r="3.1"/>
	<circle class="st1" cx="400" cy="428.3" r="3.1"/>
	<circle class="st1" cx="415.7" cy="428.3" r="3.1"/>
	<circle class="st1" cx="431.3" cy="428.3" r="3.1"/>
	<circle class="st0" cx="650.5" cy="428.3" r="3.1"/>
	<circle class="st0" cx="666.2" cy="428.3" r="3.1"/>
	<circle class="st0" cx="681.8" cy="428.3" r="3.1"/>
	<circle class="st1" cx="353" cy="445.8" r="3.1"/>
	<circle class="st1" cx="368.7" cy="445.8" r="3.1"/>
	<circle class="st1" cx="384.3" cy="445.8" r="3.1"/>
	<circle class="st1" cx="400" cy="445.8" r="3.1"/>
	<circle class="st0" cx="650.5" cy="445.8" r="3.1"/>
	<circle class="st0" cx="666.2" cy="445.8" r="3.1"/>
	<circle class="st0" cx="681.8" cy="445.8" r="3.1"/>
	<circle class="st1" cx="368.7" cy="463.2" r="3.1"/>
	<circle class="st1" cx="384.3" cy="463.2" r="3.1"/>
	<circle class="st0" cx="666.2" cy="463.2" r="3.1"/>
	<circle class="st0" cx="681.8" cy="463.2" r="3.1"/>
	<circle class="st1" cx="368.7" cy="480.6" r="3.1"/>
	<circle class="st1" cx="384.3" cy="480.6" r="3.1"/>
	<circle class="st0" cx="681.8" cy="480.6" r="3.1"/>
</g>
</svg>
